<?xml version="1.0" encoding="utf-8"?>
<!-- Generator: Adobe Illustrator 22.0.0, SVG Export Plug-In . SVG Version: 6.00 Build 0)  -->
<svg version="1.1" id="Layer_1" xmlns="http://www.w3.org/2000/svg" xmlns:xlink="http://www.w3.org/1999/xlink" x="0px" y="0px"
	 viewBox="0 0 198.1 198.1" style="enable-background:new 0 0 198.1 198.1;" xml:space="preserve">
<style type="text/css">
	.st0{opacity:0.2;}
	.st1{fill:#F6AF59;}
	.st2{fill:#EB8737;}
	.st3{fill:#EE5431;}
	.st4{fill:#F27B35;}
	.st5{fill:#A73F2D;}
	.st6{fill:#EF6332;}
	.st7{opacity:0.1;fill:#000100;}
</style>
<g id="Mars" class="st0">
	<path class="st1" d="M189.5,58.8c22.2,50-0.2,108.5-50.2,130.7c-50,22.2-108.5-0.2-130.7-50.2C-13.7,89.4,8.8,30.8,58.8,8.6
		C108.7-13.7,167.2,8.8,189.5,58.8z"/>
	<path class="st2" d="M84.1,1.2C70.7,8,49.7,18.6,36.9,24.2c0,0,20.9-1.7,29.1-7c8.2-5.3,26.6-5.9,32.4-7.8c3.1-1,7.3-5.2,10.5-8.8
		C100.7-0.3,92.4-0.1,84.1,1.2z"/>
	<path class="st3" d="M0,100.9C100.7,65,144.5,27.3,154.9,17.3c-9.8-6.7-20.8-11.6-32.4-14.4C93.3,19.4,42.9,31.1,23.3,35.2
		C7.9,53.5-0.4,76.9,0,100.9z"/>
	<path class="st4" d="M23.3,35.2C10,51.1,2,70.7,0.3,91.2C121,35.6,122.6,2.9,122.6,2.9C93.3,19.4,42.9,31.1,23.3,35.2z"/>
	<path class="st4" d="M163.8,46.2c0.9-0.3,7.9-2.4,15.8-4.7c-5-7-10.9-13.3-17.4-18.6c-13.9,10.9-38.7,30-55.1,40.9
		C83.3,79.6,73.4,84,58.8,85.2C44.2,86.4,33.1,94,33.1,94s11.8-4.6,43.3-4.8C107.9,89,161.5,47,163.8,46.2z"/>
	<path class="st4" d="M76.2,99.2c-39.8,6.7-64.9,7.3-75.9,7.2c0.8,11.1,3.5,22.2,8.3,33c1.1,2.6,2.4,5,3.7,7.5
		c10.3-7.7,32.7-22.3,65.2-31.5c45.8-12.9,72.8-44.7,72.8-44.7S131.7,89.8,76.2,99.2z"/>
	<path class="st5" d="M47.3,155.4l-12.2,19.2c5.8,4.9,12.1,9,18.7,12.4c11.3-10.8,40.8-35,81.9-40.1c20.5-2.5,38.5-4.4,52.8-5.6
		c5.2-11,8.4-23,9.3-35.3l-63.5,3.7L47.3,155.4z"/>
	<path class="st4" d="M187,104.7L78.8,134.6l-48.8,35.5c3.6,3.5,7.5,6.7,11.6,9.6c10.6-9.6,45-39.5,66.8-41.8
		C134.3,135.1,187,104.7,187,104.7z"/>
	<path class="st3" d="M57.4,130.8c-23.1,8.1-34.5,18.1-39.8,24.5c4.3,6.2,9.1,11.8,14.5,16.7c8-3.8,21.8-11.5,39.3-25.5
		c28.1-22.6,77.9-29.9,107.8-32.7c7.6-0.7,13.6-2.4,18.3-4.6c1.7-16.7-0.7-34-8-50.5c-0.1-0.3-0.3-0.5-0.4-0.8
		c-8.3,6.8-22.1,18.3-30,27C147.2,98.1,94.6,117.7,57.4,130.8z"/>
	<path class="st6" d="M139.3,189.5c16.7-7.4,30.3-19,40.3-32.9c-7.8,0.7-16.4,2.3-23.6,5.3c-18.5,7.8-28.6,0.9-38.4,11.1
		c-6.5,6.7-31.8,15.4-48.2,20.4C91.6,200.5,116.3,199.7,139.3,189.5z"/>
	<path class="st7" d="M189.5,58.8c-18.1-40.6-60-63-101.9-58.1c28.2,29.2,75.9,95.5,48,190.4c1.2-0.5,2.5-1,3.7-1.5
		C189.3,167.2,211.7,108.7,189.5,58.8z"/>
</g>
</svg>
