<?xml version="1.0" encoding="utf-8"?>
<!-- Generator: Adobe Illustrator 22.0.0, SVG Export Plug-In . SVG Version: 6.00 Build 0)  -->
<svg version="1.1" id="Layer_1" xmlns="http://www.w3.org/2000/svg" xmlns:xlink="http://www.w3.org/1999/xlink" x="0px" y="0px"
	 viewBox="0 0 310.2 310.2" style="enable-background:new 0 0 310.2 310.2;" xml:space="preserve">
<style type="text/css">
	.st0{opacity:0.2;}
	.st1{fill:#4094CE;}
	.st2{fill:#56B453;}
	.st3{fill:#57B653;}
	.st4{opacity:0.2;fill:#000100;}
</style>
<g id="Earth_6_" class="st0">
	<path class="st1" d="M291.8,81.9c40.4,75.5,12,169.5-63.5,209.9c-75.5,40.4-169.5,12-209.9-63.5S6.4,58.8,81.9,18.4
		C157.4-22,251.3,6.4,291.8,81.9z"/>
	<path class="st2" d="M55.2,171.6c0,0,9.4-8.4,31.9,1.3c22.5,9.7,17.6,10.1,31.4,6.6c13.7-3.5,25.7-2,26.1,5
		c0.4,7,2.7,18.6,4.3,27.8c1.6,9.2-8.6,6.8-10.2,13.2c-1.6,6.4-3.7,10.9-1.4,29.7c2.3,18.8,4.5,27.1,11.8,30.4
		c7.3,3.3,5.9,8-1.9,3.8c-7.8-4.2-23.2-12.1-31.4-29.4c-8.2-17.3-21.7-28-36.2-36.3c-14.5-8.4-18.1-1.5-20.8-20.1
		C56.2,185,44.9,174.9,55.2,171.6z"/>
	<path class="st3" d="M2.4,182c3.6,1.7,6.7,3.7,8.1,6.2c4,7.1,2.2,2.1,12.5,4c10.3,1.9,20.9,2.5,20.4,0.5c0,0-11.5-8.3-16.5-14.2
		c-5-5.9,2.3,6-8.5,0.9c-10.8-5-11.9-13-1.1-13c10.8,0.1,9.5-5.1,7-21.4c-2.4-16.3,3.6-25.4,5.9-30.2c2.4-4.9-0.7-11.4,3.4-11.3
		s7.6-7.7,5.2-12.2C36.8,87.5,26,89,12.8,93.5C0.9,121-2.9,151.8,2.4,182z"/>
	<path class="st2" d="M207.2,119.3c0,0-8.8,16.5-28.3,10.2c-19.6-6.2-20.6-4.8-24.5-11.2c-3.9-6.5-5.7-19.1-5.3-23.3
		c0.4-4.3-0.5-16.9,5.8-20.3c6.3-3.4,26.1-12.7,35.3-9.9c9.2,2.8,23-5.1,29.3-7.6c6.3-2.5,10.3,13.4,23.8,19.3
		c13.5,5.8,23.8-0.2,19.1,17.2c-4.7,17.4-1.2,13.8,4.6,31.4c5.8,17.6,1.8,38.7-2.4,42.8c-4.2,4-5.4-3.4-20.1-13.1
		c-14.7-9.7-14.3-11.7-20-24C218.9,118.5,209.4,116.3,207.2,119.3z"/>
	<path class="st2" d="M249.9,65c5.7,2.8,1.4-2.3-0.2-11.5c-1.5-9.2-9.1-6.3-17.5-12.8c-8.4-6.5,9.9-0.6,17.9-5.1
		c0.9-0.5,1.4-1.1,1.7-1.8c-9.3-7.4-19.3-13.6-29.9-18.6c2.9,4.4,4.5,7.4-1.7,4.7c-5.8-2.6-8.6-6.1-11-10
		c-14.7-5.5-30.1-8.7-45.8-9.6c0.6,2.4,0.2,4.9-2.1,6.7c-7.3,5.9-9.8,10.7-9.2,3.6c0.3-4.1,2.8-7.4,2.8-10.5C146,0,137,0.8,128,2.4
		c0.9,2.2,2.7,3.9,6.4,3.7c9.9-0.5,15.4,3.6,9.2,9.6c-6.2,6-13.1-4.8-20.8-4.1c-7.7,0.7-18.2,9.5-8.4,13.4c9.8,3.8,18.2-2.7,23.3,5
		c5.2,7.7-4.3,16.5-6.4,17.7c-2.1,1.1,2.9,9.9,2.9,9.9s15.1,6.8,16.6-2.5c1.5-9.2-7.8-20.9,16.8-20.5c24.6,0.4,30.3-9.1,39.8-0.8
		c9.5,8.2,10.2,13.6,20.9,19.5C228.4,53.4,244.3,62.2,249.9,65z"/>
	<path class="st3" d="M28.3,65.9c3.4-0.3,7.3-1.3,10-3.8c5.8-5.5,7.2,1.5,10.5,3.8c3.3,2.3,5.8-3.8,3.9-9.7
		c-1.8-5.9-2.2-7.2,0.2-13.5c0.8-2,0.8-3.4,0.4-4.5C43.7,46.5,35.4,55.8,28.3,65.9z"/>
	<path class="st2" d="M235.1,287.9c-4.9-0.7-11.4-1.2-19-1.1c-18.5,0.1-9.5-10.8-16.8-12.3c-7.2-1.5-18.5,6.5-13.3,9.8
		c5.2,3.3,6.5,3.9,11.4,13.2c1.6,3,3.5,4.5,5.4,5.1c8.6-2.8,17.2-6.4,25.4-10.8C230.6,290.5,232.9,289.2,235.1,287.9z"/>
	<path class="st2" d="M304.2,197.4c-7,7.9-15.8,25.5-24.3,30.7c-12.9,7.9-15.3,9.4-22.6,25.1c-7.4,15.7,0.4,8.4-3.4,17.2
		c-0.9,2-1.4,3.9-1.8,5.6C277.7,255.5,295.6,227.8,304.2,197.4z"/>
	<path class="st4" d="M291.8,81.9C266.8,35.4,221.6,6.7,172.9,1.1c-0.4,0-0.8-0.1-1.2-0.1c-0.6-0.1-1.3-0.1-1.9-0.2
		c-0.5,0-1-0.1-1.5-0.1c-0.6-0.1-1.2-0.1-1.8-0.1c-0.6,0-1.2-0.1-1.9-0.1c-19-1.2-38.3,1.1-57.1,7.1
		c58.9,33.1,144.7,102.8,174.2,237.1C314.5,198.1,320.4,135.4,291.8,81.9z"/>
</g>
</svg>
