<?xml version="1.0" encoding="utf-8"?>
<!-- Generator: Adobe Illustrator 22.0.0, SVG Export Plug-In . SVG Version: 6.00 Build 0)  -->
<svg version="1.1" id="Layer_1" xmlns="http://www.w3.org/2000/svg" xmlns:xlink="http://www.w3.org/1999/xlink" x="0px" y="0px"
	 viewBox="0 0 300.4 125.2" style="enable-background:new 0 0 300.4 125.2;" xml:space="preserve">
<style type="text/css">
	.st0{opacity:0.2;}
	.st1{fill:#331E53;}
	.st2{opacity:0.2;fill:#000100;}
	.st3{opacity:0.1;fill:#FFFFFF;}
	.st4{opacity:0.7;}
	.st5{fill:#A19842;}
	.st6{opacity:0.6;}
</style>
<g class="st0">
	<g>
		<path class="st1" d="M198.1,72.4c-10.5,27.5-41.4,41.3-68.9,30.8c-27.5-10.5-41.3-41.4-30.8-68.9C108.9,6.8,139.8-7,167.3,3.5
			C194.8,14.1,208.6,44.9,198.1,72.4z"/>
		<path class="st2" d="M194.5,74.4c-9.8,25.7-38.7,38.6-64.4,28.8c-25.7-9.8-38.6-38.7-28.8-64.4C111.2,13,140,0.1,165.7,9.9
			C191.5,19.8,204.4,48.6,194.5,74.4z"/>
		<path class="st2" d="M182.9,80.6c-7.9,20.8-31.2,31.2-52,23.2c-20.8-7.9-31.2-31.2-23.2-52c7.9-20.8,31.2-31.2,52-23.2
			C180.4,36.6,190.8,59.8,182.9,80.6z"/>
		<path class="st2" d="M174.6,84c-6.6,17.4-26.2,26.1-43.6,19.5c-17.4-6.7-26.1-26.2-19.5-43.6c6.7-17.4,26.2-26.1,43.6-19.5
			C172.5,47.1,181.2,66.6,174.6,84z"/>
		<path class="st3" d="M158.5,40.3c-1.1,2.9-4.4,4.4-7.3,3.3c-2.9-1.1-4.4-4.4-3.3-7.3c1.1-2.9,4.4-4.4,7.3-3.3
			C158.1,34.1,159.6,37.3,158.5,40.3z"/>
		<path class="st3" d="M145.2,70c-1.1,2.9-4.4,4.4-7.3,3.3c-2.9-1.1-4.4-4.4-3.3-7.3c1.1-2.9,4.4-4.4,7.3-3.3
			C144.8,63.9,146.3,67.1,145.2,70z"/>
		<path class="st3" d="M121.1,60.8c-0.7,1.9-2.8,2.8-4.6,2.1c-1.8-0.7-2.8-2.8-2.1-4.6c0.7-1.9,2.8-2.8,4.6-2.1
			C120.9,56.9,121.8,59,121.1,60.8z"/>
		<path class="st3" d="M138.6,93.6c-0.7,1.9-2.8,2.8-4.6,2.1c-1.9-0.7-2.8-2.8-2.1-4.6c0.7-1.9,2.8-2.8,4.6-2.1
			C138.4,89.7,139.3,91.8,138.6,93.6z"/>
		<path class="st3" d="M175.4,73.9c-0.7,1.9-2.8,2.8-4.6,2.1c-1.9-0.7-2.8-2.8-2.1-4.6c0.7-1.9,2.8-2.8,4.6-2.1
			C175.2,70,176.1,72.1,175.4,73.9z"/>
		<path class="st3" d="M153,17.9c-1.1,2.9-4.4,4.4-7.3,3.3c-2.9-1.1-4.4-4.4-3.3-7.3c1.1-2.9,4.4-4.4,7.3-3.3
			C152.7,11.7,154.1,14.9,153,17.9z"/>
		<path class="st3" d="M120.7,31.9c-0.7,1.7-2.6,2.6-4.3,1.9c-1.7-0.7-2.6-2.6-1.9-4.3c0.7-1.7,2.6-2.6,4.3-1.9
			C120.5,28.2,121.4,30.2,120.7,31.9z"/>
		<path class="st3" d="M161.3,93.7c-0.7,1.7-2.6,2.6-4.3,1.9c-1.7-0.7-2.6-2.6-1.9-4.3c0.7-1.7,2.6-2.6,4.3-1.9
			C161.1,90.1,161.9,92,161.3,93.7z"/>
		<path class="st3" d="M176.6,35.1c-0.7,1.7-2.6,2.6-4.3,1.9c-1.7-0.7-2.6-2.6-1.9-4.3c0.7-1.7,2.6-2.6,4.3-1.9
			C176.4,31.5,177.3,33.4,176.6,35.1z"/>
		<path class="st3" d="M118.1,81.9c-0.7,1.7-2.6,2.6-4.3,1.9c-1.7-0.7-2.6-2.6-1.9-4.3c0.7-1.7,2.6-2.6,4.3-1.9
			C117.9,78.3,118.7,80.2,118.1,81.9z"/>
	</g>
	<g>
		<g class="st4">
			<path class="st5" d="M201.5,58.3c0,1.8-0.1,3.5-0.6,5.1c25.9,12.5,42.3,23.8,40.4,28.7c-2.8,7.4-45-1.9-94.2-20.7
				c-49.2-18.8-86.8-40-84-47.4c1.6-4.3,16.7-3,38.7,2.6c0.5-1,0.9-2.1,1.8-2.9c0.6-0.6,1.3-1.1,1.9-1.6C47.9,3.8,4.7-3.3,1,6.3
				c-4.7,12.4,58.2,47.9,140.6,79.4c82.4,31.5,153,47,157.7,34.6C303.3,110.2,261.8,84.6,201.5,58.3z"/>
			<path class="st5" d="M201.5,57.7c0,0.2,0.1,0.3,0.1,0.5c0,0.2,0,0.5,0,0.7c59.7,26,100.9,51.3,97.1,61.1
				c-4.6,12.1-75-3.5-156.8-34.8C60,53.9-2.8,18.6,1.8,6.6c3.6-9.3,46.3-2.1,103.3,16c0.3-0.3,0.6-0.5,0.9-0.8c0,0,0,0,0,0
				C47.3,2.9,4.1-4,0.3,6C-4.6,18.8,57.4,54,141.5,86.2c84.1,32.1,153.8,47.3,158.7,34.4C304.2,110.1,263,84.4,201.5,57.7z"/>
			<path class="st5" d="M201,62.9c-0.1,0.3-0.2,0.5-0.2,0.8c0,0.1,0,0.2,0,0.3c25.2,12.2,41.5,23.2,39.7,27.9
				c-2.7,7-45.4-2.6-93.2-20.9c-47.9-18.3-86-39.7-83.4-46.7c1.5-4,16.3-2.6,37.6,2.9c0.2-0.3,0.4-0.7,0.5-1
				c-22.6-5.8-37.9-7-39.7-2.4c-3,7.8,34.2,28.9,84.5,48.2c50.4,19.3,92.2,28.3,95.1,20.5C244,87.2,227.6,75.7,201,62.9z"/>
		</g>
		<g class="st6">
			<path class="st5" d="M201.5,59.8c-0.1,1.4-0.3,2.7-0.7,3.9c0,0.2,0,0.4-0.1,0.6c14.8,7.9,23.6,14.6,22.4,17.8
				c-2.2,5.8-35.3-1.5-73.9-16.2c-38.6-14.7-68.1-31.4-65.8-37.2c0.9-2.5,7.5-2.6,17.7-0.7c0-0.1,0.1-0.2,0.2-0.4
				c0.8-1.2,1.1-2.7,2.3-3.8c0.2-0.2,0.4-0.3,0.5-0.5C65.3,11.8,37.3,7.9,34.7,14.7C31,24.4,80.4,52.3,145,77
				c64.6,24.7,120,36.8,123.7,27.1C271.5,96.7,243.5,78.8,201.5,59.8z"/>
			<path class="st5" d="M201.5,59.2c0,0.4,0,0.8-0.1,1.2c41.1,18.7,69.1,36.5,66.4,43.5c-3.5,9.3-59.7-3.3-122.7-27.3
				C82.2,52.4,31.9,24.2,35.5,15c2.5-6.4,30.3-2.4,68.2,8.8c0.3-0.3,0.7-0.6,1-0.9c-39.7-11.8-68-15.7-70.7-8.5
				c-3.9,10.1,44.8,37.8,110.8,63.1c66,25.2,120.8,37.1,124.6,27C272.4,96.7,244.5,78.6,201.5,59.2z"/>
			<path class="st5" d="M200.8,63.7L200.8,63.7c0,0.4-0.1,0.7-0.3,1c14.8,7.9,22.9,14.3,21.8,17.1c-1.8,4.8-31.6-0.6-72.9-16.4
				C108.1,49.6,82.3,33.8,84.2,29c0.8-2.1,6.9-2.3,16.8-0.5c0-0.3,0.1-0.6,0.3-0.9c0,0,0.1-0.1,0.1-0.1c-10.5-1.9-17.6-1.9-18.7,0.9
				c-2.6,6.9,31.7,24.7,66.4,38c34.7,13.3,72.2,22.9,74.8,16C225.3,78.6,215.6,71.5,200.8,63.7z"/>
		</g>
	</g>
</g>
</svg>
