<?xml version="1.0" encoding="utf-8"?>
<!-- Generator: Adobe Illustrator 22.0.0, SVG Export Plug-In . SVG Version: 6.00 Build 0)  -->
<svg version="1.1" id="Layer_1" xmlns="http://www.w3.org/2000/svg" xmlns:xlink="http://www.w3.org/1999/xlink" x="0px" y="0px"
	 viewBox="0 0 147.4 147.4" style="enable-background:new 0 0 147.4 147.4;" xml:space="preserve">
<style type="text/css">
	.st0{opacity:0.2;}
	.st1{fill:#417B99;}
	.st2{fill:#285F7C;stroke:#194B5F;stroke-miterlimit:10;}
</style>
<g class="st0">
	<circle class="st1" cx="73.7" cy="73.7" r="73.7"/>
	<circle class="st2" cx="34.9" cy="49.5" r="12"/>
	<circle class="st2" cx="89.3" cy="23.9" r="12"/>
	<circle class="st2" cx="68" cy="41.7" r="4.2"/>
	<path class="st2" d="M105.8,68.8c-1,0-1.9,0.2-2.7,0.5c-1.2-2.3-3.6-3.9-6.4-3.9c-4,0-7.2,3.2-7.2,7.2c0,2,0.8,3.8,2.2,5.2
		c-0.2,0.6-0.3,1.3-0.3,2c0,4,3.2,7.2,7.2,7.2c2.8,0,5.2-1.6,6.4-3.9c0.3,0,0.5,0,0.8,0c4,0,7.2-3.2,7.2-7.2S109.8,68.8,105.8,68.8z
		"/>
	<circle class="st2" cx="62" cy="109.3" r="22.3"/>
</g>
</svg>
