<?xml version="1.0" encoding="utf-8"?>
<!-- Generator: Adobe Illustrator 22.0.0, SVG Export Plug-In . SVG Version: 6.00 Build 0)  -->
<svg version="1.1" id="Layer_1" xmlns="http://www.w3.org/2000/svg" xmlns:xlink="http://www.w3.org/1999/xlink" x="0px" y="0px"
	 viewBox="0 0 150 115.3" style="enable-background:new 0 0 150 115.3;" xml:space="preserve">
<style type="text/css">
	.st0{fill:#C5A841;}
	.st1{fill:#AE8E3D;}
	.st2{fill:#90863E;}
	.st3{fill:#81773A;}
	.st4{fill:#EEEAE8;}
	.st5{fill:#FAFBFB;}
	.st6{fill:#15887A;}
	.st7{fill:#0C4E43;}
	.st8{opacity:0.35;fill:#8A2425;}
	.st9{fill:#556E79;}
	.st10{fill:#F8A993;}
	.st11{fill:#F5F3F2;}
	.st12{fill:#E5E1E0;}
</style>
<g>
	<g>
		<path class="st0" d="M9.1,84.6c0.2-0.4,0.4-0.9,0.6-1.3c-0.6-0.6-1.2-1.1-1.9-1.6c-0.2,0.4-0.3,0.9-0.4,1.3
			C8,83.5,8.5,84,9.1,84.6z"/>
		<path class="st0" d="M7.1,84.2C7,84.8,7,85.4,6.9,86c0.4,0.3,0.8,0.6,1.2,0.9c0.1-0.4,0.3-0.8,0.4-1.2C8.1,85.2,7.6,84.7,7.1,84.2
			z"/>
		<path class="st0" d="M12,80.1c0.2-0.3,0.5-0.6,0.8-0.9c-0.5-0.7-1.1-1.5-1.6-2.2c-0.4,0.4-0.8,0.8-1.1,1.2
			C10.7,78.8,11.3,79.4,12,80.1z"/>
		<path class="st0" d="M9.3,79c-0.4,0.5-0.7,1.1-1,1.6c0.7,0.5,1.4,1.1,2,1.7c0.3-0.5,0.6-1,1-1.4C10.6,80.3,10,79.7,9.3,79z"/>
		<path class="st0" d="M20.1,73.8c-1.2-0.1-2.4,0.1-3.7,0.4c0.2,0.4,0.5,0.9,0.7,1.3C18.1,74.9,19.1,74.3,20.1,73.8z"/>
		<path class="st0" d="M13,75.6c-0.3,0.2-0.7,0.4-1,0.7c0.5,0.7,1,1.4,1.5,2.1c0.2-0.2,0.5-0.5,0.8-0.7C13.8,77,13.4,76.3,13,75.6z"
			/>
		<path class="st0" d="M15.1,77c0.4-0.3,0.7-0.6,1.1-0.9c-0.3-0.5-0.6-1.1-0.9-1.6c-0.5,0.2-1,0.4-1.4,0.6
			C14.3,75.7,14.7,76.4,15.1,77z"/>
		<path class="st0" d="M7,87.3c0.1,0.9,0.2,1.8,0.5,2.7c0.1-0.7,0.2-1.4,0.4-2.1C7.6,87.8,7.3,87.5,7,87.3z"/>
		<path class="st1" d="M10.2,93.5c-0.1-1.1,0-2.2,0.3-3.3c-0.8-0.8-1.7-1.5-2.6-2.2c-0.2,0.7-0.3,1.4-0.4,2.1c0,0.1,0.1,0.2,0.1,0.3
			c0.2,0.6,0.5,1.2,0.8,1.8C9,92.6,9.6,93,10.2,93.5z"/>
		<path class="st1" d="M9.8,83.3c-0.2,0.4-0.4,0.8-0.6,1.3c0.2,0.2,0.4,0.4,0.6,0.6c0.5,0.5-0.2,1.3-0.7,0.8
			c-0.1-0.1-0.2-0.2-0.3-0.3c-0.2,0.4-0.3,0.8-0.4,1.2c0.9,0.7,1.8,1.4,2.6,2.1c0.4-1.1,0.9-2.1,1.5-3.1C11.5,85,10.6,84.1,9.8,83.3
			z"/>
		<path class="st1" d="M25.3,75.3c-0.8-0.4-1.7-0.8-2.5-1c-0.1,1.7-0.1,3.5,0,5.2c0.6-0.1,1.2-0.2,1.8-0.3
			C24.7,77.9,25,76.6,25.3,75.3z"/>
		<path class="st1" d="M25.7,79.1C26.5,79,27.3,79,28,79c0.1-0.5,0.3-1,0.4-1.4c-0.6-0.7-1.4-1.2-2.1-1.7C26,76.9,25.8,78,25.7,79.1
			z"/>
		<path class="st1" d="M16.2,76.1c-0.4,0.3-0.8,0.6-1.1,0.9c0.4,0.7,0.9,1.4,1.3,2.1c0.4,0.6-0.5,1.2-0.9,0.6
			c-0.4-0.7-0.8-1.3-1.2-2c-0.3,0.2-0.5,0.5-0.8,0.7c0.8,1.2,1.7,2.3,2.5,3.5c0.2-0.2,0.4-0.3,0.7-0.4c0.5-0.2,1.1-0.4,1.6-0.7
			C17.7,79.2,17,77.6,16.2,76.1z"/>
		<path class="st1" d="M20.1,73.8c-1,0.5-2,1-3,1.7c0.8,1.6,1.5,3.3,2.2,5c0.8-0.3,1.6-0.5,2.4-0.7c-0.1-1.9-0.1-3.8,0-5.7
			C21.2,73.9,20.7,73.8,20.1,73.8z"/>
		<path class="st1" d="M12.8,79.2c-0.3,0.3-0.5,0.6-0.8,0.9c0.1,0.1,0.1,0.1,0.2,0.2c0.5,0.5-0.2,1.3-0.7,0.8
			c-0.1-0.1-0.1-0.1-0.2-0.2c-0.3,0.5-0.7,0.9-1,1.4c0.9,0.8,1.8,1.7,2.6,2.6c0.7-0.9,1.4-1.7,2.3-2.4
			C14.4,81.4,13.6,80.3,12.8,79.2z"/>
		<path class="st2" d="M15.5,98.3c0.8,0.3,1.7,0.5,2.6,0.6c-2.4-3-4.8-6.1-7.6-8.7c-0.2,1.1-0.3,2.2-0.3,3.3
			C12.1,94.9,13.8,96.5,15.5,98.3z"/>
		<path class="st2" d="M23.5,98c-2.1-4.5-4.3-9-6.9-13.3c-0.4-0.7-0.9-1.4-1.4-2.1c-0.8,0.7-1.6,1.5-2.3,2.4c3.6,4.1,6.5,9,9.5,13.5
			c0,0,0,0.1,0,0.1c0.3-0.1,0.7-0.2,1-0.3c0.1,0,0.1,0,0.2-0.1C23.6,98.2,23.5,98.1,23.5,98z"/>
		<path class="st2" d="M21.7,79.7c-0.8,0.2-1.6,0.4-2.4,0.7c0.3,0.7,0.5,1.5,0.8,2.2c0.2,0.7-0.8,1-1,0.4c-0.2-0.7-0.5-1.5-0.8-2.2
			c-0.5,0.2-1.1,0.4-1.6,0.7c-0.2,0.1-0.4,0.3-0.7,0.4c0.9,1.3,1.7,2.5,2.5,3.9c2.2,3.9,4.1,7.8,6,11.8c0,0.1,0.1,0.2,0.1,0.2
			c0,0,0.1,0,0.1,0c-1.4-3.6-1.9-8-2.4-11.7C22,84,21.8,81.9,21.7,79.7z"/>
		<path class="st2" d="M25.6,80.1c0,0.7-1.1,0.8-1.1,0.1c0-0.3,0.1-0.7,0.1-1c-0.6,0.1-1.2,0.2-1.8,0.3c0.1,2.2,0.2,4.4,0.5,6.6
			c0.5,3.5,0.9,7.8,2.3,11.3c0.2-0.1,0.4-0.2,0.5-0.3c-0.6-4,0-8.2,0.7-12.1c0.3-2,0.7-3.9,1.2-5.9c-0.8,0-1.6,0-2.4,0.1
			C25.6,79.4,25.6,79.8,25.6,80.1z"/>
		<path class="st2" d="M30.2,83.4c-0.2,0.7-1.2,0.5-1.1-0.2c0.2-1.1,0.7-2,1.3-2.8c-0.2-0.4-0.4-0.8-0.7-1.1c-0.2,0-0.4-0.1-0.7-0.1
			c-0.5,1.7-0.8,3.4-1.1,5.1c-0.6,3.9-1.3,8.1-0.9,12.1c0.5-0.4,0.9-0.8,1.3-1.2c0.5-3.9,1.6-7.7,3.4-11.1c-0.1-0.6-0.2-1.1-0.4-1.7
			c-0.1-0.3-0.2-0.6-0.4-0.9C30.7,82,30.4,82.7,30.2,83.4z"/>
		<path class="st2" d="M12.3,85.9c-0.6,1-1.1,2-1.5,3.1c3.2,2.9,6,6.4,8.7,9.9c0.6,0,1.2,0,1.8-0.1C18.5,94.5,15.7,89.8,12.3,85.9z"
			/>
	</g>
	<g>
		<path class="st3" d="M61.2,94H24.4c-10.1,3.8-18.6,10.5-21.2,21.4H38L61.2,94z"/>
		<path class="st2" d="M24.4,94h-3.1C9.6,94,0,103.5,0,115.3h3.2C5.8,104.4,14.3,97.7,24.4,94z"/>
		<polygon class="st4" points="61.2,94 38,115.3 87,115.3 90.1,94 		"/>
		<path class="st3" d="M150,115.1H87l2.4-16.5l0.7-4.6h38.5c5.9,0,11.2,2.2,15,6C147.6,103.9,150,109.2,150,115.1z"/>
	</g>
	<g>
		<polygon class="st5" points="130.1,77.2 22.1,77.8 22.4,80.9 129.9,80.9 		"/>
		<g>
			<polygon class="st6" points="127.7,80.9 126.9,93.9 126.9,94 126.6,98.7 25.8,98.7 24.5,80.9 			"/>
			<g>
				<path class="st7" d="M31.6,80.9c0,5.9-0.1,11.9-0.6,17.8h-2c0.1-2.9,0.3-5.9,0.5-8.8c0.2-3,0.3-6,0.4-9H31.6z"/>
				<path class="st7" d="M39.7,80.9c-0.2,2.6-0.5,5.2-0.7,7.6c-0.2,3.4-0.3,6.8-0.6,10.1h-1.2c0-3.8,0.2-7.6,0.4-11.4
					c0.1-2.1,0-4.2,0-6.4H39.7z"/>
				<path class="st7" d="M46.3,98.7h-1.9c-0.1-3.3,0-6.7,0-10c0-2.6-0.1-5.2-0.1-7.8h1.7c0.1,3,0,6,0.1,9
					C46.2,92.8,46.4,95.7,46.3,98.7z"/>
				<path class="st7" d="M52.7,98.7h-1.7c-0.2-5.9-0.2-11.9,0-17.8h1.4C52.6,86.8,52.8,92.8,52.7,98.7z"/>
				<path class="st7" d="M59.5,80.9c0,2.9-0.1,5.8-0.1,8.6c0,3,0,6.1-0.1,9.1h-1.6c-0.1-5.9-0.2-11.9,0.2-17.8H59.5z"/>
			</g>
			<g>
				<path class="st7" d="M95.4,80.9c0,5.9-0.1,11.9-0.6,17.8h-2c0.1-2.9,0.3-5.9,0.5-8.8c0.2-3,0.3-6,0.4-9H95.4z"/>
				<path class="st7" d="M103.5,80.9c-0.2,2.6-0.5,5.2-0.7,7.6c-0.2,3.4-0.3,6.8-0.6,10.1h-1.2c0-3.8,0.2-7.6,0.4-11.4
					c0.1-2.1,0-4.2,0-6.4H103.5z"/>
				<path class="st7" d="M110.1,98.7h-1.9c-0.1-3.3,0-6.7,0-10c0-2.6-0.1-5.2-0.1-7.8h1.7c0.1,3,0,6,0.1,9
					C110,92.8,110.2,95.7,110.1,98.7z"/>
				<path class="st7" d="M116.5,98.7h-1.7c-0.2-5.9-0.2-11.9,0-17.8h1.4C116.4,86.8,116.6,92.8,116.5,98.7z"/>
				<path class="st7" d="M123.3,80.9c0,2.9-0.1,5.8-0.1,8.6c0,3,0,6.1-0.1,9.1h-1.6c-0.1-5.9-0.2-11.9,0.2-17.8H123.3z"/>
			</g>
		</g>
		<polygon class="st8" points="127.7,80.9 24.5,80.9 24.6,82.4 127.5,84.1 		"/>
		<polygon class="st4" points="130,44.8 75.1,9.3 21.7,42.2 24.3,77.8 127.9,77.2 		"/>
		<polygon class="st8" points="87.5,85.5 87.4,98.7 109.1,98.7 94.5,85.6 		"/>
		<polygon class="st5" points="75.1,13.7 47.6,30.8 102.1,31.3 		"/>
		<polygon class="st9" points="75.5,17.1 75.5,29.3 96.3,29.4 		"/>
		<polygon class="st9" points="73.5,17.7 53.3,29.1 73.5,29.2 		"/>
		<g>
			<polygon class="st8" points="32.4,75.6 33.2,76.3 53.1,76.3 55,42.7 54.2,41.8 			"/>
			<polygon class="st5" points="30.8,42.1 32.4,75.6 52.3,75.6 54.2,42.1 			"/>
			<polygon class="st9" points="52.6,50 52.9,43.6 32.1,43.6 32.4,50 			"/>
			<polygon class="st9" points="32.5,52 33.5,74 51.2,74 52.5,52 			"/>
		</g>
		<g>
			<polygon class="st8" points="97,74.8 97.8,75.6 117.7,75.6 120.4,41.9 119.6,41.1 			"/>
			<polygon class="st5" points="96.2,40.8 97,75 116.9,75 119.6,40.8 			"/>
			<polygon class="st9" points="117.8,49.2 118.3,42.7 97.5,42.7 97.6,49.2 			"/>
			<polygon class="st9" points="97.7,51.2 98.2,73.2 115.8,73.2 117.6,51.2 			"/>
		</g>
		<polygon class="st8" points="75,9 21.7,42.1 22.4,52.6 84.7,24.1 129.5,52.8 130,44.8 		"/>
		<g>
			<polygon class="st8" points="88.4,85.4 64.2,85.4 62.8,43.6 89.6,43.6 			"/>
			<polygon class="st5" points="87.7,85.4 63.4,85.4 62,43.6 88.9,43.6 			"/>
			<polygon class="st10" points="86,85.4 65.1,85.4 63.9,45.5 87,45.5 			"/>
			<polygon class="st10" points="64.9,46.4 87,47.2 87,45.5 63.9,45.5 65.1,85.4 65.7,85.4 			"/>
			<g>
				<path class="st10" d="M85.5,68.3c0,0.7-0.5,1.2-1.2,1.2c-0.7,0-1.2-0.5-1.2-1.2c0-0.7,0.5-1.2,1.2-1.2
					C84.9,67.1,85.5,67.6,85.5,68.3z"/>
				<g>
					<circle class="st5" cx="83.4" cy="67.5" r="1.2"/>
					<path class="st4" d="M84.6,67.5c0,0.7-0.5,1.2-1.2,1.2c-0.6,0-1-0.4-1.2-0.9c0.1,0,0.2,0,0.3,0c0.7,0,1.2-0.5,1.2-1.2
						c0-0.1,0-0.2,0-0.3C84.3,66.4,84.6,66.9,84.6,67.5z"/>
				</g>
			</g>
		</g>
		<g>
			<rect x="61.9" y="85.4" class="st4" width="28.5" height="4.3"/>
			<rect x="61.9" y="85.4" class="st4" width="28.5" height="4.3"/>
			<rect x="59.4" y="85.4" class="st11" width="28.5" height="4.3"/>
			<rect x="59.4" y="84.7" class="st12" width="31" height="0.8"/>
			<rect x="59.4" y="84.7" class="st5" width="28.5" height="0.8"/>
		</g>
		<g>
			<rect x="59.1" y="90.4" class="st4" width="32.4" height="4.3"/>
			<rect x="59.1" y="90.4" class="st4" width="32.4" height="4.3"/>
			<rect x="56.2" y="90.4" class="st11" width="32.4" height="4.3"/>
			<rect x="56.2" y="89.7" class="st12" width="35.2" height="0.8"/>
			<rect x="56.2" y="89.7" class="st5" width="32.3" height="0.8"/>
		</g>
		<g>
			<rect x="57.1" y="95.4" class="st4" width="36.2" height="4.3"/>
			<rect x="57.1" y="95.4" class="st4" width="36.2" height="4.3"/>
			<rect x="54" y="95.4" class="st11" width="36.2" height="4.3"/>
			<rect x="54" y="94.7" class="st12" width="39.3" height="0.8"/>
			<rect x="54" y="94.7" class="st5" width="36.1" height="0.8"/>
		</g>
		<g>
			<polygon class="st4" points="132,4.1 109.1,1.7 108.2,8.5 130.6,12 			"/>
			<polygon class="st4" points="110.2,8.5 108.7,20.9 125.2,32.1 128.8,11.4 			"/>
			<polygon class="st8" points="128.8,11.4 110.2,8.5 110,9.9 127.9,16.7 			"/>
		</g>
		<g>
			<polygon class="st5" points="79.7,1.3 137.2,40.4 137.8,39.6 79.7,0 71.5,0 12.3,36.6 12.8,37.5 71.5,1.3 			"/>
			<path class="st4" d="M137.3,40.2l-0.1,0.2L79.7,1.2h-8.2L12.8,37.4c0,0,3.6,5.2,5.3,8l57-35.2l56.9,37
				C133.6,44.9,135.4,42.4,137.3,40.2z"/>
		</g>
	</g>
	<g>
		<path class="st8" d="M143.7,100.2c-0.8,2.9-6.4,5.1-13.3,5.1c-7.4,0-13.4-2.6-13.4-5.8c0-0.3,0-0.5,0.1-0.8c0.7-2.2,4.3-4,9-4.7
			c0.2,0,0.5,0,0.7,0l0,0.1h1.7C134.5,94.1,139.8,96.4,143.7,100.2z"/>
		<g>
			<path class="st0" d="M118.9,88.1c0.3-0.2,0.7-0.4,1-0.7c-0.2-0.7-0.4-1.4-0.7-2c-0.3,0.2-0.6,0.5-0.9,0.8
				C118.6,86.8,118.7,87.4,118.9,88.1z"/>
			<path class="st0" d="M117.6,86.9c-0.3,0.4-0.6,0.8-0.9,1.2c0.2,0.4,0.4,0.8,0.5,1.2c0.3-0.2,0.6-0.5,0.9-0.7
				C117.9,88.1,117.8,87.5,117.6,86.9z"/>
			<path class="st0" d="M123,86c0.3-0.1,0.6-0.2,0.9-0.3c-0.1-0.8-0.2-1.6-0.2-2.3c-0.5,0.1-0.9,0.2-1.4,0.4
				C122.6,84.5,122.8,85.3,123,86z"/>
			<path class="st0" d="M121.5,84.1c-0.5,0.2-1,0.5-1.5,0.8c0.3,0.7,0.5,1.4,0.8,2.1c0.4-0.2,0.9-0.4,1.3-0.6
				C121.9,85.6,121.7,84.8,121.5,84.1z"/>
			<path class="st0" d="M131.7,85c-0.9-0.6-1.8-1-2.8-1.3c0,0.4,0,0.8-0.1,1.3C129.8,84.9,130.8,84.9,131.7,85z"/>
			<path class="st0" d="M125.7,83.2c-0.3,0-0.7,0-1,0.1c0.1,0.7,0.1,1.5,0.2,2.2c0.3-0.1,0.6-0.1,0.9-0.2
				C125.7,84.6,125.7,83.9,125.7,83.2z"/>
			<path class="st0" d="M126.7,85.1c0.4-0.1,0.8-0.1,1.2-0.2c0-0.5,0.1-1,0.1-1.6c-0.4-0.1-0.9-0.1-1.3-0.2
				C126.6,83.9,126.6,84.5,126.7,85.1z"/>
			<path class="st0" d="M116.1,89.2c-0.3,0.7-0.6,1.4-0.8,2.2c0.4-0.5,0.8-0.9,1.2-1.3C116.4,89.7,116.3,89.5,116.1,89.2z"/>
			<path class="st1" d="M115.8,95.1c0.4-0.8,1-1.6,1.6-2.3c-0.3-0.9-0.6-1.9-0.9-2.8c-0.4,0.4-0.8,0.9-1.2,1.3
				c0,0.1-0.1,0.2-0.1,0.3c-0.1,0.6-0.2,1.1-0.2,1.7C115.3,93.9,115.6,94.5,115.8,95.1z"/>
			<path class="st1" d="M119.9,87.4c-0.4,0.2-0.7,0.4-1,0.7c0.1,0.2,0.1,0.5,0.2,0.7c0.2,0.6-0.7,0.9-0.9,0.3c0-0.1-0.1-0.3-0.1-0.4
				c-0.3,0.2-0.6,0.5-0.9,0.7c0.4,0.9,0.7,1.8,1,2.7c0.7-0.6,1.6-1.2,2.5-1.6C120.5,89.4,120.2,88.4,119.9,87.4z"/>
			<path class="st1" d="M134.9,88.4c-0.4-0.7-0.9-1.3-1.4-1.9c-0.8,1.2-1.6,2.5-2.3,3.8c0.5,0.2,1,0.4,1.4,0.6
				C133.4,90,134.1,89.2,134.9,88.4z"/>
			<path class="st1" d="M133.5,91.3c0.6,0.3,1.2,0.6,1.8,1c0.3-0.3,0.6-0.6,0.9-0.9c-0.2-0.8-0.5-1.5-0.8-2.2
				C134.7,89.9,134.1,90.6,133.5,91.3z"/>
			<path class="st1" d="M127.9,85c-0.4,0-0.8,0.1-1.2,0.2c0,0.7,0,1.4,0,2.1c0,0.6-0.9,0.7-0.9,0.1c0-0.7,0-1.3,0-2
				c-0.3,0.1-0.6,0.1-0.9,0.2c0.1,1.2,0.2,2.5,0.3,3.7c0.2,0,0.5,0,0.7,0c0.5,0.1,1,0.1,1.5,0.2C127.6,87.9,127.8,86.4,127.9,85z"/>
			<path class="st1" d="M131.7,85c-1-0.1-1.9-0.1-2.9-0.1c-0.1,1.5-0.3,3.1-0.6,4.6c0.7,0.1,1.4,0.3,2.1,0.5
				c0.8-1.4,1.6-2.8,2.5-4.2C132.5,85.6,132.1,85.3,131.7,85z"/>
			<path class="st1" d="M124,85.7c-0.3,0.1-0.6,0.2-0.9,0.3c0,0.1,0,0.2,0.1,0.2c0.2,0.6-0.7,0.9-0.9,0.3c0-0.1,0-0.1-0.1-0.2
				c-0.5,0.2-0.9,0.4-1.3,0.6c0.3,1,0.5,2,0.7,3.1c0.9-0.4,1.8-0.6,2.7-0.8C124.2,88.1,124.1,86.9,124,85.7z"/>
			<path class="st2" d="M117.6,100.9c0.5,0.6,1,1.1,1.6,1.6c-0.4-3.3-0.9-6.6-1.8-9.7c-0.7,0.7-1.2,1.5-1.6,2.3
				C116.6,97,117.1,98.9,117.6,100.9z"/>
			<path class="st2" d="M123.6,104.2c0.4-4.3,0.8-8.5,0.8-12.8c0-0.7,0-1.4-0.1-2.2c-0.9,0.1-1.8,0.4-2.7,0.8
				c0.9,4.6,0.8,9.5,1.1,14.1c0,0,0,0.1,0,0.1c0.3,0.1,0.6,0.2,0.9,0.2c0.1,0,0.1,0,0.2,0C123.6,104.4,123.6,104.3,123.6,104.2z"/>
			<path class="st2" d="M130.3,90.1c-0.7-0.2-1.4-0.4-2.1-0.5c-0.1,0.7-0.3,1.3-0.4,2c-0.1,0.6-1.1,0.4-0.9-0.2
				c0.1-0.6,0.3-1.3,0.4-1.9c-0.5-0.1-1-0.2-1.5-0.2c-0.2,0-0.5,0-0.7,0c0.1,1.3,0.1,2.6,0.1,4c-0.1,3.8-0.4,7.6-0.8,11.3
				c0,0.1,0,0.1-0.1,0.2c0,0,0.1,0,0.1,0c0.5-3.3,2.1-6.7,3.4-9.6C128.6,93.3,129.4,91.7,130.3,90.1z"/>
			<path class="st2" d="M133,92c-0.3,0.5-1.2,0.1-0.8-0.4c0.2-0.2,0.3-0.5,0.5-0.7c-0.5-0.2-1-0.4-1.4-0.6c-0.9,1.7-1.8,3.4-2.5,5.1
				c-1.2,2.8-2.8,6.1-3.3,9.3c0.2,0,0.4,0,0.5,0c1.3-3.2,3.6-6,5.8-8.6c1.1-1.3,2.3-2.6,3.5-3.8c-0.6-0.4-1.2-0.7-1.8-1
				C133.3,91.6,133.2,91.8,133,92z"/>
			<path class="st2" d="M135,96.5c-0.4,0.4-1.1-0.2-0.7-0.6c0.6-0.7,1.4-1.1,2.2-1.5c0-0.4,0-0.8,0-1.1c-0.1-0.1-0.3-0.2-0.5-0.4
				c-1.1,1-2.1,2.1-3.1,3.3c-2.2,2.6-4.6,5.4-6,8.5c0.5-0.1,1-0.2,1.5-0.3c2.1-2.7,4.6-4.9,7.4-6.7c0.2-0.5,0.3-0.9,0.4-1.4
				c0.1-0.3,0.1-0.6,0.1-0.8C135.9,95.7,135.4,96,135,96.5z"/>
			<path class="st2" d="M120.7,90.4c-0.9,0.4-1.7,1-2.5,1.6c1.1,3.6,1.6,7.4,2,11.1c0.4,0.3,0.9,0.5,1.4,0.7
				C121.4,99.5,121.5,94.9,120.7,90.4z"/>
		</g>
	</g>
	<g>
		<path class="st8" d="M45.8,98.7C44.2,95.2,37.2,87,30.7,90c-6.5,3-10.5,8.3-8.9,11.7c1.6,3.4,8.2,3.8,14.7,0.7
			C43,99.5,45.8,98.7,45.8,98.7z"/>
		<g>
			<path class="st0" d="M19.6,91c0.2-0.3,0.5-0.7,0.7-1c-0.4-0.6-0.9-1.1-1.4-1.6c-0.2,0.3-0.4,0.7-0.6,1
				C18.8,89.9,19.2,90.5,19.6,91z"/>
			<path class="st0" d="M18,90.4c-0.2,0.5-0.3,1-0.4,1.5c0.3,0.3,0.6,0.6,0.9,0.9c0.2-0.3,0.4-0.7,0.6-1
				C18.7,91.4,18.3,90.9,18,90.4z"/>
			<path class="st0" d="M22.7,87.7c0.3-0.2,0.5-0.4,0.8-0.6c-0.3-0.7-0.7-1.4-1-2.1c-0.4,0.2-0.8,0.5-1.1,0.8
				C21.8,86.4,22.2,87,22.7,87.7z"/>
			<path class="st0" d="M20.6,86.4c-0.4,0.4-0.8,0.8-1.1,1.2c0.5,0.6,1,1.1,1.4,1.7c0.3-0.4,0.7-0.7,1.1-1
				C21.5,87.7,21.1,87,20.6,86.4z"/>
			<path class="st0" d="M30.5,83.7c-1-0.2-2.1-0.3-3.1-0.3c0.1,0.4,0.3,0.8,0.4,1.2C28.7,84.2,29.6,83.9,30.5,83.7z"/>
			<path class="st0" d="M24.2,84.1c-0.3,0.1-0.6,0.3-0.9,0.4c0.3,0.7,0.6,1.3,1,2c0.2-0.2,0.5-0.3,0.7-0.5
				C24.7,85.4,24.5,84.7,24.2,84.1z"/>
			<path class="st0" d="M25.8,85.6c0.4-0.2,0.7-0.4,1.1-0.6c-0.1-0.5-0.3-1-0.5-1.5c-0.4,0.1-0.9,0.2-1.3,0.3
				C25.4,84.4,25.6,85,25.8,85.6z"/>
			<path class="st0" d="M17.3,93c-0.1,0.8-0.1,1.6,0,2.4c0.2-0.6,0.4-1.1,0.7-1.7C17.8,93.5,17.6,93.2,17.3,93z"/>
			<path class="st1" d="M19.1,98.7c0.1-0.9,0.4-1.8,0.7-2.7c-0.6-0.8-1.2-1.5-1.8-2.3c-0.2,0.5-0.5,1.1-0.7,1.7c0,0.1,0,0.2,0,0.3
				c0.1,0.6,0.2,1.1,0.4,1.7C18.2,97.8,18.7,98.2,19.1,98.7z"/>
			<path class="st1" d="M20.3,90c-0.3,0.3-0.5,0.6-0.7,1c0.1,0.2,0.3,0.4,0.4,0.6c0.4,0.5-0.4,1.1-0.7,0.6c-0.1-0.1-0.2-0.2-0.2-0.3
				c-0.2,0.3-0.4,0.6-0.6,1c0.7,0.7,1.3,1.4,1.9,2.2c0.5-0.9,1.1-1.7,1.7-2.4C21.5,91.7,20.9,90.9,20.3,90z"/>
			<path class="st1" d="M34.7,85.7c-0.6-0.5-1.3-0.9-2-1.3c-0.3,1.5-0.6,2.9-0.8,4.4c0.5,0,1,0,1.6,0C33.8,87.8,34.2,86.8,34.7,85.7
				z"/>
			<path class="st1" d="M34.4,89c0.7,0.1,1.3,0.2,2,0.3c0.2-0.4,0.4-0.8,0.6-1.2c-0.4-0.7-1-1.3-1.5-1.8C35,87.2,34.7,88.1,34.4,89z
				"/>
			<path class="st1" d="M26.9,85c-0.4,0.2-0.7,0.4-1.1,0.6c0.3,0.7,0.5,1.3,0.8,2c0.2,0.6-0.6,0.9-0.9,0.4c-0.2-0.6-0.5-1.2-0.7-1.9
				c-0.3,0.2-0.5,0.3-0.7,0.5c0.5,1.1,1.1,2.2,1.6,3.4c0.2-0.1,0.4-0.2,0.6-0.3c0.5-0.1,1-0.2,1.5-0.3C27.6,87.8,27.3,86.4,26.9,85z
				"/>
			<path class="st1" d="M30.5,83.7c-0.9,0.2-1.9,0.6-2.8,0.9c0.4,1.5,0.8,3,1.1,4.5c0.7-0.1,1.4-0.2,2.2-0.2
				c0.2-1.6,0.5-3.2,0.9-4.8C31.4,83.9,31,83.8,30.5,83.7z"/>
			<path class="st1" d="M23.5,87.1c-0.3,0.2-0.5,0.4-0.8,0.6c0,0.1,0.1,0.1,0.1,0.2c0.4,0.5-0.4,1.1-0.7,0.6c0-0.1-0.1-0.1-0.1-0.2
				c-0.4,0.3-0.7,0.7-1.1,1c0.6,0.8,1.2,1.7,1.8,2.6c0.7-0.7,1.5-1.2,2.3-1.7C24.5,89.2,24,88.1,23.5,87.1z"/>
			<path class="st2" d="M22.8,103.5c0.7,0.4,1.3,0.7,2.1,0.9c-1.5-2.9-3.1-5.9-5-8.5c-0.4,0.9-0.6,1.8-0.7,2.7
				C20.5,100.2,21.7,101.8,22.8,103.5z"/>
			<path class="st2" d="M29.6,104.6c-1.1-4.1-2.2-8.3-3.7-12.3c-0.3-0.7-0.5-1.3-0.8-2c-0.8,0.5-1.6,1-2.3,1.7
				c2.4,4,4.1,8.6,5.9,12.9c0,0,0,0.1,0,0.1c0.3,0,0.6,0,0.9-0.1c0.1,0,0.1,0,0.2,0C29.6,104.7,29.6,104.7,29.6,104.6z"/>
			<path class="st2" d="M31,88.9c-0.7,0-1.4,0.1-2.2,0.2c0.1,0.7,0.2,1.3,0.3,2c0.1,0.6-0.9,0.7-0.9,0.1c-0.1-0.7-0.2-1.3-0.3-2
				c-0.5,0.1-1,0.2-1.5,0.3c-0.2,0.1-0.4,0.2-0.6,0.3c0.5,1.2,1,2.4,1.5,3.7c1.2,3.6,2.3,7.2,3.2,10.9c0,0.1,0,0.1,0,0.2
				c0,0,0.1,0,0.1,0c-0.6-3.3-0.4-7-0.2-10.2C30.5,92.6,30.7,90.7,31,88.9z"/>
			<path class="st2" d="M34.2,89.9c-0.1,0.6-1.1,0.5-0.9-0.1c0.1-0.3,0.2-0.5,0.2-0.8c-0.5,0-1,0-1.6,0c-0.3,1.9-0.5,3.8-0.6,5.6
				c-0.1,3.1-0.5,6.7,0.1,9.8c0.2-0.1,0.3-0.1,0.5-0.2c0.2-3.4,1.3-6.9,2.5-10.1c0.6-1.6,1.2-3.2,2-4.8c-0.7-0.2-1.3-0.3-2-0.3
				C34.3,89.3,34.2,89.6,34.2,89.9z"/>
			<path class="st2" d="M37.5,93.3c-0.2,0.6-1.1,0.2-0.9-0.4c0.4-0.8,0.9-1.5,1.6-2.2c-0.1-0.4-0.3-0.7-0.4-1.1
				c-0.2-0.1-0.4-0.1-0.6-0.2c-0.7,1.3-1.2,2.7-1.7,4.1c-1.1,3.2-2.4,6.6-2.6,10.1c0.5-0.2,0.9-0.5,1.3-0.8c1-3.2,2.6-6.2,4.6-8.8
				c0-0.5,0-1-0.1-1.5c0-0.3-0.1-0.6-0.2-0.8C38.1,92.3,37.8,92.8,37.5,93.3z"/>
			<path class="st2" d="M22,92.6c-0.7,0.7-1.3,1.5-1.7,2.4c2.3,3,4,6.4,5.8,9.7c0.5,0.1,1,0.2,1.6,0.2C25.9,100.9,24.3,96.5,22,92.6
				z"/>
		</g>
	</g>
</g>
</svg>
