<?xml version="1.0" encoding="utf-8"?>
<!-- Generator: Adobe Illustrator 22.0.0, SVG Export Plug-In . SVG Version: 6.00 Build 0)  -->
<svg version="1.1" id="Layer_1" xmlns="http://www.w3.org/2000/svg" xmlns:xlink="http://www.w3.org/1999/xlink" x="0px" y="0px"
	 viewBox="0 0 104.6 150" style="enable-background:new 0 0 104.6 150;" xml:space="preserve">
<style type="text/css">
	.st0{fill:#AFD26E;}
	.st1{fill:#F4C950;}
	.st2{opacity:0.15;fill:#4C4D4F;}
	.st3{fill:#6F7575;}
	.st4{clip-path:url(#SVGID_2_);fill:#6F7575;}
	.st5{clip-path:url(#SVGID_2_);}
	.st6{fill:#525757;}
	.st7{fill:#5E6162;}
	.st8{fill:#E1E6E2;}
	.st9{fill:#836750;}
	.st10{fill:#A3896F;}
	.st11{fill:#DEB046;}
	.st12{fill:#5D9D9B;}
	.st13{fill:#5B6A89;}
	.st14{fill:#C2A990;}
</style>
<g>
	<path class="st0" d="M100.6,148.2c2.2-0.5,3.9-2.5,4-4.7c0-0.4,0-0.8-0.2-1.1c-0.3-0.8-1.3-1.1-2.1-1.1c-0.8,0-1.6,0.4-2.3,0.8
		c1.8-2.3,3.1-5.4,1.9-8.1c-0.3-0.7-0.9-1.4-1.7-1.4c-0.8,0-1.4,0.7-1.9,1.4c-1.1,1.7-2.1,3.6-2.9,5.5c-0.3-2-0.9-4.2-2.7-5.2
		c-0.3-0.2-0.5-0.3-0.8-0.3c-0.3,0-0.5,0.2-0.7,0.4c-1.5,1.4-1.4,3.8-1.1,5.9c-0.5-1.4-2.3-1.9-3.6-1.3c-1.3,0.6-2.1,2-2.4,3.5
		c-0.2,1.1-0.2,2.4,0.3,3.4c0.5,1,1.7,2.3,2.9,2.2"/>
	<polygon class="st1" points="14.2,24.4 50.3,3.3 86.4,24.4 86.4,149.1 14.2,149.1 	"/>
	<polygon class="st2" points="14.2,24.9 14.2,28.4 50.3,8.3 86.4,27.3 86.4,24.4 50.3,5.8 	"/>
	<polygon class="st3" points="12.2,27.3 50.3,5.8 88.2,26.2 89.9,21.9 50.2,0 10.1,23.9 	"/>
	<g>
		<defs>
			<polygon id="SVGID_1_" points="14,90.8 86.2,90.8 98.2,107.3 2.4,107.3 			"/>
		</defs>
		<clipPath id="SVGID_2_">
			<use xlink:href="#SVGID_1_"  style="overflow:visible;"/>
		</clipPath>
		<polygon class="st4" points="14,90.8 86.2,90.8 98.2,107.3 2.4,107.3 		"/>
		<g class="st5">
			<g>
				<g>
					<g>
						<path class="st3" d="M7.6,120.6c0,0,1.3,5.2,5.4,5.3c4.1,0.1,5.7-3.3,6.1-5.3l-4.5-2.4L7.6,120.6z"/>
					</g>
					<g>
						<path class="st6" d="M13.2,126.2c0,0-0.1,0-0.1,0c-4.3-0.1-5.7-5.5-5.7-5.5l-0.1-0.2l7.3-2.5l4.8,2.6l0,0.2
							C18.9,123.4,17,126.2,13.2,126.2z M8,120.8c0.3,1,1.7,4.8,5.1,4.9c0,0,0.1,0,0.1,0c4.2,0,5.4-3.8,5.7-4.9l-4.3-2.3L8,120.8z"
							/>
					</g>
				</g>
				<g>
					<g>
						<path class="st3" d="M19.2,120.6c0,0,1.3,5.2,5.4,5.3c4.1,0.1,5.7-3.3,6.1-5.3l-4.5-2.4L19.2,120.6z"/>
					</g>
					<g>
						<path class="st6" d="M24.8,126.2c0,0-0.1,0-0.1,0c-4.3-0.1-5.7-5.5-5.7-5.5l-0.1-0.2l7.3-2.5l4.8,2.6l0,0.2
							C30.4,123.4,28.5,126.2,24.8,126.2z M19.5,120.8c0.3,1,1.7,4.8,5.1,4.9c0,0,0.1,0,0.1,0c4.2,0,5.4-3.8,5.7-4.9l-4.3-2.3
							L19.5,120.8z"/>
					</g>
				</g>
				<g>
					<g>
						<path class="st3" d="M30.7,120.6c0,0,1.3,5.2,5.4,5.3c4.1,0.1,5.7-3.3,6.1-5.3l-4.5-2.4L30.7,120.6z"/>
					</g>
					<g>
						<path class="st6" d="M36.3,126.2c0,0-0.1,0-0.1,0c-4.3-0.1-5.7-5.5-5.7-5.5l-0.1-0.2l7.3-2.5l4.8,2.6l0,0.2
							C41.9,123.4,40,126.2,36.3,126.2z M31,120.8c0.3,1,1.7,4.8,5.1,4.9c0,0,0.1,0,0.1,0c4.2,0,5.4-3.8,5.7-4.9l-4.3-2.3L31,120.8z
							"/>
					</g>
				</g>
				<g>
					<g>
						<path class="st3" d="M42.2,120.6c0,0,1.3,5.2,5.4,5.3c4.1,0.1,5.7-3.3,6.1-5.3l-4.5-2.4L42.2,120.6z"/>
					</g>
					<g>
						<path class="st6" d="M47.8,126.2c0,0-0.1,0-0.1,0c-4.3-0.1-5.7-5.5-5.7-5.5l-0.1-0.2l7.3-2.5l4.8,2.6l0,0.2
							C53.5,123.4,51.6,126.2,47.8,126.2z M42.5,120.8c0.3,1,1.7,4.8,5.1,4.9c0,0,0.1,0,0.1,0c4.2,0,5.4-3.8,5.7-4.9l-4.3-2.3
							L42.5,120.8z"/>
					</g>
				</g>
				<g>
					<g>
						<path class="st3" d="M53.8,120.6c0,0,1.3,5.2,5.4,5.3c4.1,0.1,5.7-3.3,6.1-5.3l-4.5-2.4L53.8,120.6z"/>
					</g>
					<g>
						<path class="st6" d="M59.3,126.2c0,0-0.1,0-0.1,0c-4.3-0.1-5.7-5.5-5.7-5.5l-0.1-0.2l7.3-2.5l4.8,2.6l0,0.2
							C65,123.4,63.1,126.2,59.3,126.2z M54.1,120.8c0.3,1,1.7,4.8,5.1,4.9c0,0,0.1,0,0.1,0c4.2,0,5.4-3.8,5.7-4.9l-4.3-2.3
							L54.1,120.8z"/>
					</g>
				</g>
				<g>
					<g>
						<path class="st3" d="M65.3,120.6c0,0,1.3,5.2,5.4,5.3c4.1,0.1,5.7-3.3,6.1-5.3l-4.5-2.4L65.3,120.6z"/>
					</g>
					<g>
						<path class="st6" d="M70.9,126.2c0,0-0.1,0-0.1,0c-4.3-0.1-5.7-5.5-5.7-5.5l-0.1-0.2l7.3-2.5l4.8,2.6l0,0.2
							C76.5,123.4,74.6,126.2,70.9,126.2z M65.6,120.8c0.3,1,1.7,4.8,5.1,4.9c0,0,0.1,0,0.1,0c4.2,0,5.4-3.8,5.7-4.9l-4.3-2.3
							L65.6,120.8z"/>
					</g>
				</g>
				<g>
					<g>
						<path class="st3" d="M76.8,120.6c0,0,1.3,5.2,5.4,5.3c4.1,0.1,5.7-3.3,6.1-5.3l-4.5-2.4L76.8,120.6z"/>
					</g>
					<g>
						<path class="st6" d="M82.4,126.2c0,0-0.1,0-0.1,0c-4.3-0.1-5.7-5.5-5.7-5.5l-0.1-0.2l7.3-2.5l4.8,2.6l0,0.2
							C88.1,123.4,86.1,126.2,82.4,126.2z M77.1,120.8c0.3,1,1.7,4.8,5.1,4.9c4.3,0.1,5.5-3.7,5.8-4.9l-4.3-2.3L77.1,120.8z"/>
					</g>
				</g>
				<g>
					<g>
						<path class="st3" d="M88.4,120.6c0,0,1.3,5.2,5.4,5.3c4.1,0.1,5.7-3.3,6.1-5.3l-4.5-2.4L88.4,120.6z"/>
					</g>
					<g>
						<path class="st6" d="M93.9,126.2c0,0-0.1,0-0.1,0c-4.3-0.1-5.7-5.5-5.7-5.5l-0.1-0.2l7.3-2.5l4.8,2.6l0,0.2
							C99.6,123.4,97.7,126.2,93.9,126.2z M88.7,120.8c0.3,1,1.7,4.8,5.1,4.9c0,0,0.1,0,0.1,0c4.2,0,5.4-3.8,5.7-4.9l-4.3-2.3
							L88.7,120.8z"/>
					</g>
				</g>
			</g>
			<g>
				<g>
					<g>
						<path class="st3" d="M1.9,116.8c0,0,1.3,5.2,5.4,5.3c4.1,0.1,5.7-3.3,6.1-5.3l-4.5-2.4L1.9,116.8z"/>
					</g>
					<g>
						<path class="st6" d="M7.5,122.4c0,0-0.1,0-0.1,0c-4.3-0.1-5.7-5.5-5.7-5.5l-0.1-0.2l7.3-2.5l4.8,2.5l0,0.2
							C13.1,119.5,11.2,122.4,7.5,122.4z M2.2,116.9c0.3,1,1.7,4.8,5.1,4.9c0,0,0.1,0,0.1,0c4.2,0,5.4-3.8,5.7-4.9l-4.3-2.3
							L2.2,116.9z"/>
					</g>
				</g>
				<g>
					<g>
						<path class="st3" d="M13.4,116.8c0,0,1.3,5.2,5.4,5.3c4.1,0.1,5.7-3.3,6.1-5.3l-4.5-2.4L13.4,116.8z"/>
					</g>
					<g>
						<path class="st6" d="M19,122.4c0,0-0.1,0-0.1,0c-4.3-0.1-5.7-5.5-5.7-5.5l-0.1-0.2l7.3-2.5l4.8,2.5l0,0.2
							C24.6,119.5,22.7,122.4,19,122.4z M13.7,116.9c0.3,1,1.7,4.8,5.1,4.9c0,0,0.1,0,0.1,0c4.2,0,5.4-3.8,5.7-4.9l-4.3-2.3
							L13.7,116.9z"/>
					</g>
				</g>
				<g>
					<g>
						<path class="st3" d="M24.9,116.8c0,0,1.3,5.2,5.4,5.3c4.1,0.1,5.7-3.3,6.1-5.3l-4.5-2.4L24.9,116.8z"/>
					</g>
					<g>
						<path class="st6" d="M30.5,122.4c0,0-0.1,0-0.1,0c-4.3-0.1-5.7-5.5-5.7-5.5l-0.1-0.2l7.3-2.5l4.8,2.5l0,0.2
							C36.2,119.5,34.3,122.4,30.5,122.4z M25.2,116.9c0.3,1,1.7,4.8,5.1,4.9c0,0,0.1,0,0.1,0c4.2,0,5.4-3.8,5.7-4.9l-4.3-2.3
							L25.2,116.9z"/>
					</g>
				</g>
				<g>
					<g>
						<path class="st3" d="M36.5,116.8c0,0,1.3,5.2,5.4,5.3c4.1,0.1,5.7-3.3,6.1-5.3l-4.5-2.4L36.5,116.8z"/>
					</g>
					<g>
						<path class="st6" d="M42,122.4c0,0-0.1,0-0.1,0c-4.3-0.1-5.7-5.5-5.7-5.5l-0.1-0.2l7.3-2.5l4.8,2.5l0,0.2
							C47.7,119.5,45.8,122.4,42,122.4z M36.8,116.9c0.3,1,1.7,4.8,5.1,4.9c0,0,0.1,0,0.1,0c4.2,0,5.4-3.8,5.7-4.9l-4.3-2.3
							L36.8,116.9z"/>
					</g>
				</g>
				<g>
					<g>
						<path class="st3" d="M48,116.8c0,0,1.3,5.2,5.4,5.3c4.1,0.1,5.7-3.3,6.1-5.3l-4.5-2.4L48,116.8z"/>
					</g>
					<g>
						<path class="st6" d="M53.6,122.4c0,0-0.1,0-0.1,0c-4.3-0.1-5.7-5.5-5.7-5.5l-0.1-0.2l7.3-2.5l4.8,2.5l0,0.2
							C59.2,119.5,57.3,122.4,53.6,122.4z M48.3,116.9c0.3,1,1.7,4.8,5.1,4.9c0,0,0.1,0,0.1,0c4.2,0,5.4-3.8,5.7-4.9l-4.3-2.3
							L48.3,116.9z"/>
					</g>
				</g>
				<g>
					<g>
						<path class="st3" d="M59.5,116.8c0,0,1.3,5.2,5.4,5.3c4.1,0.1,5.7-3.3,6.1-5.3l-4.5-2.4L59.5,116.8z"/>
					</g>
					<g>
						<path class="st6" d="M65.1,122.4c0,0-0.1,0-0.1,0c-4.3-0.1-5.7-5.5-5.7-5.5l-0.1-0.2l7.3-2.5l4.8,2.5l0,0.2
							C70.8,119.5,68.9,122.4,65.1,122.4z M59.8,116.9c0.3,1,1.7,4.8,5.1,4.9c0,0,0.1,0,0.1,0c4.2,0,5.4-3.8,5.7-4.9l-4.3-2.3
							L59.8,116.9z"/>
					</g>
				</g>
				<g>
					<g>
						<path class="st3" d="M71.1,116.8c0,0,1.3,5.2,5.4,5.3c4.1,0.1,5.7-3.3,6.1-5.3l-4.5-2.4L71.1,116.8z"/>
					</g>
					<g>
						<path class="st6" d="M76.6,122.4c0,0-0.1,0-0.1,0c-4.3-0.1-5.7-5.5-5.7-5.5l-0.1-0.2l7.3-2.5l4.8,2.5l0,0.2
							C82.3,119.5,80.4,122.4,76.6,122.4z M71.4,116.9c0.3,1,1.7,4.8,5.1,4.9c0,0,0.1,0,0.1,0c4.2,0,5.4-3.8,5.7-4.9l-4.3-2.3
							L71.4,116.9z"/>
					</g>
				</g>
				<g>
					<g>
						<path class="st3" d="M82.6,116.8c0,0,1.3,5.2,5.4,5.3c4.1,0.1,5.7-3.3,6.1-5.3l-4.5-2.4L82.6,116.8z"/>
					</g>
					<g>
						<path class="st6" d="M88.2,122.4c0,0-0.1,0-0.1,0c-4.3-0.1-5.7-5.5-5.7-5.5l-0.1-0.2l7.3-2.5l4.8,2.5l0,0.2
							C93.8,119.5,91.9,122.4,88.2,122.4z M82.9,116.9c0.3,1,1.7,4.8,5.1,4.9c0,0,0.1,0,0.1,0c4.2,0,5.4-3.8,5.7-4.9l-4.3-2.3
							L82.9,116.9z"/>
					</g>
				</g>
			</g>
			<g>
				<g>
					<g>
						<path class="st3" d="M7.6,112.9c0,0,1.3,5.2,5.4,5.3c4.1,0.1,5.7-3.3,6.1-5.3l-4.5-2.4L7.6,112.9z"/>
					</g>
					<g>
						<path class="st6" d="M13.2,118.5c0,0-0.1,0-0.1,0c-4.3-0.1-5.7-5.5-5.7-5.5l-0.1-0.2l7.3-2.5l4.8,2.5l0,0.2
							C18.9,115.7,17,118.5,13.2,118.5z M8,113.1c0.3,1,1.7,4.8,5.1,4.9c0,0,0.1,0,0.1,0c4.2,0,5.4-3.8,5.7-4.9l-4.3-2.3L8,113.1z"
							/>
					</g>
				</g>
				<g>
					<g>
						<path class="st3" d="M19.2,112.9c0,0,1.3,5.2,5.4,5.3c4.1,0.1,5.7-3.3,6.1-5.3l-4.5-2.4L19.2,112.9z"/>
					</g>
					<g>
						<path class="st6" d="M24.8,118.5c0,0-0.1,0-0.1,0c-4.3-0.1-5.7-5.5-5.7-5.5l-0.1-0.2l7.3-2.5l4.8,2.5l0,0.2
							C30.4,115.7,28.5,118.5,24.8,118.5z M19.5,113.1c0.3,1,1.7,4.8,5.1,4.9c0,0,0.1,0,0.1,0c4.2,0,5.4-3.8,5.7-4.9l-4.3-2.3
							L19.5,113.1z"/>
					</g>
				</g>
				<g>
					<g>
						<path class="st3" d="M30.7,112.9c0,0,1.3,5.2,5.4,5.3c4.1,0.1,5.7-3.3,6.1-5.3l-4.5-2.4L30.7,112.9z"/>
					</g>
					<g>
						<path class="st6" d="M36.3,118.5c0,0-0.1,0-0.1,0c-4.3-0.1-5.7-5.5-5.7-5.5l-0.1-0.2l7.3-2.5l4.8,2.5l0,0.2
							C41.9,115.7,40,118.5,36.3,118.5z M31,113.1c0.3,1,1.7,4.8,5.1,4.9c0,0,0.1,0,0.1,0c4.2,0,5.4-3.8,5.7-4.9l-4.3-2.3L31,113.1z
							"/>
					</g>
				</g>
				<g>
					<g>
						<path class="st3" d="M42.2,112.9c0,0,1.3,5.2,5.4,5.3c4.1,0.1,5.7-3.3,6.1-5.3l-4.5-2.4L42.2,112.9z"/>
					</g>
					<g>
						<path class="st6" d="M47.8,118.5c0,0-0.1,0-0.1,0c-4.3-0.1-5.7-5.5-5.7-5.5l-0.1-0.2l7.3-2.5l4.8,2.5l0,0.2
							C53.5,115.7,51.6,118.5,47.8,118.5z M42.5,113.1c0.3,1,1.7,4.8,5.1,4.9c4.3,0.1,5.5-3.7,5.8-4.9l-4.3-2.3L42.5,113.1z"/>
					</g>
				</g>
				<g>
					<g>
						<path class="st3" d="M53.8,112.9c0,0,1.3,5.2,5.4,5.3c4.1,0.1,5.7-3.3,6.1-5.3l-4.5-2.4L53.8,112.9z"/>
					</g>
					<g>
						<path class="st6" d="M59.3,118.5c0,0-0.1,0-0.1,0c-4.3-0.1-5.7-5.5-5.7-5.5l-0.1-0.2l7.3-2.5l4.8,2.5l0,0.2
							C65,115.7,63.1,118.5,59.3,118.5z M54.1,113.1c0.3,1,1.7,4.8,5.1,4.9c0,0,0.1,0,0.1,0c4.2,0,5.4-3.8,5.7-4.9l-4.3-2.3
							L54.1,113.1z"/>
					</g>
				</g>
				<g>
					<g>
						<path class="st3" d="M65.3,112.9c0,0,1.3,5.2,5.4,5.3c4.1,0.1,5.7-3.3,6.1-5.3l-4.5-2.4L65.3,112.9z"/>
					</g>
					<g>
						<path class="st6" d="M70.9,118.5c0,0-0.1,0-0.1,0c-4.3-0.1-5.7-5.5-5.7-5.5l-0.1-0.2l7.3-2.5l4.8,2.5l0,0.2
							C76.5,115.7,74.6,118.5,70.9,118.5z M65.6,113.1c0.3,1,1.7,4.8,5.1,4.9c4.3,0.1,5.5-3.7,5.8-4.9l-4.3-2.3L65.6,113.1z"/>
					</g>
				</g>
				<g>
					<g>
						<path class="st3" d="M76.8,112.9c0,0,1.3,5.2,5.4,5.3c4.1,0.1,5.7-3.3,6.1-5.3l-4.5-2.4L76.8,112.9z"/>
					</g>
					<g>
						<path class="st6" d="M82.4,118.5c0,0-0.1,0-0.1,0c-4.3-0.1-5.7-5.5-5.7-5.5l-0.1-0.2l7.3-2.5l4.8,2.5l0,0.2
							C88.1,115.7,86.1,118.5,82.4,118.5z M77.1,113.1c0.3,1,1.7,4.8,5.1,4.9c4.3,0.1,5.5-3.7,5.8-4.9l-4.3-2.3L77.1,113.1z"/>
					</g>
				</g>
				<g>
					<g>
						<path class="st3" d="M88.4,112.9c0,0,1.3,5.2,5.4,5.3c4.1,0.1,5.7-3.3,6.1-5.3l-4.5-2.4L88.4,112.9z"/>
					</g>
					<g>
						<path class="st6" d="M93.9,118.5c0,0-0.1,0-0.1,0c-4.3-0.1-5.7-5.5-5.7-5.5l-0.1-0.2l7.3-2.5l4.8,2.5l0,0.2
							C99.6,115.7,97.7,118.5,93.9,118.5z M88.7,113.1c0.3,1,1.7,4.8,5.1,4.9c0,0,0.1,0,0.1,0c4.2,0,5.4-3.8,5.7-4.9l-4.3-2.3
							L88.7,113.1z"/>
					</g>
				</g>
			</g>
			<g>
				<g>
					<g>
						<path class="st3" d="M1.9,109.1c0,0,1.3,5.2,5.4,5.3c4.1,0.1,5.7-3.3,6.1-5.3l-4.5-2.4L1.9,109.1z"/>
					</g>
					<g>
						<path class="st6" d="M7.5,114.7c0,0-0.1,0-0.1,0c-4.3-0.1-5.7-5.5-5.7-5.5l-0.1-0.2l7.3-2.5l4.8,2.5l0,0.2
							C13.1,111.8,11.2,114.7,7.5,114.7z M2.2,109.2c0.3,1,1.7,4.8,5.1,4.9c4.3,0.1,5.5-3.7,5.8-4.9L8.9,107L2.2,109.2z"/>
					</g>
				</g>
				<g>
					<g>
						<path class="st3" d="M13.4,109.1c0,0,1.3,5.2,5.4,5.3c4.1,0.1,5.7-3.3,6.1-5.3l-4.5-2.4L13.4,109.1z"/>
					</g>
					<g>
						<path class="st6" d="M19,114.7c0,0-0.1,0-0.1,0c-4.3-0.1-5.7-5.5-5.7-5.5l-0.1-0.2l7.3-2.5l4.8,2.5l0,0.2
							C24.6,111.8,22.7,114.7,19,114.7z M13.7,109.2c0.3,1,1.7,4.8,5.1,4.9c0,0,0.1,0,0.1,0c4.2,0,5.4-3.8,5.7-4.9l-4.3-2.3
							L13.7,109.2z"/>
					</g>
				</g>
				<g>
					<g>
						<path class="st3" d="M24.9,109.1c0,0,1.3,5.2,5.4,5.3c4.1,0.1,5.7-3.3,6.1-5.3l-4.5-2.4L24.9,109.1z"/>
					</g>
					<g>
						<path class="st6" d="M30.5,114.7c0,0-0.1,0-0.1,0c-4.3-0.1-5.7-5.5-5.7-5.5l-0.1-0.2l7.3-2.5l4.8,2.5l0,0.2
							C36.2,111.8,34.3,114.7,30.5,114.7z M25.2,109.2c0.3,1,1.7,4.8,5.1,4.9c4.3,0.1,5.5-3.7,5.8-4.9l-4.3-2.3L25.2,109.2z"/>
					</g>
				</g>
				<g>
					<g>
						<path class="st3" d="M36.5,109.1c0,0,1.3,5.2,5.4,5.3c4.1,0.1,5.7-3.3,6.1-5.3l-4.5-2.4L36.5,109.1z"/>
					</g>
					<g>
						<path class="st6" d="M42,114.7c0,0-0.1,0-0.1,0c-4.3-0.1-5.7-5.5-5.7-5.5l-0.1-0.2l7.3-2.5l4.8,2.5l0,0.2
							C47.7,111.8,45.8,114.7,42,114.7z M36.8,109.2c0.3,1,1.7,4.8,5.1,4.9c0,0,0.1,0,0.1,0c4.2,0,5.4-3.8,5.7-4.9l-4.3-2.3
							L36.8,109.2z"/>
					</g>
				</g>
				<g>
					<g>
						<path class="st3" d="M48,109.1c0,0,1.3,5.2,5.4,5.3c4.1,0.1,5.7-3.3,6.1-5.3l-4.5-2.4L48,109.1z"/>
					</g>
					<g>
						<path class="st6" d="M53.6,114.7c0,0-0.1,0-0.1,0c-4.3-0.1-5.7-5.5-5.7-5.5l-0.1-0.2l7.3-2.5l4.8,2.5l0,0.2
							C59.2,111.8,57.3,114.7,53.6,114.7z M48.3,109.2c0.3,1,1.7,4.8,5.1,4.9c0,0,0.1,0,0.1,0c4.2,0,5.4-3.8,5.7-4.9L55,107
							L48.3,109.2z"/>
					</g>
				</g>
				<g>
					<g>
						<path class="st3" d="M59.5,109.1c0,0,1.3,5.2,5.4,5.3c4.1,0.1,5.7-3.3,6.1-5.3l-4.5-2.4L59.5,109.1z"/>
					</g>
					<g>
						<path class="st6" d="M65.1,114.7c0,0-0.1,0-0.1,0c-4.3-0.1-5.7-5.5-5.7-5.5l-0.1-0.2l7.3-2.5l4.8,2.5l0,0.2
							C70.8,111.8,68.9,114.7,65.1,114.7z M59.8,109.2c0.3,1,1.7,4.8,5.1,4.9c4.3,0.1,5.5-3.7,5.8-4.9l-4.3-2.3L59.8,109.2z"/>
					</g>
				</g>
				<g>
					<g>
						<path class="st3" d="M71.1,109.1c0,0,1.3,5.2,5.4,5.3c4.1,0.1,5.7-3.3,6.1-5.3l-4.5-2.4L71.1,109.1z"/>
					</g>
					<g>
						<path class="st6" d="M76.6,114.7c0,0-0.1,0-0.1,0c-4.3-0.1-5.7-5.5-5.7-5.5l-0.1-0.2l7.3-2.5l4.8,2.5l0,0.2
							C82.3,111.8,80.4,114.7,76.6,114.7z M71.4,109.2c0.3,1,1.7,4.8,5.1,4.9c4.3,0.1,5.5-3.7,5.8-4.9L78,107L71.4,109.2z"/>
					</g>
				</g>
				<g>
					<g>
						<path class="st3" d="M82.6,109.1c0,0,1.3,5.2,5.4,5.3c4.1,0.1,5.7-3.3,6.1-5.3l-4.5-2.4L82.6,109.1z"/>
					</g>
					<g>
						<path class="st6" d="M88.2,114.7c0,0-0.1,0-0.1,0c-4.3-0.1-5.7-5.5-5.7-5.5l-0.1-0.2l7.3-2.5l4.8,2.5l0,0.2
							C93.8,111.8,91.9,114.7,88.2,114.7z M82.9,109.2c0.3,1,1.7,4.8,5.1,4.9c0,0,0.1,0,0.1,0c4.2,0,5.4-3.8,5.7-4.9l-4.3-2.3
							L82.9,109.2z"/>
					</g>
				</g>
			</g>
			<g>
				<g>
					<g>
						<path class="st3" d="M7.6,105.2c0,0,1.3,5.2,5.4,5.3s5.7-3.3,6.1-5.3l-4.5-2.4L7.6,105.2z"/>
					</g>
					<g>
						<path class="st6" d="M13.2,110.8c0,0-0.1,0-0.1,0c-4.3-0.1-5.7-5.5-5.7-5.5l-0.1-0.2l7.3-2.5l4.8,2.5l0,0.2
							C18.9,108,17,110.8,13.2,110.8z M8,105.4c0.3,1,1.7,4.8,5.1,4.9c4.3,0.1,5.5-3.7,5.8-4.9l-4.3-2.3L8,105.4z"/>
					</g>
				</g>
				<g>
					<g>
						<path class="st3" d="M19.2,105.2c0,0,1.3,5.2,5.4,5.3s5.7-3.3,6.1-5.3l-4.5-2.4L19.2,105.2z"/>
					</g>
					<g>
						<path class="st6" d="M24.8,110.8c0,0-0.1,0-0.1,0c-4.3-0.1-5.7-5.5-5.7-5.5l-0.1-0.2l7.3-2.5l4.8,2.5l0,0.2
							C30.4,108,28.5,110.8,24.8,110.8z M19.5,105.4c0.3,1,1.7,4.8,5.1,4.9c0,0,0.1,0,0.1,0c4.2,0,5.4-3.8,5.7-4.9l-4.3-2.3
							L19.5,105.4z"/>
					</g>
				</g>
				<g>
					<g>
						<path class="st3" d="M30.7,105.2c0,0,1.3,5.2,5.4,5.3s5.7-3.3,6.1-5.3l-4.5-2.4L30.7,105.2z"/>
					</g>
					<g>
						<path class="st6" d="M36.3,110.8c0,0-0.1,0-0.1,0c-4.3-0.1-5.7-5.5-5.7-5.5l-0.1-0.2l7.3-2.5l4.8,2.5l0,0.2
							C41.9,108,40,110.8,36.3,110.8z M31,105.4c0.3,1,1.7,4.8,5.1,4.9c0,0,0.1,0,0.1,0c4.2,0,5.4-3.8,5.7-4.9l-4.3-2.3L31,105.4z"
							/>
					</g>
				</g>
				<g>
					<g>
						<path class="st3" d="M42.2,105.2c0,0,1.3,5.2,5.4,5.3c4.1,0.1,5.7-3.3,6.1-5.3l-4.5-2.4L42.2,105.2z"/>
					</g>
					<g>
						<path class="st6" d="M47.8,110.8c0,0-0.1,0-0.1,0c-4.3-0.1-5.7-5.5-5.7-5.5l-0.1-0.2l7.3-2.5l4.8,2.5l0,0.2
							C53.5,108,51.6,110.8,47.8,110.8z M42.5,105.4c0.3,1,1.7,4.8,5.1,4.9c4.3,0.1,5.5-3.7,5.8-4.9l-4.3-2.3L42.5,105.4z"/>
					</g>
				</g>
				<g>
					<g>
						<path class="st3" d="M53.8,105.2c0,0,1.3,5.2,5.4,5.3c4.1,0.1,5.7-3.3,6.1-5.3l-4.5-2.4L53.8,105.2z"/>
					</g>
					<g>
						<path class="st6" d="M59.3,110.8c0,0-0.1,0-0.1,0c-4.3-0.1-5.7-5.5-5.7-5.5l-0.1-0.2l7.3-2.5l4.8,2.5l0,0.2
							C65,108,63.1,110.8,59.3,110.8z M54.1,105.4c0.3,1,1.7,4.8,5.1,4.9c0,0,0.1,0,0.1,0c4.2,0,5.4-3.8,5.7-4.9l-4.3-2.3
							L54.1,105.4z"/>
					</g>
				</g>
				<g>
					<g>
						<path class="st3" d="M65.3,105.2c0,0,1.3,5.2,5.4,5.3c4.1,0.1,5.7-3.3,6.1-5.3l-4.5-2.4L65.3,105.2z"/>
					</g>
					<g>
						<path class="st6" d="M70.9,110.8c0,0-0.1,0-0.1,0c-4.3-0.1-5.7-5.5-5.7-5.5l-0.1-0.2l7.3-2.5l4.8,2.5l0,0.2
							C76.5,108,74.6,110.8,70.9,110.8z M65.6,105.4c0.3,1,1.7,4.8,5.1,4.9c4.3,0.1,5.5-3.7,5.8-4.9l-4.3-2.3L65.6,105.4z"/>
					</g>
				</g>
				<g>
					<g>
						<path class="st3" d="M76.8,105.2c0,0,1.3,5.2,5.4,5.3c4.1,0.1,5.7-3.3,6.1-5.3l-4.5-2.4L76.8,105.2z"/>
					</g>
					<g>
						<path class="st6" d="M82.4,110.8c0,0-0.1,0-0.1,0c-4.3-0.1-5.7-5.5-5.7-5.5l-0.1-0.2l7.3-2.5l4.8,2.5l0,0.2
							C88.1,108,86.1,110.8,82.4,110.8z M77.1,105.4c0.3,1,1.7,4.8,5.1,4.9c4.3,0.1,5.5-3.7,5.8-4.9l-4.3-2.3L77.1,105.4z"/>
					</g>
				</g>
				<g>
					<g>
						<path class="st3" d="M88.4,105.2c0,0,1.3,5.2,5.4,5.3c4.1,0.1,5.7-3.3,6.1-5.3l-4.5-2.4L88.4,105.2z"/>
					</g>
					<g>
						<path class="st6" d="M93.9,110.8c0,0-0.1,0-0.1,0c-4.3-0.1-5.7-5.5-5.7-5.5l-0.1-0.2l7.3-2.5l4.8,2.5l0,0.2
							C99.6,108,97.7,110.8,93.9,110.8z M88.7,105.4c0.3,1,1.7,4.8,5.1,4.9c0,0,0.1,0,0.1,0c4.2,0,5.4-3.8,5.7-4.9l-4.3-2.3
							L88.7,105.4z"/>
					</g>
				</g>
			</g>
			<g>
				<g>
					<g>
						<path class="st3" d="M1.9,101.4c0,0,1.3,5.2,5.4,5.3c4.1,0.1,5.7-3.3,6.1-5.3L8.9,99L1.9,101.4z"/>
					</g>
					<g>
						<path class="st6" d="M7.5,107c0,0-0.1,0-0.1,0c-4.3-0.1-5.7-5.5-5.7-5.5l-0.1-0.2l7.3-2.5l4.8,2.5l0,0.2
							C13.1,104.1,11.2,107,7.5,107z M2.2,101.5c0.3,1,1.7,4.8,5.1,4.9c4.3,0.1,5.5-3.7,5.8-4.9l-4.3-2.3L2.2,101.5z"/>
					</g>
				</g>
				<g>
					<g>
						<path class="st3" d="M13.4,101.4c0,0,1.3,5.2,5.4,5.3c4.1,0.1,5.7-3.3,6.1-5.3L20.4,99L13.4,101.4z"/>
					</g>
					<g>
						<path class="st6" d="M19,107c0,0-0.1,0-0.1,0c-4.3-0.1-5.7-5.5-5.7-5.5l-0.1-0.2l7.3-2.5l4.8,2.5l0,0.2
							C24.6,104.1,22.7,107,19,107z M13.7,101.5c0.3,1,1.7,4.8,5.1,4.9c0,0,0.1,0,0.1,0c4.2,0,5.4-3.8,5.7-4.9l-4.3-2.3L13.7,101.5z
							"/>
					</g>
				</g>
				<g>
					<g>
						<path class="st3" d="M24.9,101.4c0,0,1.3,5.2,5.4,5.3c4.1,0.1,5.7-3.3,6.1-5.3L31.9,99L24.9,101.4z"/>
					</g>
					<g>
						<path class="st6" d="M30.5,107c0,0-0.1,0-0.1,0c-4.3-0.1-5.7-5.5-5.7-5.5l-0.1-0.2l7.3-2.5l4.8,2.5l0,0.2
							C36.2,104.1,34.3,107,30.5,107z M25.2,101.5c0.3,1,1.7,4.8,5.1,4.9c4.3,0.1,5.5-3.7,5.8-4.9l-4.3-2.3L25.2,101.5z"/>
					</g>
				</g>
				<g>
					<g>
						<path class="st3" d="M36.5,101.4c0,0,1.3,5.2,5.4,5.3c4.1,0.1,5.7-3.3,6.1-5.3L43.5,99L36.5,101.4z"/>
					</g>
					<g>
						<path class="st6" d="M42,107c0,0-0.1,0-0.1,0c-4.3-0.1-5.7-5.5-5.7-5.5l-0.1-0.2l7.3-2.5l4.8,2.5l0,0.2
							C47.7,104.1,45.8,107,42,107z M36.8,101.5c0.3,1,1.7,4.8,5.1,4.9c0,0,0.1,0,0.1,0c4.2,0,5.4-3.8,5.7-4.9l-4.3-2.3L36.8,101.5z
							"/>
					</g>
				</g>
				<g>
					<g>
						<path class="st3" d="M48,101.4c0,0,1.3,5.2,5.4,5.3c4.1,0.1,5.7-3.3,6.1-5.3L55,99L48,101.4z"/>
					</g>
					<g>
						<path class="st6" d="M53.6,107c0,0-0.1,0-0.1,0c-4.3-0.1-5.7-5.5-5.7-5.5l-0.1-0.2l7.3-2.5l4.8,2.5l0,0.2
							C59.2,104.1,57.3,107,53.6,107z M48.3,101.5c0.3,1,1.7,4.8,5.1,4.9c0,0,0.1,0,0.1,0c4.2,0,5.4-3.8,5.7-4.9L55,99.3L48.3,101.5
							z"/>
					</g>
				</g>
				<g>
					<g>
						<path class="st3" d="M59.5,101.4c0,0,1.3,5.2,5.4,5.3c4.1,0.1,5.7-3.3,6.1-5.3L66.5,99L59.5,101.4z"/>
					</g>
					<g>
						<path class="st6" d="M65.1,107c0,0-0.1,0-0.1,0c-4.3-0.1-5.7-5.5-5.7-5.5l-0.1-0.2l7.3-2.5l4.8,2.5l0,0.2
							C70.8,104.1,68.9,107,65.1,107z M59.8,101.5c0.3,1,1.7,4.8,5.1,4.9c4.3,0.1,5.5-3.7,5.8-4.9l-4.3-2.3L59.8,101.5z"/>
					</g>
				</g>
				<g>
					<g>
						<path class="st3" d="M71.1,101.4c0,0,1.3,5.2,5.4,5.3c4.1,0.1,5.7-3.3,6.1-5.3L78.1,99L71.1,101.4z"/>
					</g>
					<g>
						<path class="st6" d="M76.6,107c0,0-0.1,0-0.1,0c-4.3-0.1-5.7-5.5-5.7-5.5l-0.1-0.2l7.3-2.5l4.8,2.5l0,0.2
							C82.3,104.1,80.4,107,76.6,107z M71.4,101.5c0.3,1,1.7,4.8,5.1,4.9c4.3,0.1,5.5-3.7,5.8-4.9L78,99.3L71.4,101.5z"/>
					</g>
				</g>
				<g>
					<g>
						<path class="st3" d="M82.6,101.4c0,0,1.3,5.2,5.4,5.3c4.1,0.1,5.7-3.3,6.1-5.3L89.6,99L82.6,101.4z"/>
					</g>
					<g>
						<path class="st6" d="M88.2,107c0,0-0.1,0-0.1,0c-4.3-0.1-5.7-5.5-5.7-5.5l-0.1-0.2l7.3-2.5l4.8,2.5l0,0.2
							C93.8,104.1,91.9,107,88.2,107z M82.9,101.5c0.3,1,1.7,4.8,5.1,4.9c4.3,0.1,5.5-3.7,5.8-4.9l-4.3-2.3L82.9,101.5z"/>
					</g>
				</g>
			</g>
			<g>
				<g>
					<g>
						<path class="st3" d="M7.6,97.5c0,0,1.3,5.2,5.4,5.3s5.7-3.3,6.1-5.3l-4.5-2.4L7.6,97.5z"/>
					</g>
					<g>
						<path class="st6" d="M13.2,103.1c0,0-0.1,0-0.1,0c-4.3-0.1-5.7-5.5-5.7-5.5l-0.1-0.2l7.3-2.5l4.8,2.6l0,0.2
							C18.9,100.3,17,103.1,13.2,103.1z M8,97.7c0.3,1,1.7,4.8,5.1,4.9c0,0,0.1,0,0.1,0c4.2,0,5.4-3.8,5.7-4.9l-4.3-2.3L8,97.7z"/>
					</g>
				</g>
				<g>
					<g>
						<path class="st3" d="M19.2,97.5c0,0,1.3,5.2,5.4,5.3s5.7-3.3,6.1-5.3l-4.5-2.4L19.2,97.5z"/>
					</g>
					<g>
						<path class="st6" d="M24.8,103.1c0,0-0.1,0-0.1,0c-4.3-0.1-5.7-5.5-5.7-5.5l-0.1-0.2l7.3-2.5l4.8,2.6l0,0.2
							C30.4,100.3,28.5,103.1,24.8,103.1z M19.5,97.7c0.3,1,1.7,4.8,5.1,4.9c0,0,0.1,0,0.1,0c4.2,0,5.4-3.8,5.7-4.9l-4.3-2.3
							L19.5,97.7z"/>
					</g>
				</g>
				<g>
					<g>
						<path class="st3" d="M30.7,97.5c0,0,1.3,5.2,5.4,5.3s5.7-3.3,6.1-5.3l-4.5-2.4L30.7,97.5z"/>
					</g>
					<g>
						<path class="st6" d="M36.3,103.1c0,0-0.1,0-0.1,0c-4.3-0.1-5.7-5.5-5.7-5.5l-0.1-0.2l7.3-2.5l4.8,2.6l0,0.2
							C41.9,100.3,40,103.1,36.3,103.1z M31,97.7c0.3,1,1.7,4.8,5.1,4.9c0,0,0.1,0,0.1,0c4.2,0,5.4-3.8,5.7-4.9l-4.3-2.3L31,97.7z"
							/>
					</g>
				</g>
				<g>
					<g>
						<path class="st3" d="M42.2,97.5c0,0,1.3,5.2,5.4,5.3c4.1,0.1,5.7-3.3,6.1-5.3l-4.5-2.4L42.2,97.5z"/>
					</g>
					<g>
						<path class="st6" d="M47.8,103.1c0,0-0.1,0-0.1,0c-4.3-0.1-5.7-5.5-5.7-5.5l-0.1-0.2l7.3-2.5l4.8,2.6l0,0.2
							C53.5,100.3,51.6,103.1,47.8,103.1z M42.5,97.7c0.3,1,1.7,4.8,5.1,4.9c0,0,0.1,0,0.1,0c4.2,0,5.4-3.8,5.7-4.9l-4.3-2.3
							L42.5,97.7z"/>
					</g>
				</g>
				<g>
					<g>
						<path class="st3" d="M53.8,97.5c0,0,1.3,5.2,5.4,5.3c4.1,0.1,5.7-3.3,6.1-5.3l-4.5-2.4L53.8,97.5z"/>
					</g>
					<g>
						<path class="st6" d="M59.3,103.1c0,0-0.1,0-0.1,0c-4.3-0.1-5.7-5.5-5.7-5.5l-0.1-0.2l7.3-2.5l4.8,2.6l0,0.2
							C65,100.3,63.1,103.1,59.3,103.1z M54.1,97.7c0.3,1,1.7,4.8,5.1,4.9c0,0,0.1,0,0.1,0c4.2,0,5.4-3.8,5.7-4.9l-4.3-2.3
							L54.1,97.7z"/>
					</g>
				</g>
				<g>
					<g>
						<path class="st3" d="M65.3,97.5c0,0,1.3,5.2,5.4,5.3c4.1,0.1,5.7-3.3,6.1-5.3l-4.5-2.4L65.3,97.5z"/>
					</g>
					<g>
						<path class="st6" d="M70.9,103.1c0,0-0.1,0-0.1,0c-4.3-0.1-5.7-5.5-5.7-5.5L65,97.4l7.3-2.5l4.8,2.6l0,0.2
							C76.5,100.3,74.6,103.1,70.9,103.1z M65.6,97.7c0.3,1,1.7,4.8,5.1,4.9c0,0,0.1,0,0.1,0c4.2,0,5.4-3.8,5.7-4.9l-4.3-2.3
							L65.6,97.7z"/>
					</g>
				</g>
				<g>
					<g>
						<path class="st3" d="M76.8,97.5c0,0,1.3,5.2,5.4,5.3c4.1,0.1,5.7-3.3,6.1-5.3l-4.5-2.4L76.8,97.5z"/>
					</g>
					<g>
						<path class="st6" d="M82.4,103.1c0,0-0.1,0-0.1,0c-4.3-0.1-5.7-5.5-5.7-5.5l-0.1-0.2l7.3-2.5l4.8,2.6l0,0.2
							C88.1,100.3,86.1,103.1,82.4,103.1z M77.1,97.7c0.3,1,1.7,4.8,5.1,4.9c0,0,0.1,0,0.1,0c4.2,0,5.4-3.8,5.7-4.9l-4.3-2.3
							L77.1,97.7z"/>
					</g>
				</g>
				<g>
					<g>
						<path class="st3" d="M88.4,97.5c0,0,1.3,5.2,5.4,5.3c4.1,0.1,5.7-3.3,6.1-5.3l-4.5-2.4L88.4,97.5z"/>
					</g>
					<g>
						<path class="st6" d="M93.9,103.1c0,0-0.1,0-0.1,0c-4.3-0.1-5.7-5.5-5.7-5.5l-0.1-0.2l7.3-2.5l4.8,2.6l0,0.2
							C99.6,100.3,97.7,103.1,93.9,103.1z M88.7,97.7c0.3,1,1.7,4.8,5.1,4.9c0,0,0.1,0,0.1,0c4.2,0,5.4-3.8,5.7-4.9l-4.3-2.3
							L88.7,97.7z"/>
					</g>
				</g>
			</g>
			<g>
				<g>
					<g>
						<path class="st3" d="M1.9,93.7c0,0,1.3,5.2,5.4,5.3c4.1,0.1,5.7-3.3,6.1-5.3l-4.5-2.4L1.9,93.7z"/>
					</g>
					<g>
						<path class="st6" d="M7.5,99.3c0,0-0.1,0-0.1,0c-4.3-0.1-5.7-5.5-5.7-5.5l-0.1-0.2L8.9,91l4.8,2.6l0,0.2
							C13.1,96.4,11.2,99.3,7.5,99.3z M2.2,93.9c0.3,1,1.7,4.8,5.1,4.9c0,0,0.1,0,0.1,0c4.2,0,5.4-3.8,5.7-4.9l-4.3-2.3L2.2,93.9z"
							/>
					</g>
				</g>
				<g>
					<g>
						<path class="st3" d="M13.4,93.7c0,0,1.3,5.2,5.4,5.3c4.1,0.1,5.7-3.3,6.1-5.3l-4.5-2.4L13.4,93.7z"/>
					</g>
					<g>
						<path class="st6" d="M19,99.3c0,0-0.1,0-0.1,0c-4.3-0.1-5.7-5.5-5.7-5.5l-0.1-0.2l7.3-2.5l4.8,2.6l0,0.2
							C24.6,96.4,22.7,99.3,19,99.3z M13.7,93.9c0.3,1,1.7,4.8,5.1,4.9c0,0,0.1,0,0.1,0c4.2,0,5.4-3.8,5.7-4.9l-4.3-2.3L13.7,93.9z"
							/>
					</g>
				</g>
				<g>
					<g>
						<path class="st3" d="M24.9,93.7c0,0,1.3,5.2,5.4,5.3c4.1,0.1,5.7-3.3,6.1-5.3l-4.5-2.4L24.9,93.7z"/>
					</g>
					<g>
						<path class="st6" d="M30.5,99.3c0,0-0.1,0-0.1,0c-4.3-0.1-5.7-5.5-5.7-5.5l-0.1-0.2L32,91l4.8,2.6l0,0.2
							C36.2,96.4,34.3,99.3,30.5,99.3z M25.2,93.9c0.3,1,1.7,4.8,5.1,4.9c0,0,0.1,0,0.1,0c4.2,0,5.4-3.8,5.7-4.9l-4.3-2.3L25.2,93.9
							z"/>
					</g>
				</g>
				<g>
					<g>
						<path class="st3" d="M36.5,93.7c0,0,1.3,5.2,5.4,5.3c4.1,0.1,5.7-3.3,6.1-5.3l-4.5-2.4L36.5,93.7z"/>
					</g>
					<g>
						<path class="st6" d="M42,99.3c0,0-0.1,0-0.1,0c-4.3-0.1-5.7-5.5-5.7-5.5l-0.1-0.2l7.3-2.5l4.8,2.6l0,0.2
							C47.7,96.4,45.8,99.3,42,99.3z M36.8,93.9c0.3,1,1.7,4.8,5.1,4.9c0,0,0.1,0,0.1,0c4.2,0,5.4-3.8,5.7-4.9l-4.3-2.3L36.8,93.9z"
							/>
					</g>
				</g>
				<g>
					<g>
						<path class="st3" d="M48,93.7c0,0,1.3,5.2,5.4,5.3c4.1,0.1,5.7-3.3,6.1-5.3L55,91.3L48,93.7z"/>
					</g>
					<g>
						<path class="st6" d="M53.6,99.3c0,0-0.1,0-0.1,0c-4.3-0.1-5.7-5.5-5.7-5.5l-0.1-0.2L55,91l4.8,2.6l0,0.2
							C59.2,96.4,57.3,99.3,53.6,99.3z M48.3,93.9c0.3,1,1.7,4.8,5.1,4.9c0,0,0.1,0,0.1,0c4.2,0,5.4-3.8,5.7-4.9L55,91.6L48.3,93.9z
							"/>
					</g>
				</g>
				<g>
					<g>
						<path class="st3" d="M59.5,93.7c0,0,1.3,5.2,5.4,5.3c4.1,0.1,5.7-3.3,6.1-5.3l-4.5-2.4L59.5,93.7z"/>
					</g>
					<g>
						<path class="st6" d="M65.1,99.3c0,0-0.1,0-0.1,0c-4.3-0.1-5.7-5.5-5.7-5.5l-0.1-0.2l7.3-2.5l4.8,2.6l0,0.2
							C70.8,96.4,68.9,99.3,65.1,99.3z M59.8,93.9c0.3,1,1.7,4.8,5.1,4.9c0,0,0.1,0,0.1,0c4.2,0,5.4-3.8,5.7-4.9l-4.3-2.3L59.8,93.9
							z"/>
					</g>
				</g>
				<g>
					<g>
						<path class="st3" d="M71.1,93.7c0,0,1.3,5.2,5.4,5.3c4.1,0.1,5.7-3.3,6.1-5.3l-4.5-2.4L71.1,93.7z"/>
					</g>
					<g>
						<path class="st6" d="M76.6,99.3c0,0-0.1,0-0.1,0c-4.3-0.1-5.7-5.5-5.7-5.5l-0.1-0.2l7.3-2.5l4.8,2.6l0,0.2
							C82.3,96.4,80.4,99.3,76.6,99.3z M71.4,93.9c0.3,1,1.7,4.8,5.1,4.9c0,0,0.1,0,0.1,0c4.2,0,5.4-3.8,5.7-4.9L78,91.6L71.4,93.9z
							"/>
					</g>
				</g>
				<g>
					<g>
						<path class="st3" d="M82.6,93.7c0,0,1.3,5.2,5.4,5.3c4.1,0.1,5.7-3.3,6.1-5.3l-4.5-2.4L82.6,93.7z"/>
					</g>
					<g>
						<path class="st6" d="M88.2,99.3c0,0-0.1,0-0.1,0c-4.3-0.1-5.7-5.5-5.7-5.5l-0.1-0.2l7.3-2.5l4.8,2.6l0,0.2
							C93.8,96.4,91.9,99.3,88.2,99.3z M82.9,93.9c0.3,1,1.7,4.8,5.1,4.9c0,0,0.1,0,0.1,0c4.2,0,5.4-3.8,5.7-4.9l-4.3-2.3L82.9,93.9
							z"/>
					</g>
				</g>
			</g>
			<g>
				<g>
					<g>
						<path class="st3" d="M7.6,89.8c0,0,1.3,5.2,5.4,5.3s5.7-3.3,6.1-5.3l-4.5-2.4L7.6,89.8z"/>
					</g>
					<g>
						<path class="st6" d="M13.2,95.4c0,0-0.1,0-0.1,0c-4.3-0.1-5.7-5.5-5.7-5.5l-0.1-0.2l7.3-2.5l4.8,2.5l0,0.2
							C18.9,92.6,17,95.4,13.2,95.4z M8,90c0.3,1,1.7,4.8,5.1,4.9c4.3,0.1,5.5-3.7,5.8-4.9l-4.3-2.3L8,90z"/>
					</g>
				</g>
				<g>
					<g>
						<path class="st3" d="M19.2,89.8c0,0,1.3,5.2,5.4,5.3s5.7-3.3,6.1-5.3l-4.5-2.4L19.2,89.8z"/>
					</g>
					<g>
						<path class="st6" d="M24.8,95.4c0,0-0.1,0-0.1,0c-4.3-0.1-5.7-5.5-5.7-5.5l-0.1-0.2l7.3-2.5l4.8,2.5l0,0.2
							C30.4,92.6,28.5,95.4,24.8,95.4z M19.5,90c0.3,1,1.7,4.8,5.1,4.9c0,0,0.1,0,0.1,0c4.2,0,5.4-3.8,5.7-4.9l-4.3-2.3L19.5,90z"/>
					</g>
				</g>
				<g>
					<g>
						<path class="st3" d="M30.7,89.8c0,0,1.3,5.2,5.4,5.3s5.7-3.3,6.1-5.3l-4.5-2.4L30.7,89.8z"/>
					</g>
					<g>
						<path class="st6" d="M36.3,95.4c0,0-0.1,0-0.1,0c-4.3-0.1-5.7-5.5-5.7-5.5l-0.1-0.2l7.3-2.5l4.8,2.5l0,0.2
							C41.9,92.6,40,95.4,36.3,95.4z M31,90c0.3,1,1.7,4.8,5.1,4.9c4.3,0.1,5.5-3.7,5.8-4.9l-4.3-2.3L31,90z"/>
					</g>
				</g>
				<g>
					<g>
						<path class="st3" d="M42.2,89.8c0,0,1.3,5.2,5.4,5.3c4.1,0.1,5.7-3.3,6.1-5.3l-4.5-2.4L42.2,89.8z"/>
					</g>
					<g>
						<path class="st6" d="M47.8,95.4c0,0-0.1,0-0.1,0C43.4,95.3,42,90,42,89.9l-0.1-0.2l7.3-2.5l4.8,2.5l0,0.2
							C53.5,92.6,51.6,95.4,47.8,95.4z M42.5,90c0.3,1,1.7,4.8,5.1,4.9c4.3,0.1,5.5-3.7,5.8-4.9l-4.3-2.3L42.5,90z"/>
					</g>
				</g>
				<g>
					<g>
						<path class="st3" d="M53.8,89.8c0,0,1.3,5.2,5.4,5.3c4.1,0.1,5.7-3.3,6.1-5.3l-4.5-2.4L53.8,89.8z"/>
					</g>
					<g>
						<path class="st6" d="M59.3,95.4c0,0-0.1,0-0.1,0c-4.3-0.1-5.7-5.5-5.7-5.5l-0.1-0.2l7.3-2.5l4.8,2.5l0,0.2
							C65,92.6,63.1,95.4,59.3,95.4z M54.1,90c0.3,1,1.7,4.8,5.1,4.9c4.3,0.1,5.5-3.7,5.8-4.9l-4.3-2.3L54.1,90z"/>
					</g>
				</g>
				<g>
					<g>
						<path class="st3" d="M65.3,89.8c0,0,1.3,5.2,5.4,5.3c4.1,0.1,5.7-3.3,6.1-5.3l-4.5-2.4L65.3,89.8z"/>
					</g>
					<g>
						<path class="st6" d="M70.9,95.4c0,0-0.1,0-0.1,0c-4.3-0.1-5.7-5.5-5.7-5.5L65,89.7l7.3-2.5l4.8,2.5l0,0.2
							C76.5,92.6,74.6,95.4,70.9,95.4z M65.6,90c0.3,1,1.7,4.8,5.1,4.9c4.3,0.1,5.5-3.7,5.8-4.9l-4.3-2.3L65.6,90z"/>
					</g>
				</g>
				<g>
					<g>
						<path class="st3" d="M76.8,89.8c0,0,1.3,5.2,5.4,5.3c4.1,0.1,5.7-3.3,6.1-5.3l-4.5-2.4L76.8,89.8z"/>
					</g>
					<g>
						<path class="st6" d="M82.4,95.4c0,0-0.1,0-0.1,0c-4.3-0.1-5.7-5.5-5.7-5.5l-0.1-0.2l7.3-2.5l4.8,2.5l0,0.2
							C88.1,92.6,86.1,95.4,82.4,95.4z M77.1,90c0.3,1,1.7,4.8,5.1,4.9c0,0,0.1,0,0.1,0c4.2,0,5.4-3.8,5.7-4.9l-4.3-2.3L77.1,90z"/>
					</g>
				</g>
				<g>
					<g>
						<path class="st3" d="M88.4,89.8c0,0,1.3,5.2,5.4,5.3c4.1,0.1,5.7-3.3,6.1-5.3l-4.5-2.4L88.4,89.8z"/>
					</g>
					<g>
						<path class="st6" d="M93.9,95.4c0,0-0.1,0-0.1,0c-4.3-0.1-5.7-5.5-5.7-5.5l-0.1-0.2l7.3-2.5l4.8,2.5l0,0.2
							C99.6,92.6,97.7,95.4,93.9,95.4z M88.7,90c0.3,1,1.7,4.8,5.1,4.9c0,0,0.1,0,0.1,0c4.2,0,5.4-3.8,5.7-4.9l-4.3-2.3L88.7,90z"/>
					</g>
				</g>
			</g>
			<g>
				<g>
					<g>
						<path class="st3" d="M1.9,86c0,0,1.3,5.2,5.4,5.3c4.1,0.1,5.7-3.3,6.1-5.3l-4.5-2.4L1.9,86z"/>
					</g>
					<g>
						<path class="st6" d="M7.5,91.6c0,0-0.1,0-0.1,0c-4.3-0.1-5.7-5.5-5.7-5.5l-0.1-0.2l7.3-2.5l4.8,2.5l0,0.2
							C13.1,88.7,11.2,91.6,7.5,91.6z M2.2,86.2c0.3,1,1.7,4.8,5.1,4.9c4.3,0.1,5.5-3.7,5.8-4.9l-4.3-2.3L2.2,86.2z"/>
					</g>
				</g>
				<g>
					<g>
						<path class="st3" d="M13.4,86c0,0,1.3,5.2,5.4,5.3c4.1,0.1,5.7-3.3,6.1-5.3l-4.5-2.4L13.4,86z"/>
					</g>
					<g>
						<path class="st6" d="M19,91.6c0,0-0.1,0-0.1,0c-4.3-0.1-5.7-5.5-5.7-5.5l-0.1-0.2l7.3-2.5l4.8,2.5l0,0.2
							C24.6,88.7,22.7,91.6,19,91.6z M13.7,86.2c0.3,1,1.7,4.8,5.1,4.9c4.3,0.1,5.5-3.7,5.8-4.9l-4.3-2.3L13.7,86.2z"/>
					</g>
				</g>
				<g>
					<g>
						<path class="st3" d="M24.9,86c0,0,1.3,5.2,5.4,5.3c4.1,0.1,5.7-3.3,6.1-5.3l-4.5-2.4L24.9,86z"/>
					</g>
					<g>
						<path class="st6" d="M30.5,91.6c0,0-0.1,0-0.1,0c-4.3-0.1-5.7-5.5-5.7-5.5l-0.1-0.2l7.3-2.5l4.8,2.5l0,0.2
							C36.2,88.7,34.3,91.6,30.5,91.6z M25.2,86.2c0.3,1,1.7,4.8,5.1,4.9c4.3,0.1,5.5-3.7,5.8-4.9l-4.3-2.3L25.2,86.2z"/>
					</g>
				</g>
				<g>
					<g>
						<path class="st3" d="M36.5,86c0,0,1.3,5.2,5.4,5.3C46,91.4,47.6,88,48,86l-4.5-2.4L36.5,86z"/>
					</g>
					<g>
						<path class="st6" d="M42,91.6c0,0-0.1,0-0.1,0c-4.3-0.1-5.7-5.5-5.7-5.5l-0.1-0.2l7.3-2.5l4.8,2.5l0,0.2
							C47.7,88.7,45.8,91.6,42,91.6z M36.8,86.2c0.3,1,1.7,4.8,5.1,4.9c0,0,0.1,0,0.1,0c4.2,0,5.4-3.8,5.7-4.9l-4.3-2.3L36.8,86.2z"
							/>
					</g>
				</g>
				<g>
					<g>
						<path class="st3" d="M48,86c0,0,1.3,5.2,5.4,5.3c4.1,0.1,5.7-3.3,6.1-5.3L55,83.6L48,86z"/>
					</g>
					<g>
						<path class="st6" d="M53.6,91.6c0,0-0.1,0-0.1,0c-4.3-0.1-5.7-5.5-5.7-5.5l-0.1-0.2l7.3-2.5l4.8,2.5l0,0.2
							C59.2,88.7,57.3,91.6,53.6,91.6z M48.3,86.2c0.3,1,1.7,4.8,5.1,4.9c4.3,0.1,5.5-3.7,5.8-4.9L55,83.9L48.3,86.2z"/>
					</g>
				</g>
				<g>
					<g>
						<path class="st3" d="M59.5,86c0,0,1.3,5.2,5.4,5.3c4.1,0.1,5.7-3.3,6.1-5.3l-4.5-2.4L59.5,86z"/>
					</g>
					<g>
						<path class="st6" d="M65.1,91.6c0,0-0.1,0-0.1,0c-4.3-0.1-5.7-5.5-5.7-5.5l-0.1-0.2l7.3-2.5l4.8,2.5l0,0.2
							C70.8,88.7,68.9,91.6,65.1,91.6z M59.8,86.2c0.3,1,1.7,4.8,5.1,4.9c4.3,0.1,5.5-3.7,5.8-4.9l-4.3-2.3L59.8,86.2z"/>
					</g>
				</g>
				<g>
					<g>
						<path class="st3" d="M71.1,86c0,0,1.3,5.2,5.4,5.3c4.1,0.1,5.7-3.3,6.1-5.3l-4.5-2.4L71.1,86z"/>
					</g>
					<g>
						<path class="st6" d="M76.6,91.6c0,0-0.1,0-0.1,0c-4.3-0.1-5.7-5.5-5.7-5.5l-0.1-0.2l7.3-2.5l4.8,2.5l0,0.2
							C82.3,88.7,80.4,91.6,76.6,91.6z M71.4,86.2c0.3,1,1.7,4.8,5.1,4.9c4.3,0.1,5.5-3.7,5.8-4.9L78,83.9L71.4,86.2z"/>
					</g>
				</g>
				<g>
					<g>
						<path class="st3" d="M82.6,86c0,0,1.3,5.2,5.4,5.3c4.1,0.1,5.7-3.3,6.1-5.3l-4.5-2.4L82.6,86z"/>
					</g>
					<g>
						<path class="st6" d="M88.2,91.6c0,0-0.1,0-0.1,0c-4.3-0.1-5.7-5.5-5.7-5.5l-0.1-0.2l7.3-2.5l4.8,2.5l0,0.2
							C93.8,88.7,91.9,91.6,88.2,91.6z M82.9,86.2c0.3,1,1.7,4.8,5.1,4.9c0,0,0.1,0,0.1,0c4.2,0,5.4-3.8,5.7-4.9l-4.3-2.3L82.9,86.2
							z"/>
					</g>
				</g>
			</g>
			<g>
				<g>
					<g>
						<path class="st3" d="M7.6,82.1c0,0,1.3,5.2,5.4,5.3s5.7-3.3,6.1-5.3l-4.5-2.4L7.6,82.1z"/>
					</g>
					<g>
						<path class="st6" d="M13.2,87.7c0,0-0.1,0-0.1,0c-4.3-0.1-5.7-5.5-5.7-5.5L7.3,82l7.3-2.5l4.8,2.5l0,0.2
							C18.9,84.9,17,87.7,13.2,87.7z M8,82.3c0.3,1,1.7,4.8,5.1,4.9c4.3,0.1,5.5-3.7,5.8-4.9L14.6,80L8,82.3z"/>
					</g>
				</g>
				<g>
					<g>
						<path class="st3" d="M19.2,82.1c0,0,1.3,5.2,5.4,5.3s5.7-3.3,6.1-5.3l-4.5-2.4L19.2,82.1z"/>
					</g>
					<g>
						<path class="st6" d="M24.8,87.7c0,0-0.1,0-0.1,0c-4.3-0.1-5.7-5.5-5.7-5.5L18.9,82l7.3-2.5L31,82l0,0.2
							C30.4,84.9,28.5,87.7,24.8,87.7z M19.5,82.3c0.3,1,1.7,4.8,5.1,4.9c0,0,0.1,0,0.1,0c4.2,0,5.4-3.8,5.7-4.9L26.1,80L19.5,82.3z
							"/>
					</g>
				</g>
				<g>
					<g>
						<path class="st3" d="M30.7,82.1c0,0,1.3,5.2,5.4,5.3s5.7-3.3,6.1-5.3l-4.5-2.4L30.7,82.1z"/>
					</g>
					<g>
						<path class="st6" d="M36.3,87.7c0,0-0.1,0-0.1,0c-4.3-0.1-5.7-5.5-5.7-5.5L30.4,82l7.3-2.5l4.8,2.5l0,0.2
							C41.9,84.9,40,87.7,36.3,87.7z M31,82.3c0.3,1,1.7,4.8,5.1,4.9c4.3,0.1,5.5-3.7,5.8-4.9L37.7,80L31,82.3z"/>
					</g>
				</g>
				<g>
					<g>
						<path class="st3" d="M42.2,82.1c0,0,1.3,5.2,5.4,5.3c4.1,0.1,5.7-3.3,6.1-5.3l-4.5-2.4L42.2,82.1z"/>
					</g>
					<g>
						<path class="st6" d="M47.8,87.7c0,0-0.1,0-0.1,0c-4.3-0.1-5.7-5.5-5.7-5.5L41.9,82l7.3-2.5L54,82l0,0.2
							C53.5,84.9,51.6,87.7,47.8,87.7z M42.5,82.3c0.3,1,1.7,4.8,5.1,4.9c4.3,0.1,5.5-3.7,5.8-4.9L49.2,80L42.5,82.3z"/>
					</g>
				</g>
				<g>
					<g>
						<path class="st3" d="M53.8,82.1c0,0,1.3,5.2,5.4,5.3c4.1,0.1,5.7-3.3,6.1-5.3l-4.5-2.4L53.8,82.1z"/>
					</g>
					<g>
						<path class="st6" d="M59.3,87.7c0,0-0.1,0-0.1,0c-4.3-0.1-5.7-5.5-5.7-5.5L53.5,82l7.3-2.5l4.8,2.5l0,0.2
							C65,84.9,63.1,87.7,59.3,87.7z M54.1,82.3c0.3,1,1.7,4.8,5.1,4.9c4.3,0.1,5.5-3.7,5.8-4.9L60.7,80L54.1,82.3z"/>
					</g>
				</g>
				<g>
					<g>
						<path class="st3" d="M65.3,82.1c0,0,1.3,5.2,5.4,5.3c4.1,0.1,5.7-3.3,6.1-5.3l-4.5-2.4L65.3,82.1z"/>
					</g>
					<g>
						<path class="st6" d="M70.9,87.7c0,0-0.1,0-0.1,0c-4.3-0.1-5.7-5.5-5.7-5.5L65,82l7.3-2.5l4.8,2.5l0,0.2
							C76.5,84.9,74.6,87.7,70.9,87.7z M65.6,82.3c0.3,1,1.7,4.8,5.1,4.9c4.3,0.1,5.5-3.7,5.8-4.9L72.3,80L65.6,82.3z"/>
					</g>
				</g>
				<g>
					<g>
						<path class="st3" d="M76.8,82.1c0,0,1.3,5.2,5.4,5.3c4.1,0.1,5.7-3.3,6.1-5.3l-4.5-2.4L76.8,82.1z"/>
					</g>
					<g>
						<path class="st6" d="M82.4,87.7c0,0-0.1,0-0.1,0c-4.3-0.1-5.7-5.5-5.7-5.5L76.5,82l7.3-2.5l4.8,2.5l0,0.2
							C88.1,84.9,86.1,87.7,82.4,87.7z M77.1,82.3c0.3,1,1.7,4.8,5.1,4.9c0,0,0.1,0,0.1,0c4.2,0,5.4-3.8,5.7-4.9L83.8,80L77.1,82.3z
							"/>
					</g>
				</g>
				<g>
					<g>
						<path class="st3" d="M88.4,82.1c0,0,1.3,5.2,5.4,5.3c4.1,0.1,5.7-3.3,6.1-5.3l-4.5-2.4L88.4,82.1z"/>
					</g>
					<g>
						<path class="st6" d="M93.9,87.7c0,0-0.1,0-0.1,0c-4.3-0.1-5.7-5.5-5.7-5.5L88.1,82l7.3-2.5l4.8,2.5l0,0.2
							C99.6,84.9,97.7,87.7,93.9,87.7z M88.7,82.3c0.3,1,1.7,4.8,5.1,4.9c0,0,0.1,0,0.1,0c4.2,0,5.4-3.8,5.7-4.9L95.3,80L88.7,82.3z
							"/>
					</g>
				</g>
			</g>
			<g>
				<g>
					<g>
						<path class="st3" d="M1.9,78.3c0,0,1.3,5.2,5.4,5.3c4.1,0.1,5.7-3.3,6.1-5.3l-4.5-2.4L1.9,78.3z"/>
					</g>
					<g>
						<path class="st6" d="M7.5,83.9c0,0-0.1,0-0.1,0c-4.3-0.1-5.7-5.5-5.7-5.5l-0.1-0.2l7.3-2.5l4.8,2.5l0,0.2
							C13.1,81,11.2,83.9,7.5,83.9z M2.2,78.5c0.3,1,1.7,4.8,5.1,4.9c4.3,0.1,5.5-3.7,5.8-4.9l-4.3-2.3L2.2,78.5z"/>
					</g>
				</g>
				<g>
					<g>
						<path class="st3" d="M13.4,78.3c0,0,1.3,5.2,5.4,5.3c4.1,0.1,5.7-3.3,6.1-5.3l-4.5-2.4L13.4,78.3z"/>
					</g>
					<g>
						<path class="st6" d="M19,83.9c0,0-0.1,0-0.1,0c-4.3-0.1-5.7-5.5-5.7-5.5l-0.1-0.2l7.3-2.5l4.8,2.5l0,0.2
							C24.6,81,22.7,83.9,19,83.9z M13.7,78.5c0.3,1,1.7,4.8,5.1,4.9c4.3,0.1,5.5-3.7,5.8-4.9l-4.3-2.3L13.7,78.5z"/>
					</g>
				</g>
				<g>
					<g>
						<path class="st3" d="M24.9,78.3c0,0,1.3,5.2,5.4,5.3c4.1,0.1,5.7-3.3,6.1-5.3l-4.5-2.4L24.9,78.3z"/>
					</g>
					<g>
						<path class="st6" d="M30.5,83.9c0,0-0.1,0-0.1,0c-4.3-0.1-5.7-5.5-5.7-5.5l-0.1-0.2l7.3-2.5l4.8,2.5l0,0.2
							C36.2,81,34.3,83.9,30.5,83.9z M25.2,78.5c0.3,1,1.7,4.8,5.1,4.9c4.3,0.1,5.5-3.7,5.8-4.9l-4.3-2.3L25.2,78.5z"/>
					</g>
				</g>
				<g>
					<g>
						<path class="st3" d="M36.5,78.3c0,0,1.3,5.2,5.4,5.3c4.1,0.1,5.7-3.3,6.1-5.3l-4.5-2.4L36.5,78.3z"/>
					</g>
					<g>
						<path class="st6" d="M42,83.9c0,0-0.1,0-0.1,0c-4.3-0.1-5.7-5.5-5.7-5.5l-0.1-0.2l7.3-2.5l4.8,2.5l0,0.2
							C47.7,81,45.8,83.9,42,83.9z M36.8,78.5c0.3,1,1.7,4.8,5.1,4.9c0,0,0.1,0,0.1,0c4.2,0,5.4-3.8,5.7-4.9l-4.3-2.3L36.8,78.5z"/>
					</g>
				</g>
				<g>
					<g>
						<path class="st3" d="M48,78.3c0,0,1.3,5.2,5.4,5.3c4.1,0.1,5.7-3.3,6.1-5.3L55,75.9L48,78.3z"/>
					</g>
					<g>
						<path class="st6" d="M53.6,83.9c0,0-0.1,0-0.1,0c-4.3-0.1-5.7-5.5-5.7-5.5l-0.1-0.2l7.3-2.5l4.8,2.5l0,0.2
							C59.2,81,57.3,83.9,53.6,83.9z M48.3,78.5c0.3,1,1.7,4.8,5.1,4.9c4.3,0.1,5.5-3.7,5.8-4.9L55,76.2L48.3,78.5z"/>
					</g>
				</g>
				<g>
					<g>
						<path class="st3" d="M59.5,78.3c0,0,1.3,5.2,5.4,5.3c4.1,0.1,5.7-3.3,6.1-5.3l-4.5-2.4L59.5,78.3z"/>
					</g>
					<g>
						<path class="st6" d="M65.1,83.9c0,0-0.1,0-0.1,0c-4.3-0.1-5.7-5.5-5.7-5.5l-0.1-0.2l7.3-2.5l4.8,2.5l0,0.2
							C70.8,81,68.9,83.9,65.1,83.9z M59.8,78.5c0.3,1,1.7,4.8,5.1,4.9c4.3,0.1,5.5-3.7,5.8-4.9l-4.3-2.3L59.8,78.5z"/>
					</g>
				</g>
				<g>
					<g>
						<path class="st3" d="M71.1,78.3c0,0,1.3,5.2,5.4,5.3c4.1,0.1,5.7-3.3,6.1-5.3l-4.5-2.4L71.1,78.3z"/>
					</g>
					<g>
						<path class="st6" d="M76.6,83.9c0,0-0.1,0-0.1,0c-4.3-0.1-5.7-5.5-5.7-5.5l-0.1-0.2l7.3-2.5l4.8,2.5l0,0.2
							C82.3,81,80.4,83.9,76.6,83.9z M71.4,78.5c0.3,1,1.7,4.8,5.1,4.9c4.3,0.1,5.5-3.7,5.8-4.9L78,76.2L71.4,78.5z"/>
					</g>
				</g>
				<g>
					<g>
						<path class="st3" d="M82.6,78.3c0,0,1.3,5.2,5.4,5.3c4.1,0.1,5.7-3.3,6.1-5.3l-4.5-2.4L82.6,78.3z"/>
					</g>
					<g>
						<path class="st6" d="M88.2,83.9c0,0-0.1,0-0.1,0c-4.3-0.1-5.7-5.5-5.7-5.5l-0.1-0.2l7.3-2.5l4.8,2.5l0,0.2
							C93.8,81,91.9,83.9,88.2,83.9z M82.9,78.5c0.3,1,1.7,4.8,5.1,4.9c0,0,0.1,0,0.1,0c4.2,0,5.4-3.8,5.7-4.9l-4.3-2.3L82.9,78.5z"
							/>
					</g>
				</g>
			</g>
			<g>
				<g>
					<g>
						<path class="st3" d="M7.6,74.4c0,0,1.3,5.2,5.4,5.3c4.1,0.1,5.7-3.3,6.1-5.3l-4.5-2.4L7.6,74.4z"/>
					</g>
					<g>
						<path class="st6" d="M13.2,80c0,0-0.1,0-0.1,0c-4.3-0.1-5.7-5.5-5.7-5.5l-0.1-0.2l7.3-2.5l4.8,2.5l0,0.2
							C18.9,77.2,17,80,13.2,80z M8,74.6c0.3,1,1.7,4.8,5.1,4.9c4.3,0.1,5.5-3.7,5.8-4.9l-4.3-2.3L8,74.6z"/>
					</g>
				</g>
				<g>
					<g>
						<path class="st3" d="M19.2,74.4c0,0,1.3,5.2,5.4,5.3c4.1,0.1,5.7-3.3,6.1-5.3l-4.5-2.4L19.2,74.4z"/>
					</g>
					<g>
						<path class="st6" d="M24.8,80c0,0-0.1,0-0.1,0c-4.3-0.1-5.7-5.5-5.7-5.5l-0.1-0.2l7.3-2.5l4.8,2.5l0,0.2
							C30.4,77.2,28.5,80,24.8,80z M19.5,74.6c0.3,1,1.7,4.8,5.1,4.9c0,0,0.1,0,0.1,0c4.2,0,5.4-3.8,5.7-4.9l-4.3-2.3L19.5,74.6z"/>
					</g>
				</g>
				<g>
					<g>
						<path class="st3" d="M30.7,74.4c0,0,1.3,5.2,5.4,5.3c4.1,0.1,5.7-3.3,6.1-5.3l-4.5-2.4L30.7,74.4z"/>
					</g>
					<g>
						<path class="st6" d="M36.3,80c0,0-0.1,0-0.1,0c-4.3-0.1-5.7-5.5-5.7-5.5l-0.1-0.2l7.3-2.5l4.8,2.5l0,0.2
							C41.9,77.2,40,80,36.3,80z M31,74.6c0.3,1,1.7,4.8,5.1,4.9c4.3,0.1,5.5-3.7,5.8-4.9l-4.3-2.3L31,74.6z"/>
					</g>
				</g>
				<g>
					<g>
						<path class="st3" d="M42.2,74.4c0,0,1.3,5.2,5.4,5.3c4.1,0.1,5.7-3.3,6.1-5.3l-4.5-2.4L42.2,74.4z"/>
					</g>
					<g>
						<path class="st6" d="M47.8,80c0,0-0.1,0-0.1,0c-4.3-0.1-5.7-5.5-5.7-5.5l-0.1-0.2l7.3-2.5l4.8,2.5l0,0.2
							C53.5,77.2,51.6,80,47.8,80z M42.5,74.6c0.3,1,1.7,4.8,5.1,4.9c4.3,0.1,5.5-3.7,5.8-4.9l-4.3-2.3L42.5,74.6z"/>
					</g>
				</g>
				<g>
					<g>
						<path class="st3" d="M53.8,74.4c0,0,1.3,5.2,5.4,5.3c4.1,0.1,5.7-3.3,6.1-5.3l-4.5-2.4L53.8,74.4z"/>
					</g>
					<g>
						<path class="st6" d="M59.3,80c0,0-0.1,0-0.1,0c-4.3-0.1-5.7-5.5-5.7-5.5l-0.1-0.2l7.3-2.5l4.8,2.5l0,0.2
							C65,77.2,63.1,80,59.3,80z M54.1,74.6c0.3,1,1.7,4.8,5.1,4.9c4.3,0.1,5.5-3.7,5.8-4.9l-4.3-2.3L54.1,74.6z"/>
					</g>
				</g>
				<g>
					<g>
						<path class="st3" d="M65.3,74.4c0,0,1.3,5.2,5.4,5.3c4.1,0.1,5.7-3.3,6.1-5.3l-4.5-2.4L65.3,74.4z"/>
					</g>
					<g>
						<path class="st6" d="M70.9,80c0,0-0.1,0-0.1,0c-4.3-0.1-5.7-5.5-5.7-5.5L65,74.3l7.3-2.5l4.8,2.5l0,0.2
							C76.5,77.2,74.6,80,70.9,80z M65.6,74.6c0.3,1,1.7,4.8,5.1,4.9c4.3,0.1,5.5-3.7,5.8-4.9l-4.3-2.3L65.6,74.6z"/>
					</g>
				</g>
				<g>
					<g>
						<path class="st3" d="M76.8,74.4c0,0,1.3,5.2,5.4,5.3c4.1,0.1,5.7-3.3,6.1-5.3l-4.5-2.4L76.8,74.4z"/>
					</g>
					<g>
						<path class="st6" d="M82.4,80c0,0-0.1,0-0.1,0c-4.3-0.1-5.7-5.5-5.7-5.5l-0.1-0.2l7.3-2.5l4.8,2.5l0,0.2
							C88.1,77.2,86.1,80,82.4,80z M77.1,74.6c0.3,1,1.7,4.8,5.1,4.9c0,0,0.1,0,0.1,0c4.2,0,5.4-3.8,5.7-4.9l-4.3-2.3L77.1,74.6z"/>
					</g>
				</g>
				<g>
					<g>
						<path class="st3" d="M88.4,74.4c0,0,1.3,5.2,5.4,5.3c4.1,0.1,5.7-3.3,6.1-5.3l-4.5-2.4L88.4,74.4z"/>
					</g>
					<g>
						<path class="st6" d="M93.9,80c0,0-0.1,0-0.1,0c-4.3-0.1-5.7-5.5-5.7-5.5l-0.1-0.2l7.3-2.5l4.8,2.5l0,0.2
							C99.6,77.2,97.7,80,93.9,80z M88.7,74.6c0.3,1,1.7,4.8,5.1,4.9c0,0,0.1,0,0.1,0c4.2,0,5.4-3.8,5.7-4.9l-4.3-2.3L88.7,74.6z"/>
					</g>
				</g>
			</g>
			<g>
				<g>
					<g>
						<path class="st3" d="M1.9,70.6c0,0,1.3,5.2,5.4,5.3c4.1,0.1,5.7-3.3,6.1-5.3l-4.5-2.4L1.9,70.6z"/>
					</g>
					<g>
						<path class="st6" d="M7.5,76.2c0,0-0.1,0-0.1,0c-4.3-0.1-5.7-5.5-5.7-5.5l-0.1-0.2l7.3-2.5l4.8,2.5l0,0.2
							C13.1,73.3,11.2,76.2,7.5,76.2z M2.2,70.8c0.3,1,1.7,4.8,5.1,4.9c4.3,0.1,5.5-3.7,5.8-4.9l-4.3-2.3L2.2,70.8z"/>
					</g>
				</g>
				<g>
					<g>
						<path class="st3" d="M13.4,70.6c0,0,1.3,5.2,5.4,5.3c4.1,0.1,5.7-3.3,6.1-5.3l-4.5-2.4L13.4,70.6z"/>
					</g>
					<g>
						<path class="st6" d="M19,76.2c0,0-0.1,0-0.1,0c-4.3-0.1-5.7-5.5-5.7-5.5l-0.1-0.2l7.3-2.5l4.8,2.5l0,0.2
							C24.6,73.3,22.7,76.2,19,76.2z M13.7,70.8c0.3,1,1.7,4.8,5.1,4.9c4.3,0.1,5.5-3.7,5.8-4.9l-4.3-2.3L13.7,70.8z"/>
					</g>
				</g>
				<g>
					<g>
						<path class="st3" d="M24.9,70.6c0,0,1.3,5.2,5.4,5.3c4.1,0.1,5.7-3.3,6.1-5.3l-4.5-2.4L24.9,70.6z"/>
					</g>
					<g>
						<path class="st6" d="M30.5,76.2c0,0-0.1,0-0.1,0c-4.3-0.1-5.7-5.5-5.7-5.5l-0.1-0.2l7.3-2.5l4.8,2.5l0,0.2
							C36.2,73.3,34.3,76.2,30.5,76.2z M25.2,70.8c0.3,1,1.7,4.8,5.1,4.9c4.3,0.1,5.5-3.7,5.8-4.9l-4.3-2.3L25.2,70.8z"/>
					</g>
				</g>
				<g>
					<g>
						<path class="st3" d="M36.5,70.6c0,0,1.3,5.2,5.4,5.3c4.1,0.1,5.7-3.3,6.1-5.3l-4.5-2.4L36.5,70.6z"/>
					</g>
					<g>
						<path class="st6" d="M42,76.2c0,0-0.1,0-0.1,0c-4.3-0.1-5.7-5.5-5.7-5.5l-0.1-0.2l7.3-2.5l4.8,2.5l0,0.2
							C47.7,73.3,45.8,76.2,42,76.2z M36.8,70.8c0.3,1,1.7,4.8,5.1,4.9c4.3,0.1,5.5-3.7,5.8-4.9l-4.3-2.3L36.8,70.8z"/>
					</g>
				</g>
				<g>
					<g>
						<path class="st3" d="M48,70.6c0,0,1.3,5.2,5.4,5.3c4.1,0.1,5.7-3.3,6.1-5.3L55,68.2L48,70.6z"/>
					</g>
					<g>
						<path class="st6" d="M53.6,76.2c0,0-0.1,0-0.1,0c-4.3-0.1-5.7-5.5-5.7-5.5l-0.1-0.2l7.3-2.5l4.8,2.5l0,0.2
							C59.2,73.3,57.3,76.2,53.6,76.2z M48.3,70.8c0.3,1,1.7,4.8,5.1,4.9c4.3,0.1,5.5-3.7,5.8-4.9L55,68.5L48.3,70.8z"/>
					</g>
				</g>
				<g>
					<g>
						<path class="st3" d="M59.5,70.6c0,0,1.3,5.2,5.4,5.3c4.1,0.1,5.7-3.3,6.1-5.3l-4.5-2.4L59.5,70.6z"/>
					</g>
					<g>
						<path class="st6" d="M65.1,76.2c0,0-0.1,0-0.1,0c-4.3-0.1-5.7-5.5-5.7-5.5l-0.1-0.2l7.3-2.5l4.8,2.5l0,0.2
							C70.8,73.3,68.9,76.2,65.1,76.2z M59.8,70.8c0.3,1,1.7,4.8,5.1,4.9c4.3,0.1,5.5-3.7,5.8-4.9l-4.3-2.3L59.8,70.8z"/>
					</g>
				</g>
				<g>
					<g>
						<path class="st3" d="M71.1,70.6c0,0,1.3,5.2,5.4,5.3c4.1,0.1,5.7-3.3,6.1-5.3l-4.5-2.4L71.1,70.6z"/>
					</g>
					<g>
						<path class="st6" d="M76.6,76.2c0,0-0.1,0-0.1,0c-4.3-0.1-5.7-5.5-5.7-5.5l-0.1-0.2l7.3-2.5l4.8,2.5l0,0.2
							C82.3,73.3,80.4,76.2,76.6,76.2z M71.4,70.8c0.3,1,1.7,4.8,5.1,4.9c4.3,0.1,5.5-3.7,5.8-4.9L78,68.5L71.4,70.8z"/>
					</g>
				</g>
				<g>
					<g>
						<path class="st3" d="M82.6,70.6c0,0,1.3,5.2,5.4,5.3c4.1,0.1,5.7-3.3,6.1-5.3l-4.5-2.4L82.6,70.6z"/>
					</g>
					<g>
						<path class="st6" d="M88.2,76.2c0,0-0.1,0-0.1,0c-4.3-0.1-5.7-5.5-5.7-5.5l-0.1-0.2l7.3-2.5l4.8,2.5l0,0.2
							C93.8,73.3,91.9,76.2,88.2,76.2z M82.9,70.8c0.3,1,1.7,4.8,5.1,4.9c4.3,0.1,5.5-3.7,5.8-4.9l-4.3-2.3L82.9,70.8z"/>
					</g>
				</g>
			</g>
			<g>
				<g>
					<g>
						<path class="st3" d="M7.6,66.7c0,0,1.3,5.2,5.4,5.3c4.1,0.1,5.7-3.3,6.1-5.3l-4.5-2.4L7.6,66.7z"/>
					</g>
					<g>
						<path class="st6" d="M13.2,72.3c0,0-0.1,0-0.1,0c-4.3-0.1-5.7-5.5-5.7-5.5l-0.1-0.2l7.3-2.5l4.8,2.6l0,0.2
							C18.9,69.5,17,72.3,13.2,72.3z M8,66.9c0.3,1,1.7,4.8,5.1,4.9c4.3,0.1,5.5-3.7,5.8-4.9l-4.3-2.3L8,66.9z"/>
					</g>
				</g>
				<g>
					<g>
						<path class="st3" d="M19.2,66.7c0,0,1.3,5.2,5.4,5.3c4.1,0.1,5.7-3.3,6.1-5.3l-4.5-2.4L19.2,66.7z"/>
					</g>
					<g>
						<path class="st6" d="M24.8,72.3c0,0-0.1,0-0.1,0c-4.3-0.1-5.7-5.5-5.7-5.5l-0.1-0.2l7.3-2.5l4.8,2.6l0,0.2
							C30.4,69.5,28.5,72.3,24.8,72.3z M19.5,66.9c0.3,1,1.7,4.8,5.1,4.9c0,0,0.1,0,0.1,0c4.2,0,5.4-3.8,5.7-4.9l-4.3-2.3L19.5,66.9
							z"/>
					</g>
				</g>
				<g>
					<g>
						<path class="st3" d="M30.7,66.7c0,0,1.3,5.2,5.4,5.3c4.1,0.1,5.7-3.3,6.1-5.3l-4.5-2.4L30.7,66.7z"/>
					</g>
					<g>
						<path class="st6" d="M36.3,72.3c0,0-0.1,0-0.1,0c-4.3-0.1-5.7-5.5-5.7-5.5l-0.1-0.2l7.3-2.5l4.8,2.6l0,0.2
							C41.9,69.5,40,72.3,36.3,72.3z M31,66.9c0.3,1,1.7,4.8,5.1,4.9c4.3,0.1,5.5-3.7,5.8-4.9l-4.3-2.3L31,66.9z"/>
					</g>
				</g>
				<g>
					<g>
						<path class="st3" d="M42.2,66.7c0,0,1.3,5.2,5.4,5.3c4.1,0.1,5.7-3.3,6.1-5.3l-4.5-2.4L42.2,66.7z"/>
					</g>
					<g>
						<path class="st6" d="M47.8,72.3c0,0-0.1,0-0.1,0c-4.3-0.1-5.7-5.5-5.7-5.5l-0.1-0.2l7.3-2.5l4.8,2.6l0,0.2
							C53.5,69.5,51.6,72.3,47.8,72.3z M42.5,66.9c0.3,1,1.7,4.8,5.1,4.9c4.3,0.1,5.5-3.7,5.8-4.9l-4.3-2.3L42.5,66.9z"/>
					</g>
				</g>
				<g>
					<g>
						<path class="st3" d="M53.8,66.7c0,0,1.3,5.2,5.4,5.3c4.1,0.1,5.7-3.3,6.1-5.3l-4.5-2.4L53.8,66.7z"/>
					</g>
					<g>
						<path class="st6" d="M59.3,72.3c0,0-0.1,0-0.1,0c-4.3-0.1-5.7-5.5-5.7-5.5l-0.1-0.2l7.3-2.5l4.8,2.6l0,0.2
							C65,69.5,63.1,72.3,59.3,72.3z M54.1,66.9c0.3,1,1.7,4.8,5.1,4.9c4.3,0.1,5.5-3.7,5.8-4.9l-4.3-2.3L54.1,66.9z"/>
					</g>
				</g>
				<g>
					<g>
						<path class="st3" d="M65.3,66.7c0,0,1.3,5.2,5.4,5.3c4.1,0.1,5.7-3.3,6.1-5.3l-4.5-2.4L65.3,66.7z"/>
					</g>
					<g>
						<path class="st6" d="M70.9,72.3c0,0-0.1,0-0.1,0c-4.3-0.1-5.7-5.5-5.7-5.5L65,66.6l7.3-2.5l4.8,2.6l0,0.2
							C76.5,69.5,74.6,72.3,70.9,72.3z M65.6,66.9c0.3,1,1.7,4.8,5.1,4.9c4.3,0.1,5.5-3.7,5.8-4.9l-4.3-2.3L65.6,66.9z"/>
					</g>
				</g>
				<g>
					<g>
						<path class="st3" d="M76.8,66.7c0,0,1.3,5.2,5.4,5.3c4.1,0.1,5.7-3.3,6.1-5.3l-4.5-2.4L76.8,66.7z"/>
					</g>
					<g>
						<path class="st6" d="M82.4,72.3c0,0-0.1,0-0.1,0c-4.3-0.1-5.7-5.5-5.7-5.5l-0.1-0.2l7.3-2.5l4.8,2.6l0,0.2
							C88.1,69.5,86.1,72.3,82.4,72.3z M77.1,66.9c0.3,1,1.7,4.8,5.1,4.9c0,0,0.1,0,0.1,0c4.2,0,5.4-3.8,5.7-4.9l-4.3-2.3L77.1,66.9
							z"/>
					</g>
				</g>
				<g>
					<g>
						<path class="st3" d="M88.4,66.7c0,0,1.3,5.2,5.4,5.3c4.1,0.1,5.7-3.3,6.1-5.3l-4.5-2.4L88.4,66.7z"/>
					</g>
					<g>
						<path class="st6" d="M93.9,72.3c0,0-0.1,0-0.1,0c-4.3-0.1-5.7-5.5-5.7-5.5l-0.1-0.2l7.3-2.5l4.8,2.6l0,0.2
							C99.6,69.5,97.7,72.3,93.9,72.3z M88.7,66.9c0.3,1,1.7,4.8,5.1,4.9c0,0,0.1,0,0.1,0c4.2,0,5.4-3.8,5.7-4.9l-4.3-2.3L88.7,66.9
							z"/>
					</g>
				</g>
			</g>
			<g>
				<g>
					<g>
						<path class="st3" d="M1.9,64c0,0,1.3,5.2,5.4,5.3c4.1,0.1,5.7-3.3,6.1-5.3l-4.5-2.4L1.9,64z"/>
					</g>
					<g>
						<path class="st6" d="M7.5,69.5c0,0-0.1,0-0.1,0C3,69.5,1.6,64.1,1.6,64l-0.1-0.2l7.3-2.5l4.8,2.5l0,0.2
							C13.1,66.7,11.2,69.5,7.5,69.5z M2.2,64.1c0.3,1,1.7,4.8,5.1,4.9c4.3,0.1,5.5-3.7,5.8-4.9l-4.3-2.3L2.2,64.1z"/>
					</g>
				</g>
				<g>
					<g>
						<path class="st3" d="M13.4,64c0,0,1.3,5.2,5.4,5.3c4.1,0.1,5.7-3.3,6.1-5.3l-4.5-2.4L13.4,64z"/>
					</g>
					<g>
						<path class="st6" d="M19,69.5c0,0-0.1,0-0.1,0c-4.3-0.1-5.7-5.5-5.7-5.5l-0.1-0.2l7.3-2.5l4.8,2.5l0,0.2
							C24.6,66.7,22.7,69.5,19,69.5z M13.7,64.1c0.3,1,1.7,4.8,5.1,4.9c0,0,0.1,0,0.1,0c4.2,0,5.4-3.8,5.7-4.9l-4.3-2.3L13.7,64.1z"
							/>
					</g>
				</g>
				<g>
					<g>
						<path class="st3" d="M24.9,64c0,0,1.3,5.2,5.4,5.3c4.1,0.1,5.7-3.3,6.1-5.3l-4.5-2.4L24.9,64z"/>
					</g>
					<g>
						<path class="st6" d="M30.5,69.5c0,0-0.1,0-0.1,0c-4.3-0.1-5.7-5.5-5.7-5.5l-0.1-0.2l7.3-2.5l4.8,2.5l0,0.2
							C36.2,66.7,34.3,69.5,30.5,69.5z M25.2,64.1c0.3,1,1.7,4.8,5.1,4.9c4.3,0.1,5.5-3.7,5.8-4.9l-4.3-2.3L25.2,64.1z"/>
					</g>
				</g>
				<g>
					<g>
						<path class="st3" d="M36.5,64c0,0,1.3,5.2,5.4,5.3C46,69.4,47.6,66,48,64l-4.5-2.4L36.5,64z"/>
					</g>
					<g>
						<path class="st6" d="M42,69.5c0,0-0.1,0-0.1,0c-4.3-0.1-5.7-5.5-5.7-5.5l-0.1-0.2l7.3-2.5l4.8,2.5l0,0.2
							C47.7,66.7,45.8,69.5,42,69.5z M36.8,64.1c0.3,1,1.7,4.8,5.1,4.9c0,0,0.1,0,0.1,0c4.2,0,5.4-3.8,5.7-4.9l-4.3-2.3L36.8,64.1z"
							/>
					</g>
				</g>
				<g>
					<g>
						<path class="st3" d="M48,64c0,0,1.3,5.2,5.4,5.3c4.1,0.1,5.7-3.3,6.1-5.3L55,61.6L48,64z"/>
					</g>
					<g>
						<path class="st6" d="M53.6,69.5c0,0-0.1,0-0.1,0c-4.3-0.1-5.7-5.5-5.7-5.5l-0.1-0.2l7.3-2.5l4.8,2.5l0,0.2
							C59.2,66.7,57.3,69.5,53.6,69.5z M48.3,64.1c0.3,1,1.7,4.8,5.1,4.9c0,0,0.1,0,0.1,0c4.2,0,5.4-3.8,5.7-4.9L55,61.9L48.3,64.1z
							"/>
					</g>
				</g>
				<g>
					<g>
						<path class="st3" d="M59.5,64c0,0,1.3,5.2,5.4,5.3c4.1,0.1,5.7-3.3,6.1-5.3l-4.5-2.4L59.5,64z"/>
					</g>
					<g>
						<path class="st6" d="M65.1,69.5c0,0-0.1,0-0.1,0c-4.3-0.1-5.7-5.5-5.7-5.5l-0.1-0.2l7.3-2.5l4.8,2.5l0,0.2
							C70.8,66.7,68.9,69.5,65.1,69.5z M59.8,64.1c0.3,1,1.7,4.8,5.1,4.9c4.3,0.1,5.5-3.7,5.8-4.9l-4.3-2.3L59.8,64.1z"/>
					</g>
				</g>
				<g>
					<g>
						<path class="st3" d="M71.1,64c0,0,1.3,5.2,5.4,5.3c4.1,0.1,5.7-3.3,6.1-5.3l-4.5-2.4L71.1,64z"/>
					</g>
					<g>
						<path class="st6" d="M76.6,69.5c0,0-0.1,0-0.1,0c-4.3-0.1-5.7-5.5-5.7-5.5l-0.1-0.2l7.3-2.5l4.8,2.5l0,0.2
							C82.3,66.7,80.4,69.5,76.6,69.5z M71.4,64.1c0.3,1,1.7,4.8,5.1,4.9c4.3,0.1,5.5-3.7,5.8-4.9L78,61.9L71.4,64.1z"/>
					</g>
				</g>
				<g>
					<g>
						<path class="st3" d="M82.6,64c0,0,1.3,5.2,5.4,5.3c4.1,0.1,5.7-3.3,6.1-5.3l-4.5-2.4L82.6,64z"/>
					</g>
					<g>
						<path class="st6" d="M88.2,69.5c0,0-0.1,0-0.1,0c-4.3-0.1-5.7-5.5-5.7-5.5l-0.1-0.2l7.3-2.5l4.8,2.5l0,0.2
							C93.8,66.7,91.9,69.5,88.2,69.5z M82.9,64.1c0.3,1,1.7,4.8,5.1,4.9c4.3,0.1,5.5-3.7,5.8-4.9l-4.3-2.3L82.9,64.1z"/>
					</g>
				</g>
			</g>
		</g>
	</g>
	<rect x="2.4" y="107.3" class="st7" width="95.8" height="3"/>
	<rect x="5.7" y="144.4" class="st8" width="89.2" height="4.6"/>
	<g>
		<g>
			<g>
				<rect x="9.4" y="110.3" class="st8" width="2.6" height="33.5"/>
				<path class="st8" d="M13.9,112.2H7.5c-0.2,0-0.4-0.2-0.4-0.4v-1.2c0-0.2,0.2-0.4,0.4-0.4h6.4c0.2,0,0.4,0.2,0.4,0.4v1.2
					C14.2,112.1,14.1,112.2,13.9,112.2z"/>
				<path class="st8" d="M13.9,144.4H7.5c-0.2,0-0.4-0.2-0.4-0.4v-1.2c0-0.2,0.2-0.4,0.4-0.4h6.4c0.2,0,0.4,0.2,0.4,0.4v1.2
					C14.2,144.2,14.1,144.4,13.9,144.4z"/>
			</g>
			<g>
				<rect x="24.8" y="110.3" class="st8" width="2.6" height="33.5"/>
				<path class="st8" d="M29.3,112.2H23c-0.2,0-0.4-0.2-0.4-0.4v-1.2c0-0.2,0.2-0.4,0.4-0.4h6.4c0.2,0,0.4,0.2,0.4,0.4v1.2
					C29.7,112.1,29.5,112.2,29.3,112.2z"/>
				<path class="st8" d="M29.3,144.4H23c-0.2,0-0.4-0.2-0.4-0.4v-1.2c0-0.2,0.2-0.4,0.4-0.4h6.4c0.2,0,0.4,0.2,0.4,0.4v1.2
					C29.7,144.2,29.5,144.4,29.3,144.4z"/>
			</g>
		</g>
		<rect x="12" y="128.6" class="st8" width="13.7" height="1.9"/>
		<g>
			<rect x="14.9" y="130.1" class="st8" width="1.9" height="15.5"/>
			<rect x="20" y="130.1" class="st8" width="1.9" height="15.5"/>
		</g>
	</g>
	<g>
		<g>
			<g>
				<rect x="74.6" y="110.3" class="st8" width="2.6" height="33.5"/>
				<path class="st8" d="M79.1,112.2h-6.4c-0.2,0-0.4-0.2-0.4-0.4v-1.2c0-0.2,0.2-0.4,0.4-0.4h6.4c0.2,0,0.4,0.2,0.4,0.4v1.2
					C79.4,112.1,79.3,112.2,79.1,112.2z"/>
				<path class="st8" d="M79.1,144.4h-6.4c-0.2,0-0.4-0.2-0.4-0.4v-1.2c0-0.2,0.2-0.4,0.4-0.4h6.4c0.2,0,0.4,0.2,0.4,0.4v1.2
					C79.4,144.2,79.3,144.4,79.1,144.4z"/>
			</g>
			<g>
				<rect x="90.1" y="110.3" class="st8" width="2.6" height="33.5"/>
				<path class="st8" d="M94.5,112.2h-6.4c-0.2,0-0.4-0.2-0.4-0.4v-1.2c0-0.2,0.2-0.4,0.4-0.4h6.4c0.2,0,0.4,0.2,0.4,0.4v1.2
					C94.9,112.1,94.7,112.2,94.5,112.2z"/>
				<path class="st8" d="M94.5,144.4h-6.4c-0.2,0-0.4-0.2-0.4-0.4v-1.2c0-0.2,0.2-0.4,0.4-0.4h6.4c0.2,0,0.4,0.2,0.4,0.4v1.2
					C94.9,144.2,94.7,144.4,94.5,144.4z"/>
			</g>
		</g>
		<rect x="77.2" y="128.6" class="st8" width="13.7" height="1.9"/>
		<g>
			<rect x="80.1" y="130.1" class="st8" width="1.9" height="15.5"/>
			<rect x="85.2" y="130.1" class="st8" width="1.9" height="15.5"/>
		</g>
	</g>
	<g>
		<rect x="39.9" y="114.7" class="st9" width="20.8" height="29.7"/>
	</g>
	<g>
		<rect x="41.5" y="117" class="st10" width="17.3" height="25.4"/>
	</g>
	<g>
		<rect x="15.6" y="40" class="st11" width="8.7" height="4.6"/>
	</g>
	<g>
		<rect x="20" y="46.6" class="st11" width="8.7" height="4.6"/>
	</g>
	<g>
		<rect x="76.7" y="78.3" class="st11" width="8.7" height="4.6"/>
	</g>
	<g>
		<rect x="60.7" y="49.4" class="st11" width="8.7" height="4.6"/>
	</g>
	<g>
		<g>
			<circle class="st12" cx="50" cy="25.9" r="6.5"/>
		</g>
		<g>
			<g>
				<path class="st13" d="M50,33.4c-4.1,0-7.5-3.4-7.5-7.5s3.4-7.5,7.5-7.5c4.1,0,7.5,3.4,7.5,7.5S54.2,33.4,50,33.4z M50,20.2
					c-3.1,0-5.7,2.5-5.7,5.7c0,3.1,2.5,5.7,5.7,5.7c3.1,0,5.7-2.5,5.7-5.7C55.7,22.8,53.2,20.2,50,20.2z"/>
			</g>
		</g>
		<g>
			<rect x="49.2" y="19.6" class="st13" width="1.7" height="12.5"/>
		</g>
		<g>
			
				<rect x="49.2" y="19.6" transform="matrix(-1.836970e-16 1 -1 -1.836970e-16 75.9159 -24.1532)" class="st13" width="1.7" height="12.5"/>
		</g>
	</g>
	<g>
		<g>
			<path class="st14" d="M47.7,123.6C47.6,123.6,47.6,123.6,47.7,123.6c-0.1-0.1-0.1-0.1-0.1-0.1l2.1-2c0,0,0.1,0,0.1,0
				c0,0,0,0.1,0,0.1L47.7,123.6C47.7,123.6,47.7,123.6,47.7,123.6z"/>
		</g>
		<g>
			<path class="st14" d="M51.2,124.3C51.1,124.3,51.1,124.3,51.2,124.3c-0.1-0.1-0.1-0.1-0.1-0.1l2.1-2c0,0,0.1,0,0.1,0
				c0,0,0,0.1,0,0.1L51.2,124.3C51.2,124.3,51.2,124.3,51.2,124.3z"/>
		</g>
		<g>
			<path class="st14" d="M50,140.8C50,140.8,50,140.8,50,140.8c-0.1-0.1-0.1-0.1-0.1-0.1l2.1-2c0,0,0.1,0,0.1,0c0,0,0,0.1,0,0.1
				L50,140.8C50.1,140.8,50.1,140.8,50,140.8z"/>
		</g>
		<g>
			<path class="st14" d="M46.8,126.6C46.7,126.6,46.7,126.6,46.8,126.6c-0.1-0.1-0.1-0.1-0.1-0.1l7.1-7.1c0,0,0.1,0,0.1,0
				c0,0,0,0.1,0,0.1L46.8,126.6C46.8,126.6,46.8,126.6,46.8,126.6z"/>
		</g>
	</g>
	<path class="st0" d="M3.3,150c-1.8-0.4-3.2-2-3.3-3.8c0-0.3,0-0.6,0.1-0.9c0.3-0.6,1-0.9,1.7-0.9c0.7,0,1.3,0.3,1.9,0.6
		c-1.4-1.9-2.5-4.4-1.6-6.6c0.3-0.6,0.7-1.1,1.4-1.1c0.7,0,1.2,0.6,1.5,1.2c0.9,1.4,1.7,2.9,2.4,4.5c0.2-1.6,0.8-3.4,2.2-4.3
		c0.2-0.1,0.4-0.2,0.7-0.2c0.2,0,0.4,0.2,0.6,0.3c1.2,1.2,1.1,3.1,0.9,4.8c0.4-1.1,1.9-1.5,3-1c1.1,0.5,1.7,1.7,1.9,2.8
		c0.2,0.9,0.2,1.9-0.3,2.8c-0.4,0.8-1.4,1.9-2.3,1.8"/>
</g>
</svg>
