<?xml version="1.0" encoding="utf-8"?>
<!-- Generator: Adobe Illustrator 22.0.0, SVG Export Plug-In . SVG Version: 6.00 Build 0)  -->
<svg version="1.1" id="Layer_1" xmlns="http://www.w3.org/2000/svg" xmlns:xlink="http://www.w3.org/1999/xlink" x="0px" y="0px"
	 viewBox="0 0 113.2 150" style="enable-background:new 0 0 113.2 150;" xml:space="preserve">
<style type="text/css">
	.st0{clip-path:url(#SVGID_2_);fill:#D05342;}
	.st1{clip-path:url(#SVGID_2_);}
	.st2{fill:#D05342;}
	.st3{fill:#B4382F;}
	.st4{fill:#F4C950;}
	.st5{fill:#DBAD43;}
	.st6{fill:#C2A990;}
	.st7{fill:#836750;}
	.st8{fill:#9D7B64;}
	.st9{fill:#B2917D;}
	.st10{fill:#A5D3D0;}
	.st11{fill:#BEDFDC;}
	.st12{opacity:0.3;fill:#DBAD43;}
	.st13{fill:#F17356;}
</style>
<g>
	<g>
		<defs>
			<polygon id="SVGID_1_" points="53.6,7.3 100.2,7.3 100.2,48.5 51.4,48.5 			"/>
		</defs>
		<clipPath id="SVGID_2_">
			<use xlink:href="#SVGID_1_"  style="overflow:visible;"/>
		</clipPath>
		<polygon class="st0" points="53.6,7.3 100.2,7.3 100.2,48.5 51.4,48.5 		"/>
		<g class="st1">
			<path class="st2" d="M44.9,49.2c0,0,1,3.9,4,3.9c3,0.1,4.2-2.4,4.5-3.9l-3.3-1.8L44.9,49.2z"/>
			<path class="st3" d="M49,53.3c0,0-0.1,0-0.1,0c-3.1-0.1-4.1-4-4.2-4l0-0.1l5.4-1.8l3.5,1.9l0,0.1C53.2,51.2,51.8,53.3,49,53.3z
				 M45.1,49.3c0.2,0.7,1.3,3.6,3.8,3.7c0,0,0.1,0,0.1,0c3.2,0,4-2.9,4.2-3.7l-3.2-1.7L45.1,49.3z"/>
			<path class="st2" d="M53.4,49.2c0,0,1,3.9,4,3.9c3,0.1,4.2-2.4,4.5-3.9l-3.3-1.8L53.4,49.2z"/>
			<path class="st3" d="M57.5,53.3c0,0-0.1,0-0.1,0c-3.1-0.1-4.1-4-4.2-4l0-0.1l5.4-1.8l3.5,1.9l0,0.1
				C61.7,51.2,60.3,53.3,57.5,53.3z M53.6,49.3c0.2,0.7,1.3,3.6,3.8,3.7c0,0,0.1,0,0.1,0c3.2,0,4-2.9,4.2-3.7l-3.2-1.7L53.6,49.3z"
				/>
			<path class="st2" d="M61.9,49.2c0,0,1,3.9,4,3.9c3,0.1,4.2-2.4,4.5-3.9l-3.3-1.8L61.9,49.2z"/>
			<path class="st3" d="M66,53.3c0,0-0.1,0-0.1,0c-3.1-0.1-4.1-4-4.2-4l0-0.1l5.4-1.8l3.5,1.9l0,0.1C70.2,51.2,68.8,53.3,66,53.3z
				 M62.1,49.3c0.2,0.7,1.3,3.6,3.8,3.7c0,0,0.1,0,0.1,0c3.2,0,4-2.9,4.2-3.7l-3.2-1.7L62.1,49.3z"/>
			<path class="st2" d="M70.4,49.2c0,0,1,3.9,4,3.9c3,0.1,4.2-2.4,4.5-3.9l-3.3-1.8L70.4,49.2z"/>
			<path class="st3" d="M74.6,53.3c0,0-0.1,0-0.1,0c-3.1-0.1-4.1-4-4.2-4l0-0.1l5.4-1.8l3.5,1.9l0,0.1
				C78.7,51.2,77.3,53.3,74.6,53.3z M70.6,49.3c0.2,0.7,1.3,3.6,3.8,3.7c0,0,0.1,0,0.1,0c3.2,0,4-2.9,4.2-3.7l-3.2-1.7L70.6,49.3z"
				/>
			<path class="st2" d="M79,49.2c0,0,1,3.9,4,3.9c3,0.1,4.2-2.4,4.5-3.9l-3.3-1.8L79,49.2z"/>
			<path class="st3" d="M83.1,53.3c0,0-0.1,0-0.1,0c-3.1-0.1-4.1-4-4.2-4l0-0.1l5.4-1.8l3.5,1.9l0,0.1
				C87.2,51.2,85.8,53.3,83.1,53.3z M79.1,49.3c0.2,0.7,1.3,3.6,3.8,3.7c0,0,0.1,0,0.1,0c3.2,0,4-2.9,4.2-3.7l-3.2-1.7L79.1,49.3z"
				/>
			<path class="st2" d="M87.5,49.2c0,0,1,3.9,4,3.9c3,0.1,4.2-2.4,4.5-3.9l-3.3-1.8L87.5,49.2z"/>
			<path class="st3" d="M91.6,53.3c0,0-0.1,0-0.1,0c-3.1-0.1-4.1-4-4.2-4l0-0.1l5.4-1.8l3.5,1.9l0,0.1
				C95.7,51.2,94.3,53.3,91.6,53.3z M87.6,49.3c0.2,0.7,1.3,3.6,3.8,3.7c0,0,0.1,0,0.1,0c3.2,0,4-2.9,4.2-3.7l-3.2-1.7L87.6,49.3z"
				/>
			<path class="st2" d="M96,49.2c0,0,1,3.9,4,3.9c3,0.1,4.2-2.4,4.5-3.9l-3.3-1.8L96,49.2z"/>
			<path class="st3" d="M100.1,53.3c0,0-0.1,0-0.1,0c-3.1-0.1-4.1-4-4.2-4l0-0.1l5.4-1.8l3.5,1.9l0,0.1
				C104.2,51.2,102.8,53.3,100.1,53.3z M96.2,49.3c0.2,0.7,1.3,3.6,3.8,3.7c0,0,0.1,0,0.1,0c3.2,0,4-2.9,4.2-3.7l-3.2-1.7L96.2,49.3
				z"/>
			<path class="st2" d="M104.5,49.2c0,0,1,3.9,4,3.9c3,0.1,4.2-2.4,4.5-3.9l-3.3-1.8L104.5,49.2z"/>
			<path class="st3" d="M108.6,53.3c0,0-0.1,0-0.1,0c-3.1-0.1-4.1-4-4.2-4l0-0.1l5.4-1.8l3.5,1.9l0,0.1
				C112.8,51.2,111.4,53.3,108.6,53.3z M104.7,49.3c0.2,0.7,1.3,3.6,3.8,3.7c0,0,0.1,0,0.1,0c3.2,0,4-2.9,4.2-3.7l-3.2-1.7
				L104.7,49.3z"/>
			<path class="st2" d="M40.6,46.4c0,0,1,3.9,4,3.9c3,0.1,4.2-2.4,4.5-3.9l-3.3-1.8L40.6,46.4z"/>
			<path class="st3" d="M44.8,50.4c0,0-0.1,0-0.1,0c-3.1-0.1-4.1-4-4.2-4l0-0.1l5.4-1.8l3.5,1.9l0,0.1
				C48.9,48.4,47.5,50.4,44.8,50.4z M40.8,46.5c0.2,0.7,1.3,3.6,3.8,3.7c0,0,0.1,0,0.1,0c3.2,0,4-2.9,4.2-3.7l-3.2-1.7L40.8,46.5z"
				/>
			<path class="st2" d="M49.2,46.4c0,0,1,3.9,4,3.9c3,0.1,4.2-2.4,4.5-3.9l-3.3-1.8L49.2,46.4z"/>
			<path class="st3" d="M53.3,50.4c0,0-0.1,0-0.1,0c-3.1-0.1-4.1-4-4.2-4l0-0.1l5.4-1.8l3.5,1.9l0,0.1C57.4,48.4,56,50.4,53.3,50.4z
				 M49.3,46.5c0.2,0.7,1.3,3.6,3.8,3.7c0,0,0.1,0,0.1,0c3.2,0,4-2.9,4.2-3.7l-3.2-1.7L49.3,46.5z"/>
			<path class="st2" d="M57.7,46.4c0,0,1,3.9,4,3.9c3,0.1,4.2-2.4,4.5-3.9l-3.3-1.8L57.7,46.4z"/>
			<path class="st3" d="M61.8,50.4c0,0-0.1,0-0.1,0c-3.1-0.1-4.1-4-4.2-4l0-0.1l5.4-1.8l3.5,1.9l0,0.1
				C65.9,48.4,64.5,50.4,61.8,50.4z M57.9,46.5c0.2,0.7,1.3,3.6,3.8,3.7c0,0,0.1,0,0.1,0c3.2,0,4-2.9,4.2-3.7l-3.2-1.7L57.9,46.5z"
				/>
			<path class="st2" d="M66.2,46.4c0,0,1,3.9,4,3.9c3,0.1,4.2-2.4,4.5-3.9l-3.3-1.8L66.2,46.4z"/>
			<path class="st3" d="M70.3,50.4c0,0-0.1,0-0.1,0c-3.1-0.1-4.1-4-4.2-4l0-0.1l5.4-1.8l3.5,1.9l0,0.1C74.4,48.4,73,50.4,70.3,50.4z
				 M66.4,46.5c0.2,0.7,1.3,3.6,3.8,3.7c0,0,0.1,0,0.1,0c3.2,0,4-2.9,4.2-3.7l-3.2-1.7L66.4,46.5z"/>
			<path class="st2" d="M74.7,46.4c0,0,1,3.9,4,3.9c3,0.1,4.2-2.4,4.5-3.9l-3.3-1.8L74.7,46.4z"/>
			<path class="st3" d="M78.8,50.4c0,0-0.1,0-0.1,0c-3.1-0.1-4.1-4-4.2-4l0-0.1l5.4-1.8l3.5,1.9l0,0.1C83,48.4,81.6,50.4,78.8,50.4z
				 M74.9,46.5c0.2,0.7,1.3,3.6,3.8,3.7c0,0,0.1,0,0.1,0c3.2,0,4-2.9,4.2-3.7l-3.2-1.7L74.9,46.5z"/>
			<path class="st2" d="M83.2,46.4c0,0,1,3.9,4,3.9c3,0.1,4.2-2.4,4.5-3.9l-3.3-1.8L83.2,46.4z"/>
			<path class="st3" d="M87.3,50.4c0,0-0.1,0-0.1,0c-3.1-0.1-4.1-4-4.2-4l0-0.1l5.4-1.8l3.5,1.9l0,0.1
				C91.5,48.4,90.1,50.4,87.3,50.4z M83.4,46.5c0.2,0.7,1.3,3.6,3.8,3.7c0,0,0.1,0,0.1,0c3.2,0,4-2.9,4.2-3.7l-3.2-1.7L83.4,46.5z"
				/>
			<path class="st2" d="M91.7,46.4c0,0,1,3.9,4,3.9c3,0.1,4.2-2.4,4.5-3.9l-3.3-1.8L91.7,46.4z"/>
			<path class="st3" d="M95.8,50.4c0,0-0.1,0-0.1,0c-3.1-0.1-4.1-4-4.2-4l0-0.1l5.4-1.8l3.5,1.9l0,0.1C100,48.4,98.6,50.4,95.8,50.4
				z M91.9,46.5c0.2,0.7,1.3,3.6,3.8,3.7c0,0,0.1,0,0.1,0c3.2,0,4-2.9,4.2-3.7l-3.2-1.7L91.9,46.5z"/>
			<path class="st2" d="M100.2,46.4c0,0,1,3.9,4,3.9c3,0.1,4.2-2.4,4.5-3.9l-3.3-1.8L100.2,46.4z"/>
			<path class="st3" d="M104.4,50.4c0,0-0.1,0-0.1,0c-3.1-0.1-4.1-4-4.2-4l0-0.1l5.4-1.8l3.5,1.9l0,0.1
				C108.5,48.4,107.1,50.4,104.4,50.4z M100.4,46.5c0.2,0.7,1.3,3.6,3.8,3.7c3.2,0.1,4.1-2.8,4.3-3.7l-3.2-1.7L100.4,46.5z"/>
			<path class="st2" d="M44.9,43.5c0,0,1,3.9,4,3.9c3,0.1,4.2-2.4,4.5-3.9l-3.3-1.8L44.9,43.5z"/>
			<path class="st3" d="M49,47.6c0,0-0.1,0-0.1,0c-3.1-0.1-4.1-4-4.2-4l0-0.1l5.4-1.8l3.5,1.9l0,0.1C53.2,45.5,51.8,47.6,49,47.6z
				 M45.1,43.6c0.2,0.7,1.3,3.6,3.8,3.7c0,0,0.1,0,0.1,0c3.2,0,4-2.9,4.2-3.7l-3.2-1.7L45.1,43.6z"/>
			<path class="st2" d="M53.4,43.5c0,0,1,3.9,4,3.9c3,0.1,4.2-2.4,4.5-3.9l-3.3-1.8L53.4,43.5z"/>
			<path class="st3" d="M57.5,47.6c0,0-0.1,0-0.1,0c-3.1-0.1-4.1-4-4.2-4l0-0.1l5.4-1.8l3.5,1.9l0,0.1
				C61.7,45.5,60.3,47.6,57.5,47.6z M53.6,43.6c0.2,0.7,1.3,3.6,3.8,3.7c0,0,0.1,0,0.1,0c3.2,0,4-2.9,4.2-3.7l-3.2-1.7L53.6,43.6z"
				/>
			<path class="st2" d="M61.9,43.5c0,0,1,3.9,4,3.9c3,0.1,4.2-2.4,4.5-3.9l-3.3-1.8L61.9,43.5z"/>
			<path class="st3" d="M66,47.6c0,0-0.1,0-0.1,0c-3.1-0.1-4.1-4-4.2-4l0-0.1l5.4-1.8l3.5,1.9l0,0.1C70.2,45.5,68.8,47.6,66,47.6z
				 M62.1,43.6c0.2,0.7,1.3,3.6,3.8,3.7c0,0,0.1,0,0.1,0c3.2,0,4-2.9,4.2-3.7l-3.2-1.7L62.1,43.6z"/>
			<path class="st2" d="M70.4,43.5c0,0,1,3.9,4,3.9c3,0.1,4.2-2.4,4.5-3.9l-3.3-1.8L70.4,43.5z"/>
			<path class="st3" d="M74.6,47.6c0,0-0.1,0-0.1,0c-3.1-0.1-4.1-4-4.2-4l0-0.1l5.4-1.8l3.5,1.9l0,0.1
				C78.7,45.5,77.3,47.6,74.6,47.6z M70.6,43.6c0.2,0.7,1.3,3.6,3.8,3.7c0,0,0.1,0,0.1,0c3.2,0,4-2.9,4.2-3.7l-3.2-1.7L70.6,43.6z"
				/>
			<path class="st2" d="M79,43.5c0,0,1,3.9,4,3.9c3,0.1,4.2-2.4,4.5-3.9l-3.3-1.8L79,43.5z"/>
			<path class="st3" d="M83.1,47.6c0,0-0.1,0-0.1,0c-3.1-0.1-4.1-4-4.2-4l0-0.1l5.4-1.8l3.5,1.9l0,0.1
				C87.2,45.5,85.8,47.6,83.1,47.6z M79.1,43.6c0.2,0.7,1.3,3.6,3.8,3.7c0,0,0.1,0,0.1,0c3.2,0,4-2.9,4.2-3.7l-3.2-1.7L79.1,43.6z"
				/>
			<path class="st2" d="M87.5,43.5c0,0,1,3.9,4,3.9c3,0.1,4.2-2.4,4.5-3.9l-3.3-1.8L87.5,43.5z"/>
			<path class="st3" d="M91.6,47.6c0,0-0.1,0-0.1,0c-3.1-0.1-4.1-4-4.2-4l0-0.1l5.4-1.8l3.5,1.9l0,0.1
				C95.7,45.5,94.3,47.6,91.6,47.6z M87.6,43.6c0.2,0.7,1.3,3.6,3.8,3.7c0,0,0.1,0,0.1,0c3.2,0,4-2.9,4.2-3.7l-3.2-1.7L87.6,43.6z"
				/>
			<path class="st2" d="M96,43.5c0,0,1,3.9,4,3.9c3,0.1,4.2-2.4,4.5-3.9l-3.3-1.8L96,43.5z"/>
			<path class="st3" d="M100.1,47.6c0,0-0.1,0-0.1,0c-3.1-0.1-4.1-4-4.2-4l0-0.1l5.4-1.8l3.5,1.9l0,0.1
				C104.2,45.5,102.8,47.6,100.1,47.6z M96.2,43.6c0.2,0.7,1.3,3.6,3.8,3.7c0,0,0.1,0,0.1,0c3.2,0,4-2.9,4.2-3.7l-3.2-1.7L96.2,43.6
				z"/>
			<path class="st2" d="M104.5,43.5c0,0,1,3.9,4,3.9c3,0.1,4.2-2.4,4.5-3.9l-3.3-1.8L104.5,43.5z"/>
			<path class="st3" d="M108.6,47.6c0,0-0.1,0-0.1,0c-3.1-0.1-4.1-4-4.2-4l0-0.1l5.4-1.8l3.5,1.9l0,0.1
				C112.8,45.5,111.4,47.6,108.6,47.6z M104.7,43.6c0.2,0.7,1.3,3.6,3.8,3.7c0,0,0.1,0,0.1,0c3.2,0,4-2.9,4.2-3.7l-3.2-1.7
				L104.7,43.6z"/>
			<path class="st2" d="M40.6,40.7c0,0,1,3.9,4,3.9c3,0.1,4.2-2.4,4.5-3.9l-3.3-1.8L40.6,40.7z"/>
			<path class="st3" d="M44.8,44.8c0,0-0.1,0-0.1,0c-3.1-0.1-4.1-4-4.2-4l0-0.1l5.4-1.8l3.5,1.9l0,0.1
				C48.9,42.7,47.5,44.8,44.8,44.8z M40.8,40.8c0.2,0.7,1.3,3.6,3.8,3.7c0,0,0.1,0,0.1,0c3.2,0,4-2.9,4.2-3.7l-3.2-1.7L40.8,40.8z"
				/>
			<path class="st2" d="M49.2,40.7c0,0,1,3.9,4,3.9c3,0.1,4.2-2.4,4.5-3.9l-3.3-1.8L49.2,40.7z"/>
			<path class="st3" d="M53.3,44.8c0,0-0.1,0-0.1,0c-3.1-0.1-4.1-4-4.2-4l0-0.1l5.4-1.8l3.5,1.9l0,0.1C57.4,42.7,56,44.8,53.3,44.8z
				 M49.3,40.8c0.2,0.7,1.3,3.6,3.8,3.7c0,0,0.1,0,0.1,0c3.2,0,4-2.9,4.2-3.7l-3.2-1.7L49.3,40.8z"/>
			<path class="st2" d="M57.7,40.7c0,0,1,3.9,4,3.9c3,0.1,4.2-2.4,4.5-3.9l-3.3-1.8L57.7,40.7z"/>
			<path class="st3" d="M61.8,44.8c0,0-0.1,0-0.1,0c-3.1-0.1-4.1-4-4.2-4l0-0.1l5.4-1.8l3.5,1.9l0,0.1
				C65.9,42.7,64.5,44.8,61.8,44.8z M57.9,40.8c0.2,0.7,1.3,3.6,3.8,3.7c0,0,0.1,0,0.1,0c3.2,0,4-2.9,4.2-3.7l-3.2-1.7L57.9,40.8z"
				/>
			<path class="st2" d="M66.2,40.7c0,0,1,3.9,4,3.9c3,0.1,4.2-2.4,4.5-3.9l-3.3-1.8L66.2,40.7z"/>
			<path class="st3" d="M70.3,44.8c0,0-0.1,0-0.1,0c-3.1-0.1-4.1-4-4.2-4l0-0.1l5.4-1.8l3.5,1.9l0,0.1C74.4,42.7,73,44.8,70.3,44.8z
				 M66.4,40.8c0.2,0.7,1.3,3.6,3.8,3.7c0,0,0.1,0,0.1,0c3.2,0,4-2.9,4.2-3.7l-3.2-1.7L66.4,40.8z"/>
			<path class="st2" d="M74.7,40.7c0,0,1,3.9,4,3.9c3,0.1,4.2-2.4,4.5-3.9l-3.3-1.8L74.7,40.7z"/>
			<path class="st3" d="M78.8,44.8c0,0-0.1,0-0.1,0c-3.1-0.1-4.1-4-4.2-4l0-0.1l5.4-1.8l3.5,1.9l0,0.1C83,42.7,81.6,44.8,78.8,44.8z
				 M74.9,40.8c0.2,0.7,1.3,3.6,3.8,3.7c0,0,0.1,0,0.1,0c3.2,0,4-2.9,4.2-3.7l-3.2-1.7L74.9,40.8z"/>
			<path class="st2" d="M83.2,40.7c0,0,1,3.9,4,3.9c3,0.1,4.2-2.4,4.5-3.9l-3.3-1.8L83.2,40.7z"/>
			<path class="st3" d="M87.3,44.8c0,0-0.1,0-0.1,0c-3.1-0.1-4.1-4-4.2-4l0-0.1l5.4-1.8l3.5,1.9l0,0.1
				C91.5,42.7,90.1,44.8,87.3,44.8z M83.4,40.8c0.2,0.7,1.3,3.6,3.8,3.7c0,0,0.1,0,0.1,0c3.2,0,4-2.9,4.2-3.7l-3.2-1.7L83.4,40.8z"
				/>
			<path class="st2" d="M91.7,40.7c0,0,1,3.9,4,3.9c3,0.1,4.2-2.4,4.5-3.9l-3.3-1.8L91.7,40.7z"/>
			<path class="st3" d="M95.8,44.8c0,0-0.1,0-0.1,0c-3.1-0.1-4.1-4-4.2-4l0-0.1l5.4-1.8l3.5,1.9l0,0.1C100,42.7,98.6,44.8,95.8,44.8
				z M91.9,40.8c0.2,0.7,1.3,3.6,3.8,3.7c0,0,0.1,0,0.1,0c3.2,0,4-2.9,4.2-3.7l-3.2-1.7L91.9,40.8z"/>
			<path class="st2" d="M100.2,40.7c0,0,1,3.9,4,3.9c3,0.1,4.2-2.4,4.5-3.9l-3.3-1.8L100.2,40.7z"/>
			<path class="st3" d="M104.4,44.8c0,0-0.1,0-0.1,0c-3.1-0.1-4.1-4-4.2-4l0-0.1l5.4-1.8l3.5,1.9l0,0.1
				C108.5,42.7,107.1,44.8,104.4,44.8z M100.4,40.8c0.2,0.7,1.3,3.6,3.8,3.7c3.2,0.1,4.1-2.8,4.3-3.7l-3.2-1.7L100.4,40.8z"/>
			<path class="st2" d="M44.9,37.8c0,0,1,3.9,4,3.9c3,0.1,4.2-2.4,4.5-3.9l-3.3-1.8L44.9,37.8z"/>
			<path class="st3" d="M49,41.9c0,0-0.1,0-0.1,0c-3.1-0.1-4.1-4-4.2-4l0-0.1l5.4-1.8l3.5,1.9l0,0.1C53.2,39.9,51.8,41.9,49,41.9z
				 M45.1,37.9c0.2,0.7,1.3,3.6,3.8,3.7c0,0,0.1,0,0.1,0c3.2,0,4-2.9,4.2-3.7l-3.2-1.7L45.1,37.9z"/>
			<path class="st2" d="M53.4,37.8c0,0,1,3.9,4,3.9c3,0.1,4.2-2.4,4.5-3.9l-3.3-1.8L53.4,37.8z"/>
			<path class="st3" d="M57.5,41.9c0,0-0.1,0-0.1,0c-3.1-0.1-4.1-4-4.2-4l0-0.1l5.4-1.8l3.5,1.9l0,0.1
				C61.7,39.9,60.3,41.9,57.5,41.9z M53.6,37.9c0.2,0.7,1.3,3.6,3.8,3.7c0,0,0.1,0,0.1,0c3.2,0,4-2.9,4.2-3.7l-3.2-1.7L53.6,37.9z"
				/>
			<path class="st2" d="M61.9,37.8c0,0,1,3.9,4,3.9c3,0.1,4.2-2.4,4.5-3.9l-3.3-1.8L61.9,37.8z"/>
			<path class="st3" d="M66,41.9c0,0-0.1,0-0.1,0c-3.1-0.1-4.1-4-4.2-4l0-0.1l5.4-1.8l3.5,1.9l0,0.1C70.2,39.9,68.8,41.9,66,41.9z
				 M62.1,37.9c0.2,0.7,1.3,3.6,3.8,3.7c0,0,0.1,0,0.1,0c3.2,0,4-2.9,4.2-3.7l-3.2-1.7L62.1,37.9z"/>
			<path class="st2" d="M70.4,37.8c0,0,1,3.9,4,3.9c3,0.1,4.2-2.4,4.5-3.9l-3.3-1.8L70.4,37.8z"/>
			<path class="st3" d="M74.6,41.9c0,0-0.1,0-0.1,0c-3.1-0.1-4.1-4-4.2-4l0-0.1l5.4-1.8l3.5,1.9l0,0.1
				C78.7,39.9,77.3,41.9,74.6,41.9z M70.6,37.9c0.2,0.7,1.3,3.6,3.8,3.7c0,0,0.1,0,0.1,0c3.2,0,4-2.9,4.2-3.7l-3.2-1.7L70.6,37.9z"
				/>
			<path class="st2" d="M79,37.8c0,0,1,3.9,4,3.9c3,0.1,4.2-2.4,4.5-3.9l-3.3-1.8L79,37.8z"/>
			<path class="st3" d="M83.1,41.9c0,0-0.1,0-0.1,0c-3.1-0.1-4.1-4-4.2-4l0-0.1l5.4-1.8l3.5,1.9l0,0.1
				C87.2,39.9,85.8,41.9,83.1,41.9z M79.1,37.9c0.2,0.7,1.3,3.6,3.8,3.7c0,0,0.1,0,0.1,0c3.2,0,4-2.9,4.2-3.7l-3.2-1.7L79.1,37.9z"
				/>
			<path class="st2" d="M87.5,37.8c0,0,1,3.9,4,3.9c3,0.1,4.2-2.4,4.5-3.9l-3.3-1.8L87.5,37.8z"/>
			<path class="st3" d="M91.6,41.9c0,0-0.1,0-0.1,0c-3.1-0.1-4.1-4-4.2-4l0-0.1l5.4-1.8l3.5,1.9l0,0.1
				C95.7,39.9,94.3,41.9,91.6,41.9z M87.6,37.9c0.2,0.7,1.3,3.6,3.8,3.7c0,0,0.1,0,0.1,0c3.2,0,4-2.9,4.2-3.7l-3.2-1.7L87.6,37.9z"
				/>
			<path class="st2" d="M96,37.8c0,0,1,3.9,4,3.9c3,0.1,4.2-2.4,4.5-3.9l-3.3-1.8L96,37.8z"/>
			<path class="st3" d="M100.1,41.9c0,0-0.1,0-0.1,0c-3.1-0.1-4.1-4-4.2-4l0-0.1l5.4-1.8l3.5,1.9l0,0.1
				C104.2,39.9,102.8,41.9,100.1,41.9z M96.2,37.9c0.2,0.7,1.3,3.6,3.8,3.7c0,0,0.1,0,0.1,0c3.2,0,4-2.9,4.2-3.7l-3.2-1.7L96.2,37.9
				z"/>
			<path class="st2" d="M104.5,37.8c0,0,1,3.9,4,3.9c3,0.1,4.2-2.4,4.5-3.9l-3.3-1.8L104.5,37.8z"/>
			<path class="st3" d="M108.6,41.9c0,0-0.1,0-0.1,0c-3.1-0.1-4.1-4-4.2-4l0-0.1l5.4-1.8l3.5,1.9l0,0.1
				C112.8,39.9,111.4,41.9,108.6,41.9z M104.7,37.9c0.2,0.7,1.3,3.6,3.8,3.7c0,0,0.1,0,0.1,0c3.2,0,4-2.9,4.2-3.7l-3.2-1.7
				L104.7,37.9z"/>
			<path class="st2" d="M40.6,35c0,0,1,3.9,4,3.9c3,0.1,4.2-2.4,4.5-3.9l-3.3-1.8L40.6,35z"/>
			<path class="st3" d="M44.8,39.1c0,0-0.1,0-0.1,0c-3.1-0.1-4.1-4-4.2-4l0-0.1l5.4-1.8l3.5,1.9l0,0.1C48.9,37,47.5,39.1,44.8,39.1z
				 M40.8,35.1c0.2,0.7,1.3,3.6,3.8,3.7c0,0,0.1,0,0.1,0c3.2,0,4-2.9,4.2-3.7l-3.2-1.7L40.8,35.1z"/>
			<path class="st2" d="M49.2,35c0,0,1,3.9,4,3.9c3,0.1,4.2-2.4,4.5-3.9l-3.3-1.8L49.2,35z"/>
			<path class="st3" d="M53.3,39.1c0,0-0.1,0-0.1,0C50,39,49,35.1,49,35l0-0.1l5.4-1.8l3.5,1.9l0,0.1C57.4,37,56,39.1,53.3,39.1z
				 M49.3,35.1c0.2,0.7,1.3,3.6,3.8,3.7c0,0,0.1,0,0.1,0c3.2,0,4-2.9,4.2-3.7l-3.2-1.7L49.3,35.1z"/>
			<path class="st2" d="M57.7,35c0,0,1,3.9,4,3.9c3,0.1,4.2-2.4,4.5-3.9l-3.3-1.8L57.7,35z"/>
			<path class="st3" d="M61.8,39.1c0,0-0.1,0-0.1,0c-3.1-0.1-4.1-4-4.2-4l0-0.1l5.4-1.8l3.5,1.9l0,0.1C65.9,37,64.5,39.1,61.8,39.1z
				 M57.9,35.1c0.2,0.7,1.3,3.6,3.8,3.7c0,0,0.1,0,0.1,0c3.2,0,4-2.9,4.2-3.7l-3.2-1.7L57.9,35.1z"/>
			<path class="st2" d="M66.2,35c0,0,1,3.9,4,3.9c3,0.1,4.2-2.4,4.5-3.9l-3.3-1.8L66.2,35z"/>
			<path class="st3" d="M70.3,39.1c0,0-0.1,0-0.1,0c-3.1-0.1-4.1-4-4.2-4l0-0.1l5.4-1.8l3.5,1.9l0,0.1C74.4,37,73,39.1,70.3,39.1z
				 M66.4,35.1c0.2,0.7,1.3,3.6,3.8,3.7c0,0,0.1,0,0.1,0c3.2,0,4-2.9,4.2-3.7l-3.2-1.7L66.4,35.1z"/>
			<path class="st2" d="M74.7,35c0,0,1,3.9,4,3.9c3,0.1,4.2-2.4,4.5-3.9l-3.3-1.8L74.7,35z"/>
			<path class="st3" d="M78.8,39.1c0,0-0.1,0-0.1,0c-3.1-0.1-4.1-4-4.2-4l0-0.1l5.4-1.8l3.5,1.9l0,0.1C83,37,81.6,39.1,78.8,39.1z
				 M74.9,35.1c0.2,0.7,1.3,3.6,3.8,3.7c0,0,0.1,0,0.1,0c3.2,0,4-2.9,4.2-3.7l-3.2-1.7L74.9,35.1z"/>
			<path class="st2" d="M83.2,35c0,0,1,3.9,4,3.9c3,0.1,4.2-2.4,4.5-3.9l-3.3-1.8L83.2,35z"/>
			<path class="st3" d="M87.3,39.1c0,0-0.1,0-0.1,0c-3.1-0.1-4.1-4-4.2-4l0-0.1l5.4-1.8l3.5,1.9l0,0.1C91.5,37,90.1,39.1,87.3,39.1z
				 M83.4,35.1c0.2,0.7,1.3,3.6,3.8,3.7c0,0,0.1,0,0.1,0c3.2,0,4-2.9,4.2-3.7l-3.2-1.7L83.4,35.1z"/>
			<path class="st2" d="M91.7,35c0,0,1,3.9,4,3.9c3,0.1,4.2-2.4,4.5-3.9l-3.3-1.8L91.7,35z"/>
			<path class="st3" d="M95.8,39.1c0,0-0.1,0-0.1,0c-3.1-0.1-4.1-4-4.2-4l0-0.1l5.4-1.8l3.5,1.9l0,0.1C100,37,98.6,39.1,95.8,39.1z
				 M91.9,35.1c0.2,0.7,1.3,3.6,3.8,3.7c0,0,0.1,0,0.1,0c3.2,0,4-2.9,4.2-3.7l-3.2-1.7L91.9,35.1z"/>
			<path class="st2" d="M100.2,35c0,0,1,3.9,4,3.9c3,0.1,4.2-2.4,4.5-3.9l-3.3-1.8L100.2,35z"/>
			<path class="st3" d="M104.4,39.1c0,0-0.1,0-0.1,0c-3.1-0.1-4.1-4-4.2-4l0-0.1l5.4-1.8l3.5,1.9l0,0.1
				C108.5,37,107.1,39.1,104.4,39.1z M100.4,35.1c0.2,0.7,1.3,3.6,3.8,3.7c0,0,0.1,0,0.1,0c3.2,0,4-2.9,4.2-3.7l-3.2-1.7L100.4,35.1
				z"/>
			<path class="st2" d="M44.9,32.2c0,0,1,3.9,4,3.9c3,0.1,4.2-2.4,4.5-3.9l-3.3-1.8L44.9,32.2z"/>
			<path class="st3" d="M49,36.2c0,0-0.1,0-0.1,0c-3.1-0.1-4.1-4-4.2-4l0-0.1l5.4-1.8l3.5,1.9l0,0.1C53.2,34.2,51.8,36.2,49,36.2z
				 M45.1,32.3c0.2,0.7,1.3,3.6,3.8,3.7c0,0,0.1,0,0.1,0c3.2,0,4-2.9,4.2-3.7l-3.2-1.7L45.1,32.3z"/>
			<path class="st2" d="M53.4,32.2c0,0,1,3.9,4,3.9c3,0.1,4.2-2.4,4.5-3.9l-3.3-1.8L53.4,32.2z"/>
			<path class="st3" d="M57.5,36.2c0,0-0.1,0-0.1,0c-3.1-0.1-4.1-4-4.2-4l0-0.1l5.4-1.8l3.5,1.9l0,0.1
				C61.7,34.2,60.3,36.2,57.5,36.2z M53.6,32.3c0.2,0.7,1.3,3.6,3.8,3.7c0,0,0.1,0,0.1,0c3.2,0,4-2.9,4.2-3.7l-3.2-1.7L53.6,32.3z"
				/>
			<path class="st2" d="M61.9,32.2c0,0,1,3.9,4,3.9c3,0.1,4.2-2.4,4.5-3.9l-3.3-1.8L61.9,32.2z"/>
			<path class="st3" d="M66,36.2c0,0-0.1,0-0.1,0c-3.1-0.1-4.1-4-4.2-4l0-0.1l5.4-1.8l3.5,1.9l0,0.1C70.2,34.2,68.8,36.2,66,36.2z
				 M62.1,32.3c0.2,0.7,1.3,3.6,3.8,3.7c0,0,0.1,0,0.1,0c3.2,0,4-2.9,4.2-3.7l-3.2-1.7L62.1,32.3z"/>
			<path class="st2" d="M70.4,32.2c0,0,1,3.9,4,3.9s4.2-2.4,4.5-3.9l-3.3-1.8L70.4,32.2z"/>
			<path class="st3" d="M74.6,36.2c0,0-0.1,0-0.1,0c-3.1-0.1-4.1-4-4.2-4l0-0.1l5.4-1.8l3.5,1.9l0,0.1
				C78.7,34.2,77.3,36.2,74.6,36.2z M70.6,32.3c0.2,0.7,1.3,3.6,3.8,3.7c0,0,0.1,0,0.1,0c3.2,0,4-2.9,4.2-3.7l-3.2-1.7L70.6,32.3z"
				/>
			<path class="st2" d="M79,32.2c0,0,1,3.9,4,3.9c3,0.1,4.2-2.4,4.5-3.9l-3.3-1.8L79,32.2z"/>
			<path class="st3" d="M83.1,36.2c0,0-0.1,0-0.1,0c-3.1-0.1-4.1-4-4.2-4l0-0.1l5.4-1.8l3.5,1.9l0,0.1
				C87.2,34.2,85.8,36.2,83.1,36.2z M79.1,32.3c0.2,0.7,1.3,3.6,3.8,3.7c0,0,0.1,0,0.1,0c3.2,0,4-2.9,4.2-3.7l-3.2-1.7L79.1,32.3z"
				/>
			<path class="st2" d="M87.5,32.2c0,0,1,3.9,4,3.9c3,0.1,4.2-2.4,4.5-3.9l-3.3-1.8L87.5,32.2z"/>
			<path class="st3" d="M91.6,36.2c0,0-0.1,0-0.1,0c-3.1-0.1-4.1-4-4.2-4l0-0.1l5.4-1.8l3.5,1.9l0,0.1
				C95.7,34.2,94.3,36.2,91.6,36.2z M87.6,32.3c0.2,0.7,1.3,3.6,3.8,3.7c0,0,0.1,0,0.1,0c3.2,0,4-2.9,4.2-3.7l-3.2-1.7L87.6,32.3z"
				/>
			<path class="st2" d="M96,32.2c0,0,1,3.9,4,3.9c3,0.1,4.2-2.4,4.5-3.9l-3.3-1.8L96,32.2z"/>
			<path class="st3" d="M100.1,36.2c0,0-0.1,0-0.1,0c-3.1-0.1-4.1-4-4.2-4l0-0.1l5.4-1.8l3.5,1.9l0,0.1
				C104.2,34.2,102.8,36.2,100.1,36.2z M96.2,32.3c0.2,0.7,1.3,3.6,3.8,3.7c0,0,0.1,0,0.1,0c3.2,0,4-2.9,4.2-3.7l-3.2-1.7L96.2,32.3
				z"/>
			<path class="st2" d="M104.5,32.2c0,0,1,3.9,4,3.9c3,0.1,4.2-2.4,4.5-3.9l-3.3-1.8L104.5,32.2z"/>
			<path class="st3" d="M108.6,36.2c0,0-0.1,0-0.1,0c-3.1-0.1-4.1-4-4.2-4l0-0.1l5.4-1.8l3.5,1.9l0,0.1
				C112.8,34.2,111.4,36.2,108.6,36.2z M104.7,32.3c0.2,0.7,1.3,3.6,3.8,3.7c0,0,0.1,0,0.1,0c3.2,0,4-2.9,4.2-3.7l-3.2-1.7
				L104.7,32.3z"/>
			<path class="st2" d="M40.6,29.3c0,0,1,3.9,4,3.9c3,0.1,4.2-2.4,4.5-3.9l-3.3-1.8L40.6,29.3z"/>
			<path class="st3" d="M44.8,33.4c0,0-0.1,0-0.1,0c-3.1-0.1-4.1-4-4.2-4l0-0.1l5.4-1.8l3.5,1.9l0,0.1
				C48.9,31.3,47.5,33.4,44.8,33.4z M40.8,29.4c0.2,0.7,1.3,3.6,3.8,3.7c0,0,0.1,0,0.1,0c3.2,0,4-2.9,4.2-3.7l-3.2-1.7L40.8,29.4z"
				/>
			<path class="st2" d="M49.2,29.3c0,0,1,3.9,4,3.9c3,0.1,4.2-2.4,4.5-3.9l-3.3-1.8L49.2,29.3z"/>
			<path class="st3" d="M53.3,33.4c0,0-0.1,0-0.1,0c-3.1-0.1-4.1-4-4.2-4l0-0.1l5.4-1.8l3.5,1.9l0,0.1C57.4,31.3,56,33.4,53.3,33.4z
				 M49.3,29.4c0.2,0.7,1.3,3.6,3.8,3.7c0,0,0.1,0,0.1,0c3.2,0,4-2.9,4.2-3.7l-3.2-1.7L49.3,29.4z"/>
			<path class="st2" d="M57.7,29.3c0,0,1,3.9,4,3.9c3,0.1,4.2-2.4,4.5-3.9l-3.3-1.8L57.7,29.3z"/>
			<path class="st3" d="M61.8,33.4c0,0-0.1,0-0.1,0c-3.1-0.1-4.1-4-4.2-4l0-0.1l5.4-1.8l3.5,1.9l0,0.1
				C65.9,31.3,64.5,33.4,61.8,33.4z M57.9,29.4c0.2,0.7,1.3,3.6,3.8,3.7c0,0,0.1,0,0.1,0c3.2,0,4-2.9,4.2-3.7l-3.2-1.7L57.9,29.4z"
				/>
			<path class="st2" d="M66.2,29.3c0,0,1,3.9,4,3.9c3,0.1,4.2-2.4,4.5-3.9l-3.3-1.8L66.2,29.3z"/>
			<path class="st3" d="M70.3,33.4c0,0-0.1,0-0.1,0c-3.1-0.1-4.1-4-4.2-4l0-0.1l5.4-1.8l3.5,1.9l0,0.1C74.4,31.3,73,33.4,70.3,33.4z
				 M66.4,29.4c0.2,0.7,1.3,3.6,3.8,3.7c0,0,0.1,0,0.1,0c3.2,0,4-2.9,4.2-3.7l-3.2-1.7L66.4,29.4z"/>
			<path class="st2" d="M74.7,29.3c0,0,1,3.9,4,3.9c3,0.1,4.2-2.4,4.5-3.9l-3.3-1.8L74.7,29.3z"/>
			<path class="st3" d="M78.8,33.4c0,0-0.1,0-0.1,0c-3.1-0.1-4.1-4-4.2-4l0-0.1l5.4-1.8l3.5,1.9l0,0.1C83,31.3,81.6,33.4,78.8,33.4z
				 M74.9,29.4c0.2,0.7,1.3,3.6,3.8,3.7c0,0,0.1,0,0.1,0c3.2,0,4-2.9,4.2-3.7l-3.2-1.7L74.9,29.4z"/>
			<path class="st2" d="M83.2,29.3c0,0,1,3.9,4,3.9c3,0.1,4.2-2.4,4.5-3.9l-3.3-1.8L83.2,29.3z"/>
			<path class="st3" d="M87.3,33.4c0,0-0.1,0-0.1,0c-3.1-0.1-4.1-4-4.2-4l0-0.1l5.4-1.8l3.5,1.9l0,0.1
				C91.5,31.3,90.1,33.4,87.3,33.4z M83.4,29.4c0.2,0.7,1.3,3.6,3.8,3.7c0,0,0.1,0,0.1,0c3.2,0,4-2.9,4.2-3.7l-3.2-1.7L83.4,29.4z"
				/>
			<path class="st2" d="M91.7,29.3c0,0,1,3.9,4,3.9c3,0.1,4.2-2.4,4.5-3.9l-3.3-1.8L91.7,29.3z"/>
			<path class="st3" d="M95.8,33.4c0,0-0.1,0-0.1,0c-3.1-0.1-4.1-4-4.2-4l0-0.1l5.4-1.8l3.5,1.9l0,0.1C100,31.3,98.6,33.4,95.8,33.4
				z M91.9,29.4c0.2,0.7,1.3,3.6,3.8,3.7c0,0,0.1,0,0.1,0c3.2,0,4-2.9,4.2-3.7l-3.2-1.7L91.9,29.4z"/>
			<path class="st2" d="M100.2,29.3c0,0,1,3.9,4,3.9c3,0.1,4.2-2.4,4.5-3.9l-3.3-1.8L100.2,29.3z"/>
			<path class="st3" d="M104.4,33.4c0,0-0.1,0-0.1,0c-3.1-0.1-4.1-4-4.2-4l0-0.1l5.4-1.8l3.5,1.9l0,0.1
				C108.5,31.3,107.1,33.4,104.4,33.4z M100.4,29.4c0.2,0.7,1.3,3.6,3.8,3.7c3.2,0.1,4.1-2.8,4.3-3.7l-3.2-1.7L100.4,29.4z"/>
			<path class="st2" d="M44.9,26.5c0,0,1,3.9,4,3.9c3,0.1,4.2-2.4,4.5-3.9l-3.3-1.8L44.9,26.5z"/>
			<path class="st3" d="M49,30.6c0,0-0.1,0-0.1,0c-3.1-0.1-4.1-4-4.2-4l0-0.1l5.4-1.8l3.5,1.9l0,0.1C53.2,28.5,51.8,30.6,49,30.6z
				 M45.1,26.6c0.2,0.7,1.3,3.6,3.8,3.7c0,0,0.1,0,0.1,0c3.2,0,4-2.9,4.2-3.7l-3.2-1.7L45.1,26.6z"/>
			<path class="st2" d="M53.4,26.5c0,0,1,3.9,4,3.9c3,0.1,4.2-2.4,4.5-3.9l-3.3-1.8L53.4,26.5z"/>
			<path class="st3" d="M57.5,30.6c0,0-0.1,0-0.1,0c-3.1-0.1-4.1-4-4.2-4l0-0.1l5.4-1.8l3.5,1.9l0,0.1
				C61.7,28.5,60.3,30.6,57.5,30.6z M53.6,26.6c0.2,0.7,1.3,3.6,3.8,3.7c0,0,0.1,0,0.1,0c3.2,0,4-2.9,4.2-3.7l-3.2-1.7L53.6,26.6z"
				/>
			<path class="st2" d="M61.9,26.5c0,0,1,3.9,4,3.9c3,0.1,4.2-2.4,4.5-3.9l-3.3-1.8L61.9,26.5z"/>
			<path class="st3" d="M66,30.6c0,0-0.1,0-0.1,0c-3.1-0.1-4.1-4-4.2-4l0-0.1l5.4-1.8l3.5,1.9l0,0.1C70.2,28.5,68.8,30.6,66,30.6z
				 M62.1,26.6c0.2,0.7,1.3,3.6,3.8,3.7c0,0,0.1,0,0.1,0c3.2,0,4-2.9,4.2-3.7l-3.2-1.7L62.1,26.6z"/>
			<path class="st2" d="M70.4,26.5c0,0,1,3.9,4,3.9s4.2-2.4,4.5-3.9l-3.3-1.8L70.4,26.5z"/>
			<path class="st3" d="M74.6,30.6c0,0-0.1,0-0.1,0c-3.1-0.1-4.1-4-4.2-4l0-0.1l5.4-1.8l3.5,1.9l0,0.1
				C78.7,28.5,77.3,30.6,74.6,30.6z M70.6,26.6c0.2,0.7,1.3,3.6,3.8,3.7c0,0,0.1,0,0.1,0c3.2,0,4-2.9,4.2-3.7l-3.2-1.7L70.6,26.6z"
				/>
			<path class="st2" d="M79,26.5c0,0,1,3.9,4,3.9c3,0.1,4.2-2.4,4.5-3.9l-3.3-1.8L79,26.5z"/>
			<path class="st3" d="M83.1,30.6c0,0-0.1,0-0.1,0c-3.1-0.1-4.1-4-4.2-4l0-0.1l5.4-1.8l3.5,1.9l0,0.1
				C87.2,28.5,85.8,30.6,83.1,30.6z M79.1,26.6c0.2,0.7,1.3,3.6,3.8,3.7c0,0,0.1,0,0.1,0c3.2,0,4-2.9,4.2-3.7l-3.2-1.7L79.1,26.6z"
				/>
			<path class="st2" d="M87.5,26.5c0,0,1,3.9,4,3.9c3,0.1,4.2-2.4,4.5-3.9l-3.3-1.8L87.5,26.5z"/>
			<path class="st3" d="M91.6,30.6c0,0-0.1,0-0.1,0c-3.1-0.1-4.1-4-4.2-4l0-0.1l5.4-1.8l3.5,1.9l0,0.1
				C95.7,28.5,94.3,30.6,91.6,30.6z M87.6,26.6c0.2,0.7,1.3,3.6,3.8,3.7c0,0,0.1,0,0.1,0c3.2,0,4-2.9,4.2-3.7l-3.2-1.7L87.6,26.6z"
				/>
			<path class="st2" d="M96,26.5c0,0,1,3.9,4,3.9c3,0.1,4.2-2.4,4.5-3.9l-3.3-1.8L96,26.5z"/>
			<path class="st3" d="M100.1,30.6c0,0-0.1,0-0.1,0c-3.1-0.1-4.1-4-4.2-4l0-0.1l5.4-1.8l3.5,1.9l0,0.1
				C104.2,28.5,102.8,30.6,100.1,30.6z M96.2,26.6c0.2,0.7,1.3,3.6,3.8,3.7c0,0,0.1,0,0.1,0c3.2,0,4-2.9,4.2-3.7l-3.2-1.7L96.2,26.6
				z"/>
			<path class="st2" d="M104.5,26.5c0,0,1,3.9,4,3.9c3,0.1,4.2-2.4,4.5-3.9l-3.3-1.8L104.5,26.5z"/>
			<path class="st3" d="M108.6,30.6c0,0-0.1,0-0.1,0c-3.1-0.1-4.1-4-4.2-4l0-0.1l5.4-1.8l3.5,1.9l0,0.1
				C112.8,28.5,111.4,30.6,108.6,30.6z M104.7,26.6c0.2,0.7,1.3,3.6,3.8,3.7c0,0,0.1,0,0.1,0c3.2,0,4-2.9,4.2-3.7l-3.2-1.7
				L104.7,26.6z"/>
			<path class="st2" d="M40.6,23.6c0,0,1,3.9,4,3.9c3,0.1,4.2-2.4,4.5-3.9l-3.3-1.8L40.6,23.6z"/>
			<path class="st3" d="M44.8,27.7c0,0-0.1,0-0.1,0c-3.1-0.1-4.1-4-4.2-4l0-0.1l5.4-1.8l3.5,1.9l0,0.1
				C48.9,25.6,47.5,27.7,44.8,27.7z M40.8,23.7c0.2,0.7,1.3,3.6,3.8,3.7c0,0,0.1,0,0.1,0c3.2,0,4-2.9,4.2-3.7L45.8,22L40.8,23.7z"/>
			<path class="st2" d="M49.2,23.6c0,0,1,3.9,4,3.9c3,0.1,4.2-2.4,4.5-3.9l-3.3-1.8L49.2,23.6z"/>
			<path class="st3" d="M53.3,27.7c0,0-0.1,0-0.1,0c-3.1-0.1-4.1-4-4.2-4l0-0.1l5.4-1.8l3.5,1.9l0,0.1C57.4,25.6,56,27.7,53.3,27.7z
				 M49.3,23.7c0.2,0.7,1.3,3.6,3.8,3.7c0,0,0.1,0,0.1,0c3.2,0,4-2.9,4.2-3.7L54.3,22L49.3,23.7z"/>
			<path class="st2" d="M57.7,23.6c0,0,1,3.9,4,3.9c3,0.1,4.2-2.4,4.5-3.9l-3.3-1.8L57.7,23.6z"/>
			<path class="st3" d="M61.8,27.7c0,0-0.1,0-0.1,0c-3.1-0.1-4.1-4-4.2-4l0-0.1l5.4-1.8l3.5,1.9l0,0.1
				C65.9,25.6,64.5,27.7,61.8,27.7z M57.9,23.7c0.2,0.7,1.3,3.6,3.8,3.7c0,0,0.1,0,0.1,0c3.2,0,4-2.9,4.2-3.7L62.8,22L57.9,23.7z"/>
			<path class="st2" d="M66.2,23.6c0,0,1,3.9,4,3.9c3,0.1,4.2-2.4,4.5-3.9l-3.3-1.8L66.2,23.6z"/>
			<path class="st3" d="M70.3,27.7c0,0-0.1,0-0.1,0c-3.1-0.1-4.1-4-4.2-4l0-0.1l5.4-1.8l3.5,1.9l0,0.1C74.4,25.6,73,27.7,70.3,27.7z
				 M66.4,23.7c0.2,0.7,1.3,3.6,3.8,3.7c0,0,0.1,0,0.1,0c3.2,0,4-2.9,4.2-3.7L71.3,22L66.4,23.7z"/>
			<path class="st2" d="M74.7,23.6c0,0,1,3.9,4,3.9c3,0.1,4.2-2.4,4.5-3.9l-3.3-1.8L74.7,23.6z"/>
			<path class="st3" d="M78.8,27.7c0,0-0.1,0-0.1,0c-3.1-0.1-4.1-4-4.2-4l0-0.1l5.4-1.8l3.5,1.9l0,0.1C83,25.6,81.6,27.7,78.8,27.7z
				 M74.9,23.7c0.2,0.7,1.3,3.6,3.8,3.7c0,0,0.1,0,0.1,0c3.2,0,4-2.9,4.2-3.7L79.9,22L74.9,23.7z"/>
			<path class="st2" d="M83.2,23.6c0,0,1,3.9,4,3.9c3,0.1,4.2-2.4,4.5-3.9l-3.3-1.8L83.2,23.6z"/>
			<path class="st3" d="M87.3,27.7c0,0-0.1,0-0.1,0c-3.1-0.1-4.1-4-4.2-4l0-0.1l5.4-1.8l3.5,1.9l0,0.1
				C91.5,25.6,90.1,27.7,87.3,27.7z M83.4,23.7c0.2,0.7,1.3,3.6,3.8,3.7c0,0,0.1,0,0.1,0c3.2,0,4-2.9,4.2-3.7L88.4,22L83.4,23.7z"/>
			<path class="st2" d="M91.7,23.6c0,0,1,3.9,4,3.9c3,0.1,4.2-2.4,4.5-3.9l-3.3-1.8L91.7,23.6z"/>
			<path class="st3" d="M95.8,27.7c0,0-0.1,0-0.1,0c-3.1-0.1-4.1-4-4.2-4l0-0.1l5.4-1.8l3.5,1.9l0,0.1C100,25.6,98.6,27.7,95.8,27.7
				z M91.9,23.7c0.2,0.7,1.3,3.6,3.8,3.7c0,0,0.1,0,0.1,0c3.2,0,4-2.9,4.2-3.7L96.9,22L91.9,23.7z"/>
			<path class="st2" d="M100.2,23.6c0,0,1,3.9,4,3.9c3,0.1,4.2-2.4,4.5-3.9l-3.3-1.8L100.2,23.6z"/>
			<path class="st3" d="M104.4,27.7c0,0-0.1,0-0.1,0c-3.1-0.1-4.1-4-4.2-4l0-0.1l5.4-1.8l3.5,1.9l0,0.1
				C108.5,25.6,107.1,27.7,104.4,27.7z M100.4,23.7c0.2,0.7,1.3,3.6,3.8,3.7c3.2,0.1,4.1-2.8,4.3-3.7l-3.2-1.7L100.4,23.7z"/>
			<path class="st2" d="M44.9,20.8c0,0,1,3.9,4,3.9c3,0.1,4.2-2.4,4.5-3.9L50.1,19L44.9,20.8z"/>
			<path class="st3" d="M49,24.9c0,0-0.1,0-0.1,0c-3.1-0.1-4.1-4-4.2-4l0-0.1l5.4-1.8l3.5,1.9l0,0.1C53.2,22.8,51.8,24.9,49,24.9z
				 M45.1,20.9c0.2,0.7,1.3,3.6,3.8,3.7c0,0,0.1,0,0.1,0c3.2,0,4-2.9,4.2-3.7l-3.2-1.7L45.1,20.9z"/>
			<path class="st2" d="M53.4,20.8c0,0,1,3.9,4,3.9c3,0.1,4.2-2.4,4.5-3.9L58.6,19L53.4,20.8z"/>
			<path class="st3" d="M57.5,24.9c0,0-0.1,0-0.1,0c-3.1-0.1-4.1-4-4.2-4l0-0.1l5.4-1.8l3.5,1.9l0,0.1
				C61.7,22.8,60.3,24.9,57.5,24.9z M53.6,20.9c0.2,0.7,1.3,3.6,3.8,3.7c0,0,0.1,0,0.1,0c3.2,0,4-2.9,4.2-3.7l-3.2-1.7L53.6,20.9z"
				/>
			<path class="st2" d="M61.9,20.8c0,0,1,3.9,4,3.9c3,0.1,4.2-2.4,4.5-3.9L67.1,19L61.9,20.8z"/>
			<path class="st3" d="M66,24.9c0,0-0.1,0-0.1,0c-3.1-0.1-4.1-4-4.2-4l0-0.1l5.4-1.8l3.5,1.9l0,0.1C70.2,22.8,68.8,24.9,66,24.9z
				 M62.1,20.9c0.2,0.7,1.3,3.6,3.8,3.7c0,0,0.1,0,0.1,0c3.2,0,4-2.9,4.2-3.7l-3.2-1.7L62.1,20.9z"/>
			<path class="st2" d="M70.4,20.8c0,0,1,3.9,4,3.9c3,0.1,4.2-2.4,4.5-3.9L75.6,19L70.4,20.8z"/>
			<path class="st3" d="M74.6,24.9c0,0-0.1,0-0.1,0c-3.1-0.1-4.1-4-4.2-4l0-0.1l5.4-1.8l3.5,1.9l0,0.1
				C78.7,22.8,77.3,24.9,74.6,24.9z M70.6,20.9c0.2,0.7,1.3,3.6,3.8,3.7c0,0,0.1,0,0.1,0c3.2,0,4-2.9,4.2-3.7l-3.2-1.7L70.6,20.9z"
				/>
			<path class="st2" d="M79,20.8c0,0,1,3.9,4,3.9c3,0.1,4.2-2.4,4.5-3.9L84.1,19L79,20.8z"/>
			<path class="st3" d="M83.1,24.9c0,0-0.1,0-0.1,0c-3.1-0.1-4.1-4-4.2-4l0-0.1l5.4-1.8l3.5,1.9l0,0.1
				C87.2,22.8,85.8,24.9,83.1,24.9z M79.1,20.9c0.2,0.7,1.3,3.6,3.8,3.7c0,0,0.1,0,0.1,0c3.2,0,4-2.9,4.2-3.7l-3.2-1.7L79.1,20.9z"
				/>
			<path class="st2" d="M87.5,20.8c0,0,1,3.9,4,3.9c3,0.1,4.2-2.4,4.5-3.9L92.6,19L87.5,20.8z"/>
			<path class="st3" d="M91.6,24.9c0,0-0.1,0-0.1,0c-3.1-0.1-4.1-4-4.2-4l0-0.1l5.4-1.8l3.5,1.9l0,0.1
				C95.7,22.8,94.3,24.9,91.6,24.9z M87.6,20.9c0.2,0.7,1.3,3.6,3.8,3.7c0,0,0.1,0,0.1,0c3.2,0,4-2.9,4.2-3.7l-3.2-1.7L87.6,20.9z"
				/>
			<path class="st2" d="M96,20.8c0,0,1,3.9,4,3.9c3,0.1,4.2-2.4,4.5-3.9l-3.3-1.8L96,20.8z"/>
			<path class="st3" d="M100.1,24.9c0,0-0.1,0-0.1,0c-3.1-0.1-4.1-4-4.2-4l0-0.1l5.4-1.8l3.5,1.9l0,0.1
				C104.2,22.8,102.8,24.9,100.1,24.9z M96.2,20.9c0.2,0.7,1.3,3.6,3.8,3.7c0,0,0.1,0,0.1,0c3.2,0,4-2.9,4.2-3.7l-3.2-1.7L96.2,20.9
				z"/>
			<path class="st2" d="M104.5,20.8c0,0,1,3.9,4,3.9c3,0.1,4.2-2.4,4.5-3.9l-3.3-1.8L104.5,20.8z"/>
			<path class="st3" d="M108.6,24.9c0,0-0.1,0-0.1,0c-3.1-0.1-4.1-4-4.2-4l0-0.1l5.4-1.8l3.5,1.9l0,0.1
				C112.8,22.8,111.4,24.9,108.6,24.9z M104.7,20.9c0.2,0.7,1.3,3.6,3.8,3.7c0,0,0.1,0,0.1,0c3.2,0,4-2.9,4.2-3.7l-3.2-1.7
				L104.7,20.9z"/>
			<path class="st2" d="M40.6,18c0,0,1,3.9,4,3.9c3,0.1,4.2-2.4,4.5-3.9l-3.3-1.8L40.6,18z"/>
			<path class="st3" d="M44.8,22c0,0-0.1,0-0.1,0c-3.1-0.1-4.1-4-4.2-4l0-0.1l5.4-1.8l3.5,1.9l0,0.1C48.9,20,47.5,22,44.8,22z
				 M40.8,18.1c0.2,0.7,1.3,3.6,3.8,3.7c0,0,0.1,0,0.1,0c3.2,0,4-2.9,4.2-3.7l-3.2-1.7L40.8,18.1z"/>
			<path class="st2" d="M49.2,18c0,0,1,3.9,4,3.9c3,0.1,4.2-2.4,4.5-3.9l-3.3-1.8L49.2,18z"/>
			<path class="st3" d="M53.3,22c0,0-0.1,0-0.1,0C50,22,49,18,49,18l0-0.1l5.4-1.8l3.5,1.9l0,0.1C57.4,20,56,22,53.3,22z M49.3,18.1
				c0.2,0.7,1.3,3.6,3.8,3.7c0,0,0.1,0,0.1,0c3.2,0,4-2.9,4.2-3.7l-3.2-1.7L49.3,18.1z"/>
			<path class="st2" d="M57.7,18c0,0,1,3.9,4,3.9c3,0.1,4.2-2.4,4.5-3.9l-3.3-1.8L57.7,18z"/>
			<path class="st3" d="M61.8,22c0,0-0.1,0-0.1,0c-3.1-0.1-4.1-4-4.2-4l0-0.1l5.4-1.8l3.5,1.9l0,0.1C65.9,20,64.5,22,61.8,22z
				 M57.9,18.1c0.2,0.7,1.3,3.6,3.8,3.7c0,0,0.1,0,0.1,0c3.2,0,4-2.9,4.2-3.7l-3.2-1.7L57.9,18.1z"/>
			<path class="st2" d="M66.2,18c0,0,1,3.9,4,3.9c3,0.1,4.2-2.4,4.5-3.9l-3.3-1.8L66.2,18z"/>
			<path class="st3" d="M70.3,22c0,0-0.1,0-0.1,0c-3.1-0.1-4.1-4-4.2-4l0-0.1l5.4-1.8l3.5,1.9l0,0.1C74.4,20,73,22,70.3,22z
				 M66.4,18.1c0.2,0.7,1.3,3.6,3.8,3.7c0,0,0.1,0,0.1,0c3.2,0,4-2.9,4.2-3.7l-3.2-1.7L66.4,18.1z"/>
			<path class="st2" d="M74.7,18c0,0,1,3.9,4,3.9c3,0.1,4.2-2.4,4.5-3.9l-3.3-1.8L74.7,18z"/>
			<path class="st3" d="M78.8,22c0,0-0.1,0-0.1,0c-3.1-0.1-4.1-4-4.2-4l0-0.1l5.4-1.8l3.5,1.9l0,0.1C83,20,81.6,22,78.8,22z
				 M74.9,18.1c0.2,0.7,1.3,3.6,3.8,3.7c0,0,0.1,0,0.1,0c3.2,0,4-2.9,4.2-3.7l-3.2-1.7L74.9,18.1z"/>
			<path class="st2" d="M83.2,18c0,0,1,3.9,4,3.9c3,0.1,4.2-2.4,4.5-3.9l-3.3-1.8L83.2,18z"/>
			<path class="st3" d="M87.3,22c0,0-0.1,0-0.1,0c-3.1-0.1-4.1-4-4.2-4l0-0.1l5.4-1.8l3.5,1.9l0,0.1C91.5,20,90.1,22,87.3,22z
				 M83.4,18.1c0.2,0.7,1.3,3.6,3.8,3.7c0,0,0.1,0,0.1,0c3.2,0,4-2.9,4.2-3.7l-3.2-1.7L83.4,18.1z"/>
			<path class="st2" d="M91.7,18c0,0,1,3.9,4,3.9c3,0.1,4.2-2.4,4.5-3.9l-3.3-1.8L91.7,18z"/>
			<path class="st3" d="M95.8,22c0,0-0.1,0-0.1,0c-3.1-0.1-4.1-4-4.2-4l0-0.1l5.4-1.8l3.5,1.9l0,0.1C100,20,98.6,22,95.8,22z
				 M91.9,18.1c0.2,0.7,1.3,3.6,3.8,3.7c0,0,0.1,0,0.1,0c3.2,0,4-2.9,4.2-3.7l-3.2-1.7L91.9,18.1z"/>
			<path class="st2" d="M100.2,18c0,0,1,3.9,4,3.9c3,0.1,4.2-2.4,4.5-3.9l-3.3-1.8L100.2,18z"/>
			<path class="st3" d="M104.4,22c0,0-0.1,0-0.1,0c-3.1-0.1-4.1-4-4.2-4l0-0.1l5.4-1.8l3.5,1.9l0,0.1C108.5,20,107.1,22,104.4,22z
				 M100.4,18.1c0.2,0.7,1.3,3.6,3.8,3.7c0,0,0.1,0,0.1,0c3.2,0,4-2.9,4.2-3.7l-3.2-1.7L100.4,18.1z"/>
			<path class="st2" d="M44.9,15.1c0,0,1,3.9,4,3.9c3,0.1,4.2-2.4,4.5-3.9l-3.3-1.8L44.9,15.1z"/>
			<path class="st3" d="M49,19.2c0,0-0.1,0-0.1,0c-3.1-0.1-4.1-4-4.2-4l0-0.1l5.4-1.8l3.5,1.9l0,0.1C53.2,17.1,51.8,19.2,49,19.2z
				 M45.1,15.2c0.2,0.7,1.3,3.6,3.8,3.7c0,0,0.1,0,0.1,0c3.2,0,4-2.9,4.2-3.7l-3.2-1.7L45.1,15.2z"/>
			<path class="st2" d="M53.4,15.1c0,0,1,3.9,4,3.9c3,0.1,4.2-2.4,4.5-3.9l-3.3-1.8L53.4,15.1z"/>
			<path class="st3" d="M57.5,19.2c0,0-0.1,0-0.1,0c-3.1-0.1-4.1-4-4.2-4l0-0.1l5.4-1.8l3.5,1.9l0,0.1
				C61.7,17.1,60.3,19.2,57.5,19.2z M53.6,15.2c0.2,0.7,1.3,3.6,3.8,3.7c0,0,0.1,0,0.1,0c3.2,0,4-2.9,4.2-3.7l-3.2-1.7L53.6,15.2z"
				/>
			<path class="st2" d="M61.9,15.1c0,0,1,3.9,4,3.9c3,0.1,4.2-2.4,4.5-3.9l-3.3-1.8L61.9,15.1z"/>
			<path class="st3" d="M66,19.2c0,0-0.1,0-0.1,0c-3.1-0.1-4.1-4-4.2-4l0-0.1l5.4-1.8l3.5,1.9l0,0.1C70.2,17.1,68.8,19.2,66,19.2z
				 M62.1,15.2c0.2,0.7,1.3,3.6,3.8,3.7c0,0,0.1,0,0.1,0c3.2,0,4-2.9,4.2-3.7l-3.2-1.7L62.1,15.2z"/>
			<path class="st2" d="M70.4,15.1c0,0,1,3.9,4,3.9c3,0.1,4.2-2.4,4.5-3.9l-3.3-1.8L70.4,15.1z"/>
			<path class="st3" d="M74.6,19.2c0,0-0.1,0-0.1,0c-3.1-0.1-4.1-4-4.2-4l0-0.1l5.4-1.8l3.5,1.9l0,0.1
				C78.7,17.1,77.3,19.2,74.6,19.2z M70.6,15.2c0.2,0.7,1.3,3.6,3.8,3.7c0,0,0.1,0,0.1,0c3.2,0,4-2.9,4.2-3.7l-3.2-1.7L70.6,15.2z"
				/>
			<path class="st2" d="M79,15.1c0,0,1,3.9,4,3.9c3,0.1,4.2-2.4,4.5-3.9l-3.3-1.8L79,15.1z"/>
			<path class="st3" d="M83.1,19.2c0,0-0.1,0-0.1,0c-3.1-0.1-4.1-4-4.2-4l0-0.1l5.4-1.8l3.5,1.9l0,0.1
				C87.2,17.1,85.8,19.2,83.1,19.2z M79.1,15.2c0.2,0.7,1.3,3.6,3.8,3.7c0,0,0.1,0,0.1,0c3.2,0,4-2.9,4.2-3.7l-3.2-1.7L79.1,15.2z"
				/>
			<path class="st2" d="M87.5,15.1c0,0,1,3.9,4,3.9c3,0.1,4.2-2.4,4.5-3.9l-3.3-1.8L87.5,15.1z"/>
			<path class="st3" d="M91.6,19.2c0,0-0.1,0-0.1,0c-3.1-0.1-4.1-4-4.2-4l0-0.1l5.4-1.8l3.5,1.9l0,0.1
				C95.7,17.1,94.3,19.2,91.6,19.2z M87.6,15.2c0.2,0.7,1.3,3.6,3.8,3.7c0,0,0.1,0,0.1,0c3.2,0,4-2.9,4.2-3.7l-3.2-1.7L87.6,15.2z"
				/>
			<path class="st2" d="M96,15.1c0,0,1,3.9,4,3.9c3,0.1,4.2-2.4,4.5-3.9l-3.3-1.8L96,15.1z"/>
			<path class="st3" d="M100.1,19.2c0,0-0.1,0-0.1,0c-3.1-0.1-4.1-4-4.2-4l0-0.1l5.4-1.8l3.5,1.9l0,0.1
				C104.2,17.1,102.8,19.2,100.1,19.2z M96.2,15.2c0.2,0.7,1.3,3.6,3.8,3.7c0,0,0.1,0,0.1,0c3.2,0,4-2.9,4.2-3.7l-3.2-1.7L96.2,15.2
				z"/>
			<path class="st2" d="M104.5,15.1c0,0,1,3.9,4,3.9c3,0.1,4.2-2.4,4.5-3.9l-3.3-1.8L104.5,15.1z"/>
			<path class="st3" d="M108.6,19.2c0,0-0.1,0-0.1,0c-3.1-0.1-4.1-4-4.2-4l0-0.1l5.4-1.8l3.5,1.9l0,0.1
				C112.8,17.1,111.4,19.2,108.6,19.2z M104.7,15.2c0.2,0.7,1.3,3.6,3.8,3.7c0,0,0.1,0,0.1,0c3.2,0,4-2.9,4.2-3.7l-3.2-1.7
				L104.7,15.2z"/>
			<path class="st2" d="M40.6,12.3c0,0,1,3.9,4,3.9c3,0.1,4.2-2.4,4.5-3.9l-3.3-1.8L40.6,12.3z"/>
			<path class="st3" d="M44.8,16.3c0,0-0.1,0-0.1,0c-3.1-0.1-4.1-4-4.2-4l0-0.1l5.4-1.8l3.5,1.9l0,0.1
				C48.9,14.3,47.5,16.3,44.8,16.3z M40.8,12.4c0.2,0.7,1.3,3.6,3.8,3.7c0,0,0.1,0,0.1,0c3.2,0,4-2.9,4.2-3.7l-3.2-1.7L40.8,12.4z"
				/>
			<path class="st2" d="M49.2,12.3c0,0,1,3.9,4,3.9c3,0.1,4.2-2.4,4.5-3.9l-3.3-1.8L49.2,12.3z"/>
			<path class="st3" d="M53.3,16.3c0,0-0.1,0-0.1,0c-3.1-0.1-4.1-4-4.2-4l0-0.1l5.4-1.8l3.5,1.9l0,0.1C57.4,14.3,56,16.3,53.3,16.3z
				 M49.3,12.4c0.2,0.7,1.3,3.6,3.8,3.7c0,0,0.1,0,0.1,0c3.2,0,4-2.9,4.2-3.7l-3.2-1.7L49.3,12.4z"/>
			<path class="st2" d="M57.7,12.3c0,0,1,3.9,4,3.9c3,0.1,4.2-2.4,4.5-3.9l-3.3-1.8L57.7,12.3z"/>
			<path class="st3" d="M61.8,16.3c0,0-0.1,0-0.1,0c-3.1-0.1-4.1-4-4.2-4l0-0.1l5.4-1.8l3.5,1.9l0,0.1
				C65.9,14.3,64.5,16.3,61.8,16.3z M57.9,12.4c0.2,0.7,1.3,3.6,3.8,3.7c0,0,0.1,0,0.1,0c3.2,0,4-2.9,4.2-3.7l-3.2-1.7L57.9,12.4z"
				/>
			<path class="st2" d="M66.2,12.3c0,0,1,3.9,4,3.9c3,0.1,4.2-2.4,4.5-3.9l-3.3-1.8L66.2,12.3z"/>
			<path class="st3" d="M70.3,16.3c0,0-0.1,0-0.1,0c-3.1-0.1-4.1-4-4.2-4l0-0.1l5.4-1.8l3.5,1.9l0,0.1C74.4,14.3,73,16.3,70.3,16.3z
				 M66.4,12.4c0.2,0.7,1.3,3.6,3.8,3.7c0,0,0.1,0,0.1,0c3.2,0,4-2.9,4.2-3.7l-3.2-1.7L66.4,12.4z"/>
			<path class="st2" d="M74.7,12.3c0,0,1,3.9,4,3.9c3,0.1,4.2-2.4,4.5-3.9l-3.3-1.8L74.7,12.3z"/>
			<path class="st3" d="M78.8,16.3c0,0-0.1,0-0.1,0c-3.1-0.1-4.1-4-4.2-4l0-0.1l5.4-1.8l3.5,1.9l0,0.1C83,14.3,81.6,16.3,78.8,16.3z
				 M74.9,12.4c0.2,0.7,1.3,3.6,3.8,3.7c0,0,0.1,0,0.1,0c3.2,0,4-2.9,4.2-3.7l-3.2-1.7L74.9,12.4z"/>
			<path class="st2" d="M83.2,12.3c0,0,1,3.9,4,3.9c3,0.1,4.2-2.4,4.5-3.9l-3.3-1.8L83.2,12.3z"/>
			<path class="st3" d="M87.3,16.3c0,0-0.1,0-0.1,0c-3.1-0.1-4.1-4-4.2-4l0-0.1l5.4-1.8l3.5,1.9l0,0.1
				C91.5,14.3,90.1,16.3,87.3,16.3z M83.4,12.4c0.2,0.7,1.3,3.6,3.8,3.7c0,0,0.1,0,0.1,0c3.2,0,4-2.9,4.2-3.7l-3.2-1.7L83.4,12.4z"
				/>
			<path class="st2" d="M91.7,12.3c0,0,1,3.9,4,3.9c3,0.1,4.2-2.4,4.5-3.9l-3.3-1.8L91.7,12.3z"/>
			<path class="st3" d="M95.8,16.3c0,0-0.1,0-0.1,0c-3.1-0.1-4.1-4-4.2-4l0-0.1l5.4-1.8l3.5,1.9l0,0.1C100,14.3,98.6,16.3,95.8,16.3
				z M91.9,12.4c0.2,0.7,1.3,3.6,3.8,3.7c0,0,0.1,0,0.1,0c3.2,0,4-2.9,4.2-3.7l-3.2-1.7L91.9,12.4z"/>
			<path class="st2" d="M100.2,12.3c0,0,1,3.9,4,3.9c3,0.1,4.2-2.4,4.5-3.9l-3.3-1.8L100.2,12.3z"/>
			<path class="st3" d="M104.4,16.3c0,0-0.1,0-0.1,0c-3.1-0.1-4.1-4-4.2-4l0-0.1l5.4-1.8l3.5,1.9l0,0.1
				C108.5,14.3,107.1,16.3,104.4,16.3z M100.4,12.4c0.2,0.7,1.3,3.6,3.8,3.7c3.2,0.1,4.1-2.8,4.3-3.7l-3.2-1.7L100.4,12.4z"/>
			<path class="st2" d="M44.9,9.4c0,0,1,3.9,4,3.9c3,0.1,4.2-2.4,4.5-3.9l-3.3-1.8L44.9,9.4z"/>
			<path class="st3" d="M49,13.5c0,0-0.1,0-0.1,0c-3.1-0.1-4.1-4-4.2-4l0-0.1l5.4-1.8l3.5,1.9l0,0.1C53.2,11.4,51.8,13.5,49,13.5z
				 M45.1,9.5c0.2,0.7,1.3,3.6,3.8,3.7c0,0,0.1,0,0.1,0c3.2,0,4-2.9,4.2-3.7l-3.2-1.7L45.1,9.5z"/>
			<path class="st2" d="M53.4,9.4c0,0,1,3.9,4,3.9c3,0.1,4.2-2.4,4.5-3.9l-3.3-1.8L53.4,9.4z"/>
			<path class="st3" d="M57.5,13.5c0,0-0.1,0-0.1,0c-3.1-0.1-4.1-4-4.2-4l0-0.1l5.4-1.8l3.5,1.9l0,0.1
				C61.7,11.4,60.3,13.5,57.5,13.5z M53.6,9.5c0.2,0.7,1.3,3.6,3.8,3.7c0,0,0.1,0,0.1,0c3.2,0,4-2.9,4.2-3.7l-3.2-1.7L53.6,9.5z"/>
			<path class="st2" d="M61.9,9.4c0,0,1,3.9,4,3.9c3,0.1,4.2-2.4,4.5-3.9l-3.3-1.8L61.9,9.4z"/>
			<path class="st3" d="M66,13.5c0,0-0.1,0-0.1,0c-3.1-0.1-4.1-4-4.2-4l0-0.1l5.4-1.8l3.5,1.9l0,0.1C70.2,11.4,68.8,13.5,66,13.5z
				 M62.1,9.5c0.2,0.7,1.3,3.6,3.8,3.7c0,0,0.1,0,0.1,0c3.2,0,4-2.9,4.2-3.7l-3.2-1.7L62.1,9.5z"/>
			<path class="st2" d="M70.4,9.4c0,0,1,3.9,4,3.9s4.2-2.4,4.5-3.9l-3.3-1.8L70.4,9.4z"/>
			<path class="st3" d="M74.6,13.5c0,0-0.1,0-0.1,0c-3.1-0.1-4.1-4-4.2-4l0-0.1l5.4-1.8l3.5,1.9l0,0.1
				C78.7,11.4,77.3,13.5,74.6,13.5z M70.6,9.5c0.2,0.7,1.3,3.6,3.8,3.7c0,0,0.1,0,0.1,0c3.2,0,4-2.9,4.2-3.7l-3.2-1.7L70.6,9.5z"/>
			<path class="st2" d="M79,9.4c0,0,1,3.9,4,3.9c3,0.1,4.2-2.4,4.5-3.9l-3.3-1.8L79,9.4z"/>
			<path class="st3" d="M83.1,13.5c0,0-0.1,0-0.1,0c-3.1-0.1-4.1-4-4.2-4l0-0.1l5.4-1.8l3.5,1.9l0,0.1
				C87.2,11.4,85.8,13.5,83.1,13.5z M79.1,9.5c0.2,0.7,1.3,3.6,3.8,3.7c0,0,0.1,0,0.1,0c3.2,0,4-2.9,4.2-3.7l-3.2-1.7L79.1,9.5z"/>
			<path class="st2" d="M87.5,9.4c0,0,1,3.9,4,3.9c3,0.1,4.2-2.4,4.5-3.9l-3.3-1.8L87.5,9.4z"/>
			<path class="st3" d="M91.6,13.5c0,0-0.1,0-0.1,0c-3.1-0.1-4.1-4-4.2-4l0-0.1l5.4-1.8l3.5,1.9l0,0.1
				C95.7,11.4,94.3,13.5,91.6,13.5z M87.6,9.5c0.2,0.7,1.3,3.6,3.8,3.7c0,0,0.1,0,0.1,0c3.2,0,4-2.9,4.2-3.7l-3.2-1.7L87.6,9.5z"/>
			<path class="st2" d="M96,9.4c0,0,1,3.9,4,3.9c3,0.1,4.2-2.4,4.5-3.9l-3.3-1.8L96,9.4z"/>
			<path class="st3" d="M100.1,13.5c0,0-0.1,0-0.1,0c-3.1-0.1-4.1-4-4.2-4l0-0.1l5.4-1.8l3.5,1.9l0,0.1
				C104.2,11.4,102.8,13.5,100.1,13.5z M96.2,9.5c0.2,0.7,1.3,3.6,3.8,3.7c0,0,0.1,0,0.1,0c3.2,0,4-2.9,4.2-3.7l-3.2-1.7L96.2,9.5z"
				/>
			<path class="st2" d="M104.5,9.4c0,0,1,3.9,4,3.9c3,0.1,4.2-2.4,4.5-3.9l-3.3-1.8L104.5,9.4z"/>
			<path class="st3" d="M108.6,13.5c0,0-0.1,0-0.1,0c-3.1-0.1-4.1-4-4.2-4l0-0.1l5.4-1.8l3.5,1.9l0,0.1
				C112.8,11.4,111.4,13.5,108.6,13.5z M104.7,9.5c0.2,0.7,1.3,3.6,3.8,3.7c0,0,0.1,0,0.1,0c3.2,0,4-2.9,4.2-3.7l-3.2-1.7L104.7,9.5
				z"/>
			<path class="st2" d="M40.6,7.4c0,0,1,3.9,4,3.9c3,0.1,4.2-2.4,4.5-3.9l-3.3-1.8L40.6,7.4z"/>
			<path class="st3" d="M44.8,11.5c0,0-0.1,0-0.1,0c-3.1-0.1-4.1-4-4.2-4l0-0.1l5.4-1.8l3.5,1.9l0,0.1C48.9,9.4,47.5,11.5,44.8,11.5
				z M40.8,7.5c0.2,0.7,1.3,3.6,3.8,3.7c0,0,0.1,0,0.1,0c3.2,0,4-2.9,4.2-3.7l-3.2-1.7L40.8,7.5z"/>
			<path class="st2" d="M49.2,7.4c0,0,1,3.9,4,3.9c3,0.1,4.2-2.4,4.5-3.9l-3.3-1.8L49.2,7.4z"/>
			<path class="st3" d="M53.3,11.5c0,0-0.1,0-0.1,0c-3.1-0.1-4.1-4-4.2-4l0-0.1l5.4-1.8l3.5,1.9l0,0.1C57.4,9.4,56,11.5,53.3,11.5z
				 M49.3,7.5c0.2,0.7,1.3,3.6,3.8,3.7c0,0,0.1,0,0.1,0c3.2,0,4-2.9,4.2-3.7l-3.2-1.7L49.3,7.5z"/>
			<path class="st2" d="M57.7,7.4c0,0,1,3.9,4,3.9c3,0.1,4.2-2.4,4.5-3.9l-3.3-1.8L57.7,7.4z"/>
			<path class="st3" d="M61.8,11.5c0,0-0.1,0-0.1,0c-3.1-0.1-4.1-4-4.2-4l0-0.1l5.4-1.8l3.5,1.9l0,0.1C65.9,9.4,64.5,11.5,61.8,11.5
				z M57.9,7.5c0.2,0.7,1.3,3.6,3.8,3.7c0,0,0.1,0,0.1,0c3.2,0,4-2.9,4.2-3.7l-3.2-1.7L57.9,7.5z"/>
			<path class="st2" d="M66.2,7.4c0,0,1,3.9,4,3.9c3,0.1,4.2-2.4,4.5-3.9l-3.3-1.8L66.2,7.4z"/>
			<path class="st3" d="M70.3,11.5c0,0-0.1,0-0.1,0c-3.1-0.1-4.1-4-4.2-4l0-0.1l5.4-1.8l3.5,1.9l0,0.1C74.4,9.4,73,11.5,70.3,11.5z
				 M66.4,7.5c0.2,0.7,1.3,3.6,3.8,3.7c0,0,0.1,0,0.1,0c3.2,0,4-2.9,4.2-3.7l-3.2-1.7L66.4,7.5z"/>
			<path class="st2" d="M74.7,7.4c0,0,1,3.9,4,3.9c3,0.1,4.2-2.4,4.5-3.9l-3.3-1.8L74.7,7.4z"/>
			<path class="st3" d="M78.8,11.5c0,0-0.1,0-0.1,0c-3.1-0.1-4.1-4-4.2-4l0-0.1l5.4-1.8l3.5,1.9l0,0.1C83,9.4,81.6,11.5,78.8,11.5z
				 M74.9,7.5c0.2,0.7,1.3,3.6,3.8,3.7c0,0,0.1,0,0.1,0c3.2,0,4-2.9,4.2-3.7l-3.2-1.7L74.9,7.5z"/>
			<path class="st2" d="M83.2,7.4c0,0,1,3.9,4,3.9c3,0.1,4.2-2.4,4.5-3.9l-3.3-1.8L83.2,7.4z"/>
			<path class="st3" d="M87.3,11.5c0,0-0.1,0-0.1,0c-3.1-0.1-4.1-4-4.2-4l0-0.1l5.4-1.8l3.5,1.9l0,0.1C91.5,9.4,90.1,11.5,87.3,11.5
				z M83.4,7.5c0.2,0.7,1.3,3.6,3.8,3.7c0,0,0.1,0,0.1,0c3.2,0,4-2.9,4.2-3.7l-3.2-1.7L83.4,7.5z"/>
			<path class="st2" d="M91.7,7.4c0,0,1,3.9,4,3.9c3,0.1,4.2-2.4,4.5-3.9l-3.3-1.8L91.7,7.4z"/>
			<path class="st3" d="M95.8,11.5c0,0-0.1,0-0.1,0c-3.1-0.1-4.1-4-4.2-4l0-0.1l5.4-1.8l3.5,1.9l0,0.1C100,9.4,98.6,11.5,95.8,11.5z
				 M91.9,7.5c0.2,0.7,1.3,3.6,3.8,3.7c0,0,0.1,0,0.1,0c3.2,0,4-2.9,4.2-3.7l-3.2-1.7L91.9,7.5z"/>
			<path class="st2" d="M100.2,7.4c0,0,1,3.9,4,3.9c3,0.1,4.2-2.4,4.5-3.9l-3.3-1.8L100.2,7.4z"/>
			<path class="st3" d="M104.4,11.5c0,0-0.1,0-0.1,0c-3.1-0.1-4.1-4-4.2-4l0-0.1l5.4-1.8l3.5,1.9l0,0.1
				C108.5,9.4,107.1,11.5,104.4,11.5z M100.4,7.5c0.2,0.7,1.3,3.6,3.8,3.7c3.2,0.1,4.1-2.8,4.3-3.7l-3.2-1.7L100.4,7.5z"/>
		</g>
	</g>
	<g>
		<g>
			<rect x="17.9" y="12.3" class="st4" width="11.7" height="29.3"/>
		</g>
		<g>
			<path class="st5" d="M30.7,13.7H16.9c-0.8,0-1.4-0.6-1.4-1.4V9.5c0-0.8,0.6-1.4,1.4-1.4h13.8c0.8,0,1.4,0.6,1.4,1.4v2.9
				C32,13.1,31.4,13.7,30.7,13.7z"/>
		</g>
		<g>
			<rect x="17.9" y="18.5" class="st5" width="11.7" height="1.1"/>
		</g>
		<g>
			<rect x="23.2" y="12.2" class="st5" width="1.1" height="6.9"/>
		</g>
		<g>
			<rect x="23.2" y="24.4" class="st5" width="1.1" height="6.5"/>
		</g>
		<g>
			<rect x="17.9" y="24.3" class="st5" width="11.7" height="1.1"/>
		</g>
		<g>
			<rect x="17.9" y="30.1" class="st5" width="11.7" height="1.1"/>
		</g>
		<g>
			<rect x="17.9" y="35.2" class="st5" width="11.7" height="1.1"/>
		</g>
	</g>
	<polygon class="st4" points="100.9,150 7.9,150 7.9,48.5 54.4,3.4 100.9,50.2 	"/>
	<rect x="7.9" y="96" class="st5" width="93" height="7"/>
	<g>
		<g>
			<path class="st6" d="M25.8,129.5c-0.1,0-0.1,0-0.2-0.1c-0.1-0.1-0.1-0.2,0-0.3l5.8-5.6c0.1-0.1,0.2-0.1,0.3,0
				c0.1,0.1,0.1,0.2,0,0.3l-5.8,5.6C26,129.4,25.9,129.5,25.8,129.5z"/>
		</g>
		<g>
			<path class="st6" d="M35.6,131.5c-0.1,0-0.1,0-0.2-0.1c-0.1-0.1-0.1-0.2,0-0.3l5.8-5.6c0.1-0.1,0.2-0.1,0.3,0
				c0.1,0.1,0.1,0.2,0,0.3l-5.8,5.6C35.7,131.4,35.6,131.5,35.6,131.5z"/>
		</g>
		<path class="st7" d="M30.2,110.6h3.7c5.4,0,9.7,4.4,9.7,9.7V150H20.5v-29.7C20.5,115,24.8,110.6,30.2,110.6z"/>
		<path class="st8" d="M30.5,112.8h3.1c4.6,0,8.3,3.7,8.3,8.3v28.6c0,0.2-0.1,0.3-0.3,0.3H22.5c-0.2,0-0.3-0.1-0.3-0.3v-28.6
			C22.3,116.5,26,112.8,30.5,112.8z"/>
		<g>
			<g>
				<path class="st9" d="M24,141.2c0,0-0.1,0-0.1,0c-0.1-0.1-0.1-0.2,0-0.2l13.7-13.6c0.1-0.1,0.2-0.1,0.2,0c0.1,0.1,0.1,0.2,0,0.2
					l-13.7,13.6C24,141.2,24,141.2,24,141.2z"/>
				<path class="st9" d="M24,141.3c-0.1,0-0.1,0-0.1-0.1c-0.1-0.1-0.1-0.2,0-0.3l13.7-13.6c0.1-0.1,0.2-0.1,0.3,0
					c0.1,0.1,0.1,0.2,0,0.3l-13.7,13.6C24.1,141.2,24,141.3,24,141.3z M37.6,127.4C37.6,127.4,37.6,127.4,37.6,127.4L23.9,141
					c-0.1,0.1-0.1,0.1,0,0.2c0.1,0.1,0.1,0,0.2,0l13.7-13.6C37.8,127.5,37.8,127.5,37.6,127.4C37.7,127.4,37.7,127.4,37.6,127.4z"/>
			</g>
		</g>
		<g>
			<g>
				<path class="st9" d="M31.8,138.2C31.8,138.2,31.8,138.2,31.8,138.2c-0.1-0.1-0.1-0.1-0.1-0.1l7.1-6.6c0,0,0.1,0,0.1,0
					c0,0,0,0.1,0,0.1L31.8,138.2C31.9,138.2,31.8,138.2,31.8,138.2z"/>
				<path class="st9" d="M31.8,138.3c0,0-0.1,0-0.1,0c0,0-0.1-0.1-0.1-0.1c0,0,0-0.1,0.1-0.1l7.1-6.6c0.1-0.1,0.2-0.1,0.2,0
					c0,0,0.1,0.1,0.1,0.1c0,0,0,0.1-0.1,0.1l-7.1,6.6C31.9,138.3,31.9,138.3,31.8,138.3z"/>
			</g>
		</g>
		<g>
			<g>
				<path class="st9" d="M27.4,132.8C27.4,132.8,27.3,132.8,27.4,132.8c-0.1-0.1-0.1-0.2-0.1-0.2l10.3-9.8c0,0,0.1,0,0.2,0
					c0,0,0,0.1,0,0.2L27.4,132.8C27.5,132.8,27.4,132.8,27.4,132.8z"/>
				<path class="st9" d="M27.4,132.9c-0.1,0-0.1,0-0.1-0.1c0,0-0.1-0.1-0.1-0.1c0-0.1,0-0.1,0.1-0.1l10.3-9.8c0.1-0.1,0.2-0.1,0.3,0
					c0,0,0.1,0.1,0.1,0.1c0,0.1,0,0.1-0.1,0.1l-10.3,9.8C27.5,132.9,27.4,132.9,27.4,132.9z M37.7,122.8
					C37.7,122.8,37.6,122.8,37.7,122.8l-10.3,9.8c0,0,0,0,0,0c0,0,0,0,0,0c0,0,0,0,0.1,0L37.7,122.8
					C37.7,122.9,37.7,122.9,37.7,122.8C37.7,122.9,37.7,122.9,37.7,122.8C37.7,122.8,37.7,122.8,37.7,122.8z"/>
			</g>
		</g>
	</g>
	<g>
		<rect x="64.7" y="114.4" class="st10" width="21.8" height="20.8"/>
		<g>
			<g>
				<path class="st11" d="M71.5,122c0,0-0.1,0-0.1,0c-0.1-0.1-0.1-0.2,0-0.2l3.6-3.5c0.1-0.1,0.2-0.1,0.2,0c0.1,0.1,0.1,0.2,0,0.2
					l-3.6,3.5C71.6,121.9,71.5,122,71.5,122z"/>
			</g>
			<g>
				<path class="st11" d="M73.7,125.8c0,0-0.1,0-0.1,0c-0.1-0.1-0.1-0.2,0-0.2l3.6-3.5c0.1-0.1,0.2-0.1,0.2,0c0.1,0.1,0.1,0.2,0,0.2
					l-3.6,3.5C73.8,125.8,73.8,125.8,73.7,125.8z"/>
			</g>
			<g>
				<path class="st11" d="M69.8,125.5c0,0-0.1,0-0.1-0.1c-0.1-0.1-0.1-0.2,0-0.2L81.2,115c0.1-0.1,0.2-0.1,0.2,0
					c0.1,0.1,0.1,0.2,0,0.2l-11.4,10.2C69.9,125.5,69.9,125.5,69.8,125.5z"/>
			</g>
		</g>
		<g>
			<g>
				<rect x="74.9" y="114.4" class="st7" width="1.2" height="21.5"/>
			</g>
		</g>
		<g>
			<g>
				<g>
					<rect x="64.7" y="120.1" class="st7" width="21.8" height="1.2"/>
				</g>
			</g>
			<g>
				<g>
					<rect x="64.7" y="127.2" class="st7" width="21.8" height="1.2"/>
				</g>
			</g>
		</g>
		<rect x="62.4" y="110.4" class="st7" width="26.4" height="4"/>
		<rect x="62.4" y="133.9" class="st7" width="26.4" height="4"/>
	</g>
	<g>
		<g>
			<rect x="17.7" y="54.7" class="st10" width="22.7" height="28.3"/>
			<g>
				<g>
					<path class="st11" d="M24.6,69.2C24.5,69.2,24.5,69.2,24.6,69.2c-0.1-0.1-0.1-0.2-0.1-0.2l3.2-3.1c0.1-0.1,0.1-0.1,0.2,0
						c0.1,0.1,0.1,0.1,0,0.2L24.6,69.2C24.6,69.2,24.6,69.2,24.6,69.2z"/>
				</g>
				<g>
					<path class="st11" d="M28.5,69.7C28.5,69.7,28.5,69.7,28.5,69.7c-0.1-0.1-0.1-0.2-0.1-0.2l3.2-3.1c0.1-0.1,0.1-0.1,0.2,0
						c0.1,0.1,0.1,0.1,0,0.2L28.5,69.7C28.6,69.7,28.6,69.7,28.5,69.7z"/>
				</g>
				<g>
					<path class="st11" d="M23.1,72.4C23.1,72.4,23,72.4,23.1,72.4C23,72.3,23,72.2,23,72.2L33.2,63c0.1,0,0.1,0,0.2,0
						c0,0.1,0,0.1,0,0.2L23.1,72.4C23.2,72.4,23.1,72.4,23.1,72.4z"/>
				</g>
			</g>
			<g>
				<g>
					<rect x="28.6" y="54.7" class="st7" width="1" height="29.6"/>
				</g>
			</g>
			<g>
				<g>
					<g>
						<rect x="17.8" y="63.6" class="st7" width="22.6" height="1"/>
					</g>
				</g>
				<g>
					<g>
						<rect x="17.8" y="73.1" class="st7" width="22.6" height="1"/>
					</g>
				</g>
			</g>
			<path class="st7" d="M40.2,85.6H18c-0.7,0-1.3-0.6-1.3-1.3l0,0c0-0.7,0.6-1.3,1.3-1.3h22.2c0.7,0,1.3,0.6,1.3,1.3l0,0
				C41.5,85,40.9,85.6,40.2,85.6z"/>
		</g>
		<g>
			<rect x="68.4" y="54.7" class="st10" width="22.7" height="28.3"/>
			<g>
				<g>
					<path class="st11" d="M75.2,69.2C75.2,69.2,75.1,69.2,75.2,69.2c-0.1-0.1-0.1-0.2-0.1-0.2l3.2-3.1c0.1-0.1,0.1-0.1,0.2,0
						c0.1,0.1,0.1,0.1,0,0.2L75.2,69.2C75.3,69.2,75.2,69.2,75.2,69.2z"/>
				</g>
				<g>
					<path class="st11" d="M79.2,69.7C79.1,69.7,79.1,69.7,79.2,69.7c-0.1-0.1-0.1-0.2-0.1-0.2l3.2-3.1c0.1-0.1,0.1-0.1,0.2,0
						c0.1,0.1,0.1,0.1,0,0.2L79.2,69.7C79.2,69.7,79.2,69.7,79.2,69.7z"/>
				</g>
				<g>
					<path class="st11" d="M73.7,72.4C73.7,72.4,73.7,72.4,73.7,72.4c-0.1-0.1-0.1-0.2-0.1-0.2L83.8,63c0.1,0,0.1,0,0.2,0
						c0,0.1,0,0.1,0,0.2L73.7,72.4C73.8,72.4,73.8,72.4,73.7,72.4z"/>
				</g>
			</g>
			<g>
				<g>
					<rect x="79.2" y="54.7" class="st7" width="1" height="29.6"/>
				</g>
			</g>
			<g>
				<g>
					<g>
						<rect x="68.4" y="63.6" class="st7" width="22.6" height="1"/>
					</g>
				</g>
				<g>
					<g>
						<rect x="68.4" y="73.1" class="st7" width="22.6" height="1"/>
					</g>
				</g>
			</g>
			<path class="st7" d="M90.8,85.6H68.6c-0.7,0-1.3-0.6-1.3-1.3l0,0c0-0.7,0.6-1.3,1.3-1.3h22.2c0.7,0,1.3,0.6,1.3,1.3l0,0
				C92.1,85,91.5,85.6,90.8,85.6z"/>
		</g>
	</g>
	<g>
		<rect x="76.4" y="42.5" class="st5" width="7.7" height="4"/>
	</g>
	<g>
		<rect x="10.1" y="106.5" class="st5" width="7.7" height="4"/>
	</g>
	<g>
		<rect x="7.9" y="111.4" class="st5" width="4.4" height="4"/>
	</g>
	<g>
		<rect x="96.5" y="125.2" class="st5" width="4.4" height="4"/>
	</g>
	<g>
		<rect x="87.5" y="48" class="st5" width="4.4" height="4"/>
	</g>
	<g>
		<rect x="37.3" y="37.3" class="st5" width="6" height="4"/>
	</g>
	<path class="st12" d="M7.9,48.5v7.4l44.5-41.8c1.1-1,2.8-1,3.9,0l44.5,41.8v-5.7L55.8,5.8L7.9,48.5z"/>
	<g>
		<path class="st13" d="M53.5,0.4L0.4,52c-0.8,0.8-0.3,2.2,0.9,2.2h5c0.3,0,0.6-0.1,0.9-0.4L53.5,9.8c0.5-0.5,1.3-0.5,1.8,0
			l46.3,44.1c0.2,0.2,0.6,0.4,0.9,0.4h5c1.2,0,1.7-1.4,0.9-2.2L55.3,0.4C54.8-0.1,54-0.1,53.5,0.4z"/>
	</g>
</g>
</svg>
