<?xml version="1.0" encoding="utf-8"?>
<!-- Generator: Adobe Illustrator 22.0.0, SVG Export Plug-In . SVG Version: 6.00 Build 0)  -->
<svg version="1.1" id="Layer_1" xmlns="http://www.w3.org/2000/svg" xmlns:xlink="http://www.w3.org/1999/xlink" x="0px" y="0px"
	 viewBox="0 0 123.5 150" style="enable-background:new 0 0 123.5 150;" xml:space="preserve">
<style type="text/css">
	.st0{fill:#F17356;}
	.st1{fill:#BD5953;}
	.st2{opacity:0.2;}
	.st3{fill:#4E5876;}
	.st4{fill:#5B6A89;}
	.st5{fill:#5D9D9B;}
	.st6{fill:#836750;}
	.st7{fill:#A3896F;}
	.st8{fill:#C2A990;}
	.st9{fill:#86C9C6;}
</style>
<g>
	<g>
		<g>
			<rect x="97.1" y="13.8" class="st0" width="14.6" height="36.6"/>
		</g>
		<g>
			<path class="st1" d="M113,15.6H95.8c-0.9,0-1.7-0.8-1.7-1.7v-3.6c0-0.9,0.8-1.7,1.7-1.7H113c0.9,0,1.7,0.8,1.7,1.7v3.6
				C114.7,14.9,113.9,15.6,113,15.6z"/>
		</g>
		<g>
			<rect x="97.1" y="21.7" class="st1" width="14.6" height="1.4"/>
		</g>
		<g>
			<rect x="103.7" y="13.7" class="st1" width="1.4" height="8.6"/>
		</g>
		<g>
			<rect x="103.7" y="29" class="st1" width="1.4" height="8.1"/>
		</g>
		<g>
			<rect x="97.1" y="28.9" class="st1" width="14.6" height="1.4"/>
		</g>
		<g>
			<rect x="97.1" y="36.1" class="st1" width="14.6" height="1.4"/>
		</g>
		<g>
			<rect x="97.1" y="42.5" class="st1" width="14.6" height="1.4"/>
		</g>
	</g>
	<g>
		<polygon class="st0" points="60.2,4.7 7.5,57.1 7.5,72 7.5,141.2 119,141.2 119,72 119,62.1 		"/>
	</g>
	<g class="st2">
		<path class="st3" d="M61.7,1.1L7.5,55.2v8.6l54.2-51.4L119,66.7v-5.4c1.4,0,2.1-1.8,1.1-2.8L61.7,1.1z"/>
	</g>
	<g>
		<rect x="3.2" y="141.2" class="st4" width="120.2" height="8.8"/>
	</g>
	<g>
		<rect x="21.6" y="85.3" class="st5" width="43" height="35.6"/>
	</g>
	<g>
		<rect x="79.2" y="83.7" class="st6" width="28.3" height="57.4"/>
	</g>
	<g>
		<rect x="81.5" y="87.4" class="st7" width="23.7" height="50.8"/>
	</g>
	<g>
		<path class="st4" d="M108.3,85.3H78.5c-0.7,0-1.2-0.6-1.2-1.2v-2.3c0-0.7,0.6-1.2,1.2-1.2h29.8c0.7,0,1.2,0.6,1.2,1.2v2.3
			C109.6,84.8,109,85.3,108.3,85.3z"/>
	</g>
	<g>
		<path class="st4" d="M59.2,1L1.1,57.6c-2.3,2.3-0.7,6.2,2.5,6.2l0,0c0.9,0,1.8-0.4,2.5-1l53.1-50.6c1.4-1.3,3.6-1.3,5,0l53.1,50.6
			c0.7,0.6,1.6,1,2.5,1l0,0c3.2,0,4.9-3.9,2.5-6.2L64.3,1C62.9-0.3,60.6-0.3,59.2,1z"/>
	</g>
	<g>
		<rect x="13.8" y="69.3" class="st1" width="9.6" height="5"/>
	</g>
	<g>
		<rect x="92.3" y="61.3" class="st1" width="9.6" height="5"/>
	</g>
	<g>
		<rect x="23.4" y="64.3" class="st1" width="9.6" height="5"/>
	</g>
	<g>
		<rect x="7.5" y="115.5" class="st1" width="7.8" height="5"/>
	</g>
	<g>
		<rect x="20.4" y="83.7" class="st4" width="45.4" height="1.6"/>
	</g>
	<g>
		<path class="st8" d="M86,107.7c-0.1,0-0.1,0-0.2-0.1c-0.1-0.1-0.1-0.2,0-0.3l5.5-5.3c0.1-0.1,0.2-0.1,0.3,0c0.1,0.1,0.1,0.2,0,0.3
			l-5.5,5.3C86.1,107.7,86,107.7,86,107.7z"/>
	</g>
	<g>
		<g>
			<path class="st9" d="M29.3,99.6c-0.1,0-0.1,0-0.2-0.1c-0.1-0.1-0.1-0.2,0-0.3l5.5-5.3c0.1-0.1,0.2-0.1,0.3,0
				c0.1,0.1,0.1,0.2,0,0.3l-5.5,5.3C29.4,99.6,29.4,99.6,29.3,99.6z"/>
		</g>
		<g>
			<path class="st9" d="M36.1,100.6c-0.1,0-0.1,0-0.2-0.1c-0.1-0.1-0.1-0.2,0-0.3l5.5-5.3c0.1-0.1,0.2-0.1,0.3,0
				c0.1,0.1,0.1,0.2,0,0.3l-5.5,5.3C36.2,100.5,36.1,100.6,36.1,100.6z"/>
		</g>
		<g>
			<path class="st9" d="M26.8,105.1c-0.1,0-0.1,0-0.2-0.1c-0.1-0.1-0.1-0.2,0-0.3L44,89.1c0.1-0.1,0.2-0.1,0.3,0
				c0.1,0.1,0.1,0.2,0,0.3L27,105C26.9,105.1,26.9,105.1,26.8,105.1z"/>
		</g>
	</g>
	<g>
		<path class="st8" d="M95.3,109.6c-0.1,0-0.1,0-0.2-0.1c-0.1-0.1-0.1-0.2,0-0.3l5.5-5.3c0.1-0.1,0.2-0.1,0.3,0
			c0.1,0.1,0.1,0.2,0,0.3l-5.5,5.3C95.4,109.6,95.3,109.6,95.3,109.6z"/>
	</g>
	<g>
		<path class="st8" d="M83.6,115.7c-0.1,0-0.1,0-0.2-0.1c-0.1-0.1-0.1-0.2,0-0.3l18.9-18.7c0.1-0.1,0.2-0.1,0.3,0
			c0.1,0.1,0.1,0.2,0,0.3l-18.9,18.7C83.7,115.7,83.7,115.7,83.6,115.7z"/>
	</g>
	<g>
		<g>
			<g>
				<g>
					<rect x="32.1" y="85.3" class="st4" width="1.4" height="32.7"/>
				</g>
			</g>
			<g>
				<g>
					<rect x="42.4" y="85.3" class="st4" width="1.4" height="32.7"/>
				</g>
			</g>
			<g>
				<g>
					<rect x="52.6" y="85.3" class="st4" width="1.4" height="32.7"/>
				</g>
			</g>
		</g>
		<g>
			<g>
				<rect x="21.6" y="102.5" class="st4" width="43" height="1.2"/>
			</g>
		</g>
	</g>
	<g>
		<g>
			<ellipse transform="matrix(0.1644 -0.9864 0.9864 0.1644 10.8521 98.0049)" class="st5" cx="63.3" cy="42.6" rx="11" ry="11"/>
		</g>
		<g>
			<g>
				<path class="st4" d="M63.3,55.2c-6.9,0-12.6-5.6-12.6-12.6c0-6.9,5.6-12.6,12.6-12.6c6.9,0,12.6,5.6,12.6,12.6
					C75.8,49.5,70.2,55.2,63.3,55.2z M63.3,33.1c-5.2,0-9.5,4.3-9.5,9.5c0,5.2,4.3,9.5,9.5,9.5c5.2,0,9.5-4.3,9.5-9.5
					C72.8,37.4,68.5,33.1,63.3,33.1z"/>
			</g>
		</g>
		<g>
			<rect x="61.8" y="32.1" class="st4" width="2.8" height="20.9"/>
		</g>
		<g>
			
				<rect x="61.8" y="32.1" transform="matrix(-1.836970e-16 1 -1 -1.836970e-16 105.8667 -20.6719)" class="st4" width="2.8" height="20.9"/>
		</g>
	</g>
	<g>
		<path class="st4" d="M21.7,118h42.7c1.5,0,2.7,1.2,2.7,2.7v4.6c0,1.5-1.2,2.7-2.7,2.7H21.7c-1.5,0-2.7-1.2-2.7-2.7v-4.6
			C19,119.2,20.2,118,21.7,118z"/>
	</g>
</g>
</svg>
